<?xml version="1.0" encoding="utf-8"?>
<!-- Generator: Adobe Illustrator 27.0.0, SVG Export Plug-In . SVG Version: 6.00 Build 0)  -->
<svg version="1.1" id="Calque_1" xmlns="http://www.w3.org/2000/svg" xmlns:xlink="http://www.w3.org/1999/xlink" x="0px" y="0px"
	 viewBox="0 0 475.9 41.3" style="enable-background:new 0 0 475.9 41.3;" xml:space="preserve">
<style type="text/css">
	.st0{fill:#4A4A4A;}
	.st1{fill:url(#SVGID_1_);}
	.st2{fill:url(#SVGID_00000070840376634106644230000007130467076091126672_);}
	.st3{fill:url(#SVGID_00000137837190020710417970000008541967590517993097_);}
	.st4{fill:url(#SVGID_00000043454016309821742500000005933276328931200388_);}
	.st5{fill:url(#SVGID_00000021085019109413144470000007781766372577971597_);}
	.st6{fill:url(#SVGID_00000180341614564493885430000012860350942668650905_);}
	.st7{fill:url(#SVGID_00000169533086573943029220000014942721077954949255_);}
	.st8{fill:url(#SVGID_00000151531605370474527090000008686822381045847213_);}
	.st9{fill:url(#SVGID_00000030455545437471487850000013598528442430191775_);}
	.st10{fill:url(#SVGID_00000065790071246185477400000005969923439249500347_);}
	.st11{fill:url(#SVGID_00000033348175165893184190000017683394968088185269_);}
	.st12{fill:url(#SVGID_00000040538316155479606760000007740551885565618586_);}
	.st13{fill:url(#SVGID_00000026160782815379641880000017108449334301785761_);}
</style>
<polygon class="st0" points="238.7,0 238.5,0 0.7,0 45.2,41.3 238.5,41.3 238.7,41.3 432.1,41.3 476.6,0 "/>
<g>
	
		<linearGradient id="SVGID_1_" gradientUnits="userSpaceOnUse" x1="146.3" y1="17.3073" x2="146.3" y2="28.6672" gradientTransform="matrix(1 0 0 -1 0 44)">
		<stop  offset="0" style="stop-color:#592B11"/>
		<stop  offset="0.2266" style="stop-color:#BF8A49"/>
		<stop  offset="0.365" style="stop-color:#CF9F54"/>
		<stop  offset="0.4879" style="stop-color:#D9AD5B"/>
		<stop  offset="0.524" style="stop-color:#DBB160"/>
		<stop  offset="0.5692" style="stop-color:#E1BC70"/>
		<stop  offset="0.6195" style="stop-color:#EACD8A"/>
		<stop  offset="0.673" style="stop-color:#F7E6AD"/>
		<stop  offset="0.6949" style="stop-color:#FDF2BE"/>
		<stop  offset="0.8957" style="stop-color:#E4C27A"/>
		<stop  offset="1" style="stop-color:#D9AD5B"/>
	</linearGradient>
	<path class="st1" d="M145.4,21.5c0-0.6-0.1-0.7-0.5-1.2l-3.4-4.2c-1.7-2.2-3-3.3-4.2-3.4c-0.3,0-0.6,0-0.6-0.2
		c0-0.1,0.2-0.1,0.5-0.1c1.2,0,1.4,0,2.8,0s2.3,0,3.2,0c0.3,0,0.5,0,0.5,0.1c0,0.2-0.2,0.2-0.5,0.2c-0.6,0-1,0.1-1,0.5s0.3,1,1,1.9
		l3.6,4.7l3.9-4.8c0.6-0.8,1-1.3,1-1.7s-0.3-0.5-1.1-0.5c-0.2,0-0.4,0-0.4-0.2c0-0.1,0.2-0.1,0.4-0.1c1.2,0,1.6,0,2.5,0s1.3,0,2.3,0
		c0.4,0,0.5,0,0.5,0.1c0,0.2-0.2,0.2-0.5,0.2c-1.2,0-1.7,0.4-3.6,2.7l-3.9,4.9c-0.4,0.5-0.4,0.6-0.4,1.1v1c0,1,0.1,1.6,0.3,1.9
		c0.4,0.7,1.3,1,2,1c0.3,0,0.6,0,0.6,0.2s-0.2,0.2-0.5,0.2c-1.1,0-2.3,0-3.3,0c-1.1,0-2.1,0-3.4,0c-0.3,0-0.5,0-0.5-0.2
		s0.2-0.2,0.6-0.2c0.7,0,1.6-0.3,2-1c0.2-0.4,0.3-0.9,0.3-1.9v-1H145.4z"/>
	
		<linearGradient id="SVGID_00000114763310722371918480000001752211423094703545_" gradientUnits="userSpaceOnUse" x1="163.5" y1="17.3073" x2="163.5" y2="28.6672" gradientTransform="matrix(1 0 0 -1 0 44)">
		<stop  offset="0" style="stop-color:#592B11"/>
		<stop  offset="0.2266" style="stop-color:#BF8A49"/>
		<stop  offset="0.365" style="stop-color:#CF9F54"/>
		<stop  offset="0.4879" style="stop-color:#D9AD5B"/>
		<stop  offset="0.524" style="stop-color:#DBB160"/>
		<stop  offset="0.5692" style="stop-color:#E1BC70"/>
		<stop  offset="0.6195" style="stop-color:#EACD8A"/>
		<stop  offset="0.673" style="stop-color:#F7E6AD"/>
		<stop  offset="0.6949" style="stop-color:#FDF2BE"/>
		<stop  offset="0.8957" style="stop-color:#E4C27A"/>
		<stop  offset="1" style="stop-color:#D9AD5B"/>
	</linearGradient>
	<path style="fill:url(#SVGID_00000114763310722371918480000001752211423094703545_);" d="M163.5,14.8c4.8,0,8.1,2.2,8.1,5.5
		c0,3-2.6,5.8-8.2,5.8c-4.8,0-8-2.2-8-5.5C155.4,17.6,158,14.8,163.5,14.8z M157.9,20.2c0,2.8,1.9,5.2,5.7,5.2
		c3.1,0,5.6-1.5,5.6-4.8c0-2.8-1.9-5.2-5.7-5.2C160.4,15.4,157.9,17,157.9,20.2z"/>
	
		<linearGradient id="SVGID_00000164500997972139737310000006786296449484875178_" gradientUnits="userSpaceOnUse" x1="182.3" y1="17.3073" x2="182.3" y2="28.6672" gradientTransform="matrix(1 0 0 -1 0 44)">
		<stop  offset="0" style="stop-color:#592B11"/>
		<stop  offset="0.2266" style="stop-color:#BF8A49"/>
		<stop  offset="0.365" style="stop-color:#CF9F54"/>
		<stop  offset="0.4879" style="stop-color:#D9AD5B"/>
		<stop  offset="0.524" style="stop-color:#DBB160"/>
		<stop  offset="0.5692" style="stop-color:#E1BC70"/>
		<stop  offset="0.6195" style="stop-color:#EACD8A"/>
		<stop  offset="0.673" style="stop-color:#F7E6AD"/>
		<stop  offset="0.6949" style="stop-color:#FDF2BE"/>
		<stop  offset="0.8957" style="stop-color:#E4C27A"/>
		<stop  offset="1" style="stop-color:#D9AD5B"/>
	</linearGradient>
	<path style="fill:url(#SVGID_00000164500997972139737310000006786296449484875178_);" d="M187.7,17.6c0-0.8-0.1-1.2-0.2-1.4
		c-0.3-0.6-1.2-0.8-1.7-0.8c-0.3,0-0.5,0-0.5-0.2s0.2-0.2,0.4-0.2c1,0,1.8,0,2.6,0c0.7,0,1.4,0,2.5,0c0.3,0,0.4,0,0.4,0.2
		c0,0.1-0.2,0.2-0.5,0.2c-0.7,0-1.4,0.3-1.7,0.8c-0.1,0.3-0.2,0.7-0.2,1.4v3c0,3.5-2.4,5.5-6.4,5.5c-3.1,0-6.5-1.3-6.5-5.5v-2.9
		c0-0.8-0.1-1.2-0.3-1.4c-0.3-0.6-1.2-0.8-1.7-0.8c-0.3,0-0.5,0-0.5-0.2c0-0.1,0.1-0.2,0.4-0.2c1.2,0,2.1,0,3.1,0s2.1,0,3.1,0
		c0.3,0,0.4,0,0.4,0.2c0,0.1-0.2,0.2-0.5,0.2c-0.7,0-1.4,0.3-1.7,0.8c-0.2,0.3-0.2,0.7-0.2,1.4v2.9c0,3.6,2.4,4.6,4.8,4.6
		c2.7,0,4.8-1.5,4.8-4.6L187.7,17.6L187.7,17.6z"/>
	
		<linearGradient id="SVGID_00000080173949734165434590000006962815806158836895_" gradientUnits="userSpaceOnUse" x1="201.2125" y1="17.3073" x2="201.2125" y2="28.6672" gradientTransform="matrix(1 0 0 -1 0 44)">
		<stop  offset="0" style="stop-color:#592B11"/>
		<stop  offset="0.2266" style="stop-color:#BF8A49"/>
		<stop  offset="0.365" style="stop-color:#CF9F54"/>
		<stop  offset="0.4879" style="stop-color:#D9AD5B"/>
		<stop  offset="0.524" style="stop-color:#DBB160"/>
		<stop  offset="0.5692" style="stop-color:#E1BC70"/>
		<stop  offset="0.6195" style="stop-color:#EACD8A"/>
		<stop  offset="0.673" style="stop-color:#F7E6AD"/>
		<stop  offset="0.6949" style="stop-color:#FDF2BE"/>
		<stop  offset="0.8957" style="stop-color:#E4C27A"/>
		<stop  offset="1" style="stop-color:#D9AD5B"/>
	</linearGradient>
	<path style="fill:url(#SVGID_00000080173949734165434590000006962815806158836895_);" d="M195.5,17.5c0-1.3-0.6-2.1-1.9-2.1
		c-0.3,0-0.4,0-0.4-0.2c0-0.1,0.1-0.2,0.3-0.2c0.9,0,1.9,0,3,0c1.2,0,2.4,0,3,0h1.5c2.7,0,5.7,0.5,5.7,3.1c0,1.9-1.7,2.8-3.5,3.1
		c0.4,0.1,1,0.9,1.4,1.4c1.5,2,2.6,3,3.6,3c0.3,0,0.5,0,0.8,0s0.3,0.2,0,0.3c-0.4,0-1.1,0.1-1.6,0.1c-2.7,0-3.1-0.2-5.1-3
		c-1.2-1.7-1.4-1.7-2.4-1.7h-2.2c-0.1,0-0.1,0-0.1,0.2v1.8c0,0.8,0,1.2,0.2,1.5c0.4,0.6,1.3,0.8,1.7,0.8c0.3,0,0.5,0,0.5,0.2
		c0,0.1-0.1,0.2-0.4,0.2c-1.1,0-2.1,0-3,0s-1.9,0-3,0c-0.3,0-0.4,0-0.4-0.2c0-0.1,0.2-0.1,0.5-0.2c0.7,0,1.3-0.2,1.7-0.8
		c0.1-0.3,0.2-0.7,0.2-1.5v-5.8H195.5z M200.8,20.5c2.1,0,3.4-0.6,3.4-2.4s-1.3-2.4-3.4-2.4h-1.3c-1.8,0-1.9,0.1-1.9,1.7v3
		c0,0.1,0,0.2,0.1,0.2h3.1V20.5z"/>
	
		<linearGradient id="SVGID_00000096755844419098923700000003610664823135092874_" gradientUnits="userSpaceOnUse" x1="226.2101" y1="17.3073" x2="226.2101" y2="28.6672" gradientTransform="matrix(1 0 0 -1 0 44)">
		<stop  offset="0" style="stop-color:#592B11"/>
		<stop  offset="0.2266" style="stop-color:#BF8A49"/>
		<stop  offset="0.365" style="stop-color:#CF9F54"/>
		<stop  offset="0.4879" style="stop-color:#D9AD5B"/>
		<stop  offset="0.524" style="stop-color:#DBB160"/>
		<stop  offset="0.5692" style="stop-color:#E1BC70"/>
		<stop  offset="0.6195" style="stop-color:#EACD8A"/>
		<stop  offset="0.673" style="stop-color:#F7E6AD"/>
		<stop  offset="0.6949" style="stop-color:#FDF2BE"/>
		<stop  offset="0.8957" style="stop-color:#E4C27A"/>
		<stop  offset="1" style="stop-color:#D9AD5B"/>
	</linearGradient>
	<path style="fill:url(#SVGID_00000096755844419098923700000003610664823135092874_);" d="M234.3,23.5c-0.5,1.3-0.6,1.6-1.3,1.9
		c-1,0.4-2.8,0.6-5.4,0.6c-4.5,0-10.3-1.7-10.3-6.9s5.9-6.9,10.4-6.9c1.8,0,3.4,0.3,5.7,1c0.6,0.2,0.7-0.1,0.9-0.1
		c0.1,0,0.2,0.1,0.2,0.4v3.6c0,0.3-0.3,0.3-0.3,0c-0.7-3-3.3-4.2-6.5-4.2c-3.8,0-7.5,1.9-7.5,6.2s3.6,6.3,7.5,6.3
		c3.7,0,6.3-2.2,7.1-4.1c0.1-0.2,0.4-0.2,0.3,0.1L234.3,23.5z"/>
	
		<linearGradient id="SVGID_00000102514533694042023690000007541632739227031720_" gradientUnits="userSpaceOnUse" x1="245.6125" y1="17.3073" x2="245.6125" y2="28.6672" gradientTransform="matrix(1 0 0 -1 0 44)">
		<stop  offset="0" style="stop-color:#592B11"/>
		<stop  offset="0.2266" style="stop-color:#BF8A49"/>
		<stop  offset="0.365" style="stop-color:#CF9F54"/>
		<stop  offset="0.4879" style="stop-color:#D9AD5B"/>
		<stop  offset="0.524" style="stop-color:#DBB160"/>
		<stop  offset="0.5692" style="stop-color:#E1BC70"/>
		<stop  offset="0.6195" style="stop-color:#EACD8A"/>
		<stop  offset="0.673" style="stop-color:#F7E6AD"/>
		<stop  offset="0.6949" style="stop-color:#FDF2BE"/>
		<stop  offset="0.8957" style="stop-color:#E4C27A"/>
		<stop  offset="1" style="stop-color:#D9AD5B"/>
	</linearGradient>
	<path style="fill:url(#SVGID_00000102514533694042023690000007541632739227031720_);" d="M239.9,17.5c0-1.3-0.6-2.1-1.9-2.1
		c-0.3,0-0.4,0-0.4-0.2c0-0.1,0.1-0.2,0.3-0.2c0.9,0,1.9,0,3,0c1.2,0,2.4,0,3,0h1.5c2.7,0,5.7,0.5,5.7,3.1c0,1.9-1.7,2.8-3.5,3.1
		c0.4,0.1,1,0.9,1.4,1.4c1.5,2,2.6,3,3.6,3c0.3,0,0.5,0,0.8,0s0.3,0.2,0,0.3c-0.4,0-1.1,0.1-1.6,0.1c-2.7,0-3.1-0.2-5.1-3
		c-1.2-1.7-1.4-1.7-2.4-1.7h-2.2c-0.1,0-0.1,0-0.1,0.2v1.8c0,0.8,0,1.2,0.2,1.5c0.4,0.6,1.3,0.8,1.7,0.8c0.3,0,0.5,0,0.5,0.2
		c0,0.1-0.1,0.2-0.4,0.2c-1.1,0-2.1,0-3,0s-1.9,0-3,0c-0.3,0-0.4,0-0.4-0.2c0-0.1,0.2-0.1,0.5-0.2c0.7,0,1.3-0.2,1.7-0.8
		c0.1-0.3,0.2-0.7,0.2-1.5v-5.8H239.9z M245.3,20.5c2.1,0,3.4-0.6,3.4-2.4s-1.3-2.4-3.4-2.4H244c-1.8,0-1.9,0.1-1.9,1.7v3
		c0,0.1,0,0.2,0.1,0.2h3.1V20.5z"/>
	
		<linearGradient id="SVGID_00000129202186680962706940000007835382684861841050_" gradientUnits="userSpaceOnUse" x1="261.5601" y1="17.3073" x2="261.5601" y2="28.6672" gradientTransform="matrix(1 0 0 -1 0 44)">
		<stop  offset="0" style="stop-color:#592B11"/>
		<stop  offset="0.2266" style="stop-color:#BF8A49"/>
		<stop  offset="0.365" style="stop-color:#CF9F54"/>
		<stop  offset="0.4879" style="stop-color:#D9AD5B"/>
		<stop  offset="0.524" style="stop-color:#DBB160"/>
		<stop  offset="0.5692" style="stop-color:#E1BC70"/>
		<stop  offset="0.6195" style="stop-color:#EACD8A"/>
		<stop  offset="0.673" style="stop-color:#F7E6AD"/>
		<stop  offset="0.6949" style="stop-color:#FDF2BE"/>
		<stop  offset="0.8957" style="stop-color:#E4C27A"/>
		<stop  offset="1" style="stop-color:#D9AD5B"/>
	</linearGradient>
	<path style="fill:url(#SVGID_00000129202186680962706940000007835382684861841050_);" d="M261.1,25.8c-1.1,0-1.8,0-2.8,0
		c-0.9,0-2,0-2.9,0c-0.2,0-0.3-0.1-0.3-0.1c0-0.1,0.1-0.2,0.3-0.2c1.4,0,1.9-0.9,1.9-2.2v-5.8c0-1.3-0.5-2.2-1.9-2.2
		c-0.2,0-0.3-0.1-0.3-0.2c0-0.1,0.1-0.2,0.3-0.2c0.9,0,1.9,0,2.9,0c1.1,0,1.8,0,2.6,0h4.6c1.3,0,1.4-0.2,1.7-0.2
		c0.1,0,0.2,0.1,0.2,0.2l-0.3,2.7c0,0.3-0.3,0.2-0.3,0c0-1.7-1.4-1.9-3.6-1.9h-2.3c-1.4,0-1.6,0.2-1.6,1.6v2.3c0,0.1,0,0.2,0.2,0.2
		h3.4c1,0,1.7-0.5,1.7-1.4c0-0.4,0.3-0.4,0.3,0c0,0.6,0,1.2,0,1.8s0,1.3,0,1.8c0,0.3-0.3,0.3-0.3,0c0-0.9-0.7-1.4-1.7-1.4h-3.4
		c-0.1,0-0.2,0-0.2,0.2V23c0,1.7,0.3,1.9,3.4,1.9c2.4,0,4.2-0.6,5-2.7c0.1-0.3,0.4-0.2,0.3,0.1l-0.8,2.6c-0.2,0.6-0.4,0.8-1.2,0.8
		h-4.9V25.8z"/>
	
		<linearGradient id="SVGID_00000179629199513236686760000008024580502273124761_" gradientUnits="userSpaceOnUse" x1="278.2" y1="17.3073" x2="278.2" y2="28.6672" gradientTransform="matrix(1 0 0 -1 0 44)">
		<stop  offset="0" style="stop-color:#592B11"/>
		<stop  offset="0.2266" style="stop-color:#BF8A49"/>
		<stop  offset="0.365" style="stop-color:#CF9F54"/>
		<stop  offset="0.4879" style="stop-color:#D9AD5B"/>
		<stop  offset="0.524" style="stop-color:#DBB160"/>
		<stop  offset="0.5692" style="stop-color:#E1BC70"/>
		<stop  offset="0.6195" style="stop-color:#EACD8A"/>
		<stop  offset="0.673" style="stop-color:#F7E6AD"/>
		<stop  offset="0.6949" style="stop-color:#FDF2BE"/>
		<stop  offset="0.8957" style="stop-color:#E4C27A"/>
		<stop  offset="1" style="stop-color:#D9AD5B"/>
	</linearGradient>
	<path style="fill:url(#SVGID_00000179629199513236686760000008024580502273124761_);" d="M281.2,22.5h-7l-0.7,1.2
		c-0.2,0.4-0.4,0.7-0.4,1.1s0.3,0.7,1.1,0.7c0.3,0,0.5,0,0.5,0.2c0,0.1-0.1,0.2-0.4,0.2c-0.8,0-1.6,0-2.4,0s-1.5,0-2.3,0
		c-0.3,0-0.4,0-0.4-0.2c0-0.1,0.2-0.2,0.5-0.2c1.3,0,2-0.9,2.9-2.2l4.7-7.2c-0.4-0.6-1.1-0.7-1.8-0.7c-0.4,0-0.5-0.3,0-0.3h2.2
		c1.1,0,1.4,0.2,1.8,0.7l4.8,7.8c0.6,1,1.4,2,2.4,2c0.3,0,0.5,0,0.5,0.2c0,0.1-0.1,0.1-0.5,0.1c-1,0-1.5,0-2.4,0s-2,0-3,0
		c-0.3,0-0.4,0-0.4-0.1s0.1-0.2,0.4-0.2c0.6,0,1.2-0.1,1.2-0.6c0-0.2-0.1-0.5-0.3-0.9L281.2,22.5z M274.7,21.8h6l-3-4.9L274.7,21.8z
		"/>
	
		<linearGradient id="SVGID_00000152222200256186765110000001619563539308891009_" gradientUnits="userSpaceOnUse" x1="293.5899" y1="17.3073" x2="293.5899" y2="28.6672" gradientTransform="matrix(1 0 0 -1 0 44)">
		<stop  offset="0" style="stop-color:#592B11"/>
		<stop  offset="0.2266" style="stop-color:#BF8A49"/>
		<stop  offset="0.365" style="stop-color:#CF9F54"/>
		<stop  offset="0.4879" style="stop-color:#D9AD5B"/>
		<stop  offset="0.524" style="stop-color:#DBB160"/>
		<stop  offset="0.5692" style="stop-color:#E1BC70"/>
		<stop  offset="0.6195" style="stop-color:#EACD8A"/>
		<stop  offset="0.673" style="stop-color:#F7E6AD"/>
		<stop  offset="0.6949" style="stop-color:#FDF2BE"/>
		<stop  offset="0.8957" style="stop-color:#E4C27A"/>
		<stop  offset="1" style="stop-color:#D9AD5B"/>
	</linearGradient>
	<path style="fill:url(#SVGID_00000152222200256186765110000001619563539308891009_);" d="M292.5,15.9H290c-1.9,0-2.2,0.6-2.7,2.1
		c-0.1,0.2-0.4,0.2-0.3-0.1l0.3-2.8c0-0.2,0-0.3,0.2-0.3c0.1,0,0.3,0.2,1.3,0.2h9.6c1,0,1.2-0.2,1.3-0.2c0.1,0,0.2,0.1,0.2,0.3
		l0.3,2.8c0,0.3-0.2,0.3-0.3,0.1c-0.6-1.6-0.8-2.1-2.7-2.1h-2.5v7.4c0,0.8,0,1.2,0.2,1.5c0.3,0.6,1.1,0.8,1.7,0.8
		c0.3,0,0.5,0,0.5,0.2c0,0.1-0.1,0.1-0.4,0.1c-0.9,0-1.9,0-2.9,0s-2,0-3.1,0c-0.3,0-0.4,0-0.4-0.1s0.2-0.2,0.5-0.2
		c0.5,0,1.4-0.2,1.7-0.8c0.1-0.3,0.2-0.7,0.2-1.5v-7.4H292.5z"/>
	
		<linearGradient id="SVGID_00000030474046864807178480000009229893932126767261_" gradientUnits="userSpaceOnUse" x1="305.9" y1="17.3073" x2="305.9" y2="28.6672" gradientTransform="matrix(1 0 0 -1 0 44)">
		<stop  offset="0" style="stop-color:#592B11"/>
		<stop  offset="0.2266" style="stop-color:#BF8A49"/>
		<stop  offset="0.365" style="stop-color:#CF9F54"/>
		<stop  offset="0.4879" style="stop-color:#D9AD5B"/>
		<stop  offset="0.524" style="stop-color:#DBB160"/>
		<stop  offset="0.5692" style="stop-color:#E1BC70"/>
		<stop  offset="0.6195" style="stop-color:#EACD8A"/>
		<stop  offset="0.673" style="stop-color:#F7E6AD"/>
		<stop  offset="0.6949" style="stop-color:#FDF2BE"/>
		<stop  offset="0.8957" style="stop-color:#E4C27A"/>
		<stop  offset="1" style="stop-color:#D9AD5B"/>
	</linearGradient>
	<path style="fill:url(#SVGID_00000030474046864807178480000009229893932126767261_);" d="M304.8,17.6c0-0.8-0.1-1.2-0.2-1.4
		c-0.3-0.6-1.1-0.8-1.6-0.8c-0.3,0-0.5,0-0.5-0.2c0-0.1,0.2-0.2,0.4-0.2c1.1,0,1.9,0,3,0c1,0,2,0,3,0c0.3,0,0.4,0,0.4,0.2
		c0,0.1-0.2,0.2-0.5,0.2c-0.5,0-1.3,0.3-1.7,0.8c-0.1,0.3-0.2,0.7-0.2,1.4v5.6c0,0.8,0.1,1.2,0.2,1.5c0.3,0.6,1.1,0.8,1.7,0.8
		c0.3,0,0.5,0,0.5,0.2c0,0.1-0.1,0.1-0.4,0.1c-1.1,0-2,0-3,0c-0.9,0-1.9,0-2.9,0c-0.3,0-0.4,0-0.4-0.1s0.2-0.2,0.5-0.2
		c0.5,0,1.3-0.2,1.6-0.8c0.2-0.3,0.2-0.7,0.2-1.5v-5.6H304.8z"/>
	
		<linearGradient id="SVGID_00000157990802215749912570000014971183001530698124_" gradientUnits="userSpaceOnUse" x1="319.8" y1="17.3073" x2="319.8" y2="28.6672" gradientTransform="matrix(1 0 0 -1 0 44)">
		<stop  offset="0" style="stop-color:#592B11"/>
		<stop  offset="0.2266" style="stop-color:#BF8A49"/>
		<stop  offset="0.365" style="stop-color:#CF9F54"/>
		<stop  offset="0.4879" style="stop-color:#D9AD5B"/>
		<stop  offset="0.524" style="stop-color:#DBB160"/>
		<stop  offset="0.5692" style="stop-color:#E1BC70"/>
		<stop  offset="0.6195" style="stop-color:#EACD8A"/>
		<stop  offset="0.673" style="stop-color:#F7E6AD"/>
		<stop  offset="0.6949" style="stop-color:#FDF2BE"/>
		<stop  offset="0.8957" style="stop-color:#E4C27A"/>
		<stop  offset="1" style="stop-color:#D9AD5B"/>
	</linearGradient>
	<path style="fill:url(#SVGID_00000157990802215749912570000014971183001530698124_);" d="M319.8,14.8c4.8,0,8.1,2.2,8.1,5.5
		c0,3-2.6,5.8-8.2,5.8c-4.8,0-8-2.2-8-5.5C311.7,17.6,314.3,14.8,319.8,14.8z M314.2,20.2c0,2.8,1.9,5.2,5.7,5.2
		c3.1,0,5.6-1.5,5.6-4.8c0-2.8-1.9-5.2-5.7-5.2C316.7,15.4,314.2,17,314.2,20.2z"/>
	
		<linearGradient id="SVGID_00000152252559457675388390000016863822917985467560_" gradientUnits="userSpaceOnUse" x1="338.9" y1="17.3073" x2="338.9" y2="28.6672" gradientTransform="matrix(1 0 0 -1 0 44)">
		<stop  offset="0" style="stop-color:#592B11"/>
		<stop  offset="0.2266" style="stop-color:#BF8A49"/>
		<stop  offset="0.365" style="stop-color:#CF9F54"/>
		<stop  offset="0.4879" style="stop-color:#D9AD5B"/>
		<stop  offset="0.524" style="stop-color:#DBB160"/>
		<stop  offset="0.5692" style="stop-color:#E1BC70"/>
		<stop  offset="0.6195" style="stop-color:#EACD8A"/>
		<stop  offset="0.673" style="stop-color:#F7E6AD"/>
		<stop  offset="0.6949" style="stop-color:#FDF2BE"/>
		<stop  offset="0.8957" style="stop-color:#E4C27A"/>
		<stop  offset="1" style="stop-color:#D9AD5B"/>
	</linearGradient>
	<path style="fill:url(#SVGID_00000152252559457675388390000016863822917985467560_);" d="M333.8,16.9v6.6c0,1.2,0.3,1.9,1.8,1.9
		c0.2,0,0.4,0,0.4,0.2c0,0.1-0.1,0.1-0.3,0.1c-0.8,0-1.8,0-2.5,0c-0.8,0-1.8,0-2.5,0c-0.2,0-0.3,0-0.3-0.1s0.2-0.2,0.4-0.2
		c1.4,0,1.9-0.6,1.9-1.9v-6.7c0-0.9-0.6-1.5-1.9-1.5c-0.2,0-0.4,0-0.4-0.2c0-0.1,0.1-0.2,0.3-0.2h2.6c1.1,0,1.3,0,2,0.6L344,23v-5.7
		c0-1.2-0.3-1.9-1.8-1.9c-0.1,0-0.4,0-0.4-0.2c0-0.1,0.1-0.2,0.3-0.2c0.9,0,1.8,0,2.5,0c0.8,0,1.8,0,2.5,0c0.2,0,0.3,0,0.3,0.2
		c0,0.1-0.3,0.2-0.4,0.2c-1.4,0-1.8,0.7-1.8,1.9v7.9c0,0.8,0,0.9-0.2,0.9c-0.1,0-0.3,0-0.9-0.6L333.8,16.9z"/>
	
		<linearGradient id="SVGID_00000058550754907541570340000011291778788944712857_" gradientUnits="userSpaceOnUse" x1="356.05" y1="17.3073" x2="356.05" y2="28.6672" gradientTransform="matrix(1 0 0 -1 0 44)">
		<stop  offset="0" style="stop-color:#592B11"/>
		<stop  offset="0.2266" style="stop-color:#BF8A49"/>
		<stop  offset="0.365" style="stop-color:#CF9F54"/>
		<stop  offset="0.4879" style="stop-color:#D9AD5B"/>
		<stop  offset="0.524" style="stop-color:#DBB160"/>
		<stop  offset="0.5692" style="stop-color:#E1BC70"/>
		<stop  offset="0.6195" style="stop-color:#EACD8A"/>
		<stop  offset="0.673" style="stop-color:#F7E6AD"/>
		<stop  offset="0.6949" style="stop-color:#FDF2BE"/>
		<stop  offset="0.8957" style="stop-color:#E4C27A"/>
		<stop  offset="1" style="stop-color:#D9AD5B"/>
	</linearGradient>
	<path style="fill:url(#SVGID_00000058550754907541570340000011291778788944712857_);" d="M361.6,18.3c0,0.1,0,0.3-0.1,0.3
		s-0.2-0.1-0.2-0.2c-0.5-2.2-2.8-2.8-5.1-2.8c-2,0-4.1,0.4-4.1,1.8c0,3,10.2,0.1,10.2,5.2c0,2.5-2.5,3.5-6.2,3.5
		c-2.9,0-3.9-0.5-4.9-0.8c-0.4-0.2-0.3,0.2-0.5,0.2s-0.3-0.2-0.4-0.6l-0.5-2.8c0-0.2,0-0.3,0.1-0.4s0.2,0.1,0.2,0.3
		c0.8,2.7,3.5,3.3,5.9,3.3s4.6-0.4,4.6-2.2c0-3.6-10.2-0.3-10.2-5.1c0-2.5,2.9-3.2,5.7-3.2c2.1,0,3.4,0.4,4.2,0.7
		c0.4,0.2,0.3-0.2,0.5-0.2c0.1,0,0.1,0.1,0.3,0.7L361.6,18.3z"/>
</g>
</svg>
