<?xml version="1.0" encoding="utf-8"?>
<!-- Generator: Adobe Illustrator 26.5.0, SVG Export Plug-In . SVG Version: 6.00 Build 0)  -->
<svg version="1.1" id="Calque_1" xmlns="http://www.w3.org/2000/svg" xmlns:xlink="http://www.w3.org/1999/xlink" x="0px" y="0px"
	 viewBox="0 0 1000.1 863.7" style="enable-background:new 0 0 1000.1 863.7;" xml:space="preserve">
<style type="text/css">
	.st0{fill:url(#SVGID_1_);}
</style>
<g>
	<linearGradient id="SVGID_1_" gradientUnits="userSpaceOnUse" x1="14.3574" y1="652.9333" x2="842.0758" y2="91.5476">
		<stop  offset="0" style="stop-color:#592B11"/>
		<stop  offset="0.2266" style="stop-color:#BF8A49"/>
		<stop  offset="0.365" style="stop-color:#CF9F54"/>
		<stop  offset="0.4879" style="stop-color:#D9AD5B"/>
		<stop  offset="0.524" style="stop-color:#DBB160"/>
		<stop  offset="0.5692" style="stop-color:#E1BC70"/>
		<stop  offset="0.6195" style="stop-color:#EACD8A"/>
		<stop  offset="0.673" style="stop-color:#F7E6AD"/>
		<stop  offset="0.6949" style="stop-color:#FDF2BE"/>
		<stop  offset="0.8957" style="stop-color:#E4C27A"/>
		<stop  offset="1" style="stop-color:#D9AD5B"/>
	</linearGradient>
	<path class="st0" d="M500.4,138.8c9.8-10.4,19.8-21.6,30.4-32.1c29.3-28.9,61.6-53.9,97.9-73.5c27.3-14.7,56-25.4,86.7-30.4
		c20.8-3.4,41.8-3.5,62.7-1.2c29.3,3.2,57.2,11.1,83.7,24.1c36.5,17.9,66.7,43.3,90.6,76.1c23.8,32.5,38.4,68.9,44.6,108.6
		c3.4,21.4,3.7,43,2.1,64.7c-5.3,70.4-29.8,134.4-65.2,194.8c-28,47.7-61.8,91.1-99,131.8c-52.3,57.2-110.3,108-171.9,154.8
		c-46.2,35.1-94,67.7-143.7,97.5c-5.6,3.3-11.3,6.4-16.8,9.8c-1.9,1.2-3.2,1-5-0.1c-43.1-24.7-84.6-52.1-125-81
		c-41.5-29.7-81.4-61.3-119.6-95.1c-55.1-48.8-105.9-101.4-149.4-161c-26.3-36-49.2-73.9-67.2-114.8C20,374.6,8.3,336.1,3.1,295.7
		c-3.4-26.4-4.4-52.8-0.9-79.2c7.2-53.4,28.8-100.2,66-139.4c36-37.9,79.9-61.7,131-72.1C249.7-5.3,298.7,0.4,346,20.9
		c41.9,18.2,78.8,44,112,75.1C472.7,109.8,486.3,124.6,500.4,138.8z"/>
</g>
</svg>
