<?xml version="1.0" encoding="utf-8"?>
<!-- Generator: Adobe Illustrator 26.5.0, SVG Export Plug-In . SVG Version: 6.00 Build 0)  -->
<svg version="1.1" id="Calque_1" xmlns="http://www.w3.org/2000/svg" xmlns:xlink="http://www.w3.org/1999/xlink" x="0px" y="0px"
	 viewBox="0 0 299.2 287.3" style="enable-background:new 0 0 299.2 287.3;" xml:space="preserve">
<style type="text/css">
	.st0{fill:url(#SVGID_1_);}
	.st1{fill:url(#SVGID_00000021815601352810755460000006275839261090393267_);}
	.st2{fill:url(#SVGID_00000063629459892024840120000008820410753958512017_);}
</style>
<linearGradient id="SVGID_1_" gradientUnits="userSpaceOnUse" x1="-15.9574" y1="87.1192" x2="259.3044" y2="244.9383" gradientTransform="matrix(1 0 0 -1 0 290)">
	<stop  offset="0" style="stop-color:#592B11"/>
	<stop  offset="0.2266" style="stop-color:#BF8A49"/>
	<stop  offset="0.365" style="stop-color:#CF9F54"/>
	<stop  offset="0.4879" style="stop-color:#D9AD5B"/>
	<stop  offset="0.524" style="stop-color:#DBB160"/>
	<stop  offset="0.5692" style="stop-color:#E1BC70"/>
	<stop  offset="0.6195" style="stop-color:#EACD8A"/>
	<stop  offset="0.673" style="stop-color:#F7E6AD"/>
	<stop  offset="0.6949" style="stop-color:#FDF2BE"/>
	<stop  offset="0.8957" style="stop-color:#E4C27A"/>
	<stop  offset="1" style="stop-color:#D9AD5B"/>
</linearGradient>
<path class="st0" d="M79.1,53.1c7.7,0.9,15.4,1.8,23.2,2.7c17.1,2,34.3,3.9,51.4,5.8c16.3,1.8,32.7,3.4,49,5.2
	c19.2,2.1,38.3,4.4,57.4,6.6c6.9,0.8,13.9,1.8,20.8,2.3c14.4,1.2,20.2,8.9,17.6,23.1c-4.1,22-7.9,44-11.8,66
	c-1.5,8.5-6.8,13.7-15.4,14c-5.5,0.2-11,0.1-16.5,0.1c-53.7,0-107.3,0-161-0.1c-4.2,0-6.3,0.8-6.7,5.4c-0.4,4.9-1.6,9.8-2.6,15.4
	c2.1,0,4,0,5.9,0c56.2,0,112.3,0,168.5,0c7.8,0,14,5.2,15.5,12.7c1.2,6.2-2.7,13.9-8.9,16.3c-3,1.1-6.5,1.6-9.7,1.6
	c-62.2,0.1-124.3,0.1-186.5,0c-14,0-20.2-7.5-17.8-21.4c2.2-12.4,5-24.7,6.5-37.2c0.9-7.3-0.2-14.9-0.8-22.3
	c-1.7-18.7-3.8-37.4-5.7-56c-1.7-16.5-3.2-33.1-5.2-49.5c-0.2-1.5-2.4-3.3-4.1-3.9c-9.9-3.3-19.9-6.3-29.8-9.4
	C5.1,28.4,0.2,22.6,0,15.9c-0.2-6.4,3.8-12.8,10.3-15c2.9-1,6.7-1.2,9.6-0.3C35.2,5,50.2,10,65.4,14.7C73,17,76,22.7,76.8,30
	C77.7,37.5,78.3,45.2,79.1,53.1z"/>
<linearGradient id="SVGID_00000025415828099551984150000008637463881236287371_" gradientUnits="userSpaceOnUse" x1="70.0848" y1="12.9278" x2="109.684" y2="40.6554" gradientTransform="matrix(1 0 0 -1 0 290)">
	<stop  offset="0" style="stop-color:#592B11"/>
	<stop  offset="9.597499e-02" style="stop-color:#BF8A49"/>
	<stop  offset="0.3035" style="stop-color:#CF9F54"/>
	<stop  offset="0.4879" style="stop-color:#D9AD5B"/>
	<stop  offset="0.524" style="stop-color:#DBB160"/>
	<stop  offset="0.5692" style="stop-color:#E1BC70"/>
	<stop  offset="0.6195" style="stop-color:#EACD8A"/>
	<stop  offset="0.673" style="stop-color:#F7E6AD"/>
	<stop  offset="0.6949" style="stop-color:#FDF2BE"/>
	<stop  offset="0.8957" style="stop-color:#E4C27A"/>
	<stop  offset="1" style="stop-color:#D9AD5B"/>
</linearGradient>
<path style="fill:url(#SVGID_00000025415828099551984150000008637463881236287371_);" d="M90,287c-13.4,0.1-24-10-24.2-23.2
	c-0.2-13.7,10.1-24.4,23.7-24.7c13.3-0.3,24.2,10.3,24.3,23.5C113.9,276.9,104.1,286.9,90,287z"/>
<linearGradient id="SVGID_00000093136019436461684110000005328974135826628525_" gradientUnits="userSpaceOnUse" x1="-159.518" y1="-362.3413" x2="-111.8874" y2="-361.9644" gradientTransform="matrix(0.8237 -0.5671 -0.5671 -0.8237 137.3725 -112.1678)">
	<stop  offset="0" style="stop-color:#592B11"/>
	<stop  offset="8.592473e-02" style="stop-color:#BF8A49"/>
	<stop  offset="0.2988" style="stop-color:#CF9F54"/>
	<stop  offset="0.4879" style="stop-color:#D9AD5B"/>
	<stop  offset="0.524" style="stop-color:#DBB160"/>
	<stop  offset="0.5692" style="stop-color:#E1BC70"/>
	<stop  offset="0.6195" style="stop-color:#EACD8A"/>
	<stop  offset="0.673" style="stop-color:#F7E6AD"/>
	<stop  offset="0.6949" style="stop-color:#FDF2BE"/>
	<stop  offset="0.8957" style="stop-color:#E4C27A"/>
	<stop  offset="1" style="stop-color:#D9AD5B"/>
</linearGradient>
<path style="fill:url(#SVGID_00000093136019436461684110000005328974135826628525_);" d="M244.3,283c-11.4,7.8-25.3,5-33.2-6.6
	c-7.5-11-4.8-25.5,6.1-32.9c11.2-7.7,25.9-4.7,33.7,6.7C258.3,261,255.4,275.4,244.3,283z"/>
</svg>
