<?xml version="1.0" encoding="utf-8"?>
<!-- Generator: Adobe Illustrator 26.5.0, SVG Export Plug-In . SVG Version: 6.00 Build 0)  -->
<svg version="1.1" id="Calque_1" xmlns="http://www.w3.org/2000/svg" xmlns:xlink="http://www.w3.org/1999/xlink" x="0px" y="0px"
	 viewBox="0 0 131.3 132.8" style="enable-background:new 0 0 131.3 132.8;" xml:space="preserve">
<style type="text/css">
	.st0{fill:#FFFFFF;}
	.st1{fill:#B3121B;}
	.st2{fill:#11336F;}
	.st3{fill:#B4151D;}
	.st4{fill:#B4151E;}
	.st5{fill:#011F5D;}
	.st6{fill:#011F5E;}
</style>
<circle class="st0" cx="65.6" cy="66.2" r="65.6"/>
<g>
	<path class="st1" d="M78.1,78.4c0,17.5,0,34.8,0,52.1c-4.3,1.7-19,1.8-24.9,0.1c0-17.3,0-34.7,0-52.1c-17.4,0-34.7,0-51.9,0
		c-1.6-4.1-1.7-18-0.3-23.2c17.3,0,34.7,0,52.1,0c0-17.8,0-35.6,0-53.5c8.3-1.6,16.5-1.6,24.9,0c0,17.8,0,35.6,0,53.4
		c17.5,0,34.9,0,52.3,0c1.3,7.8,1.3,15.5-0.2,23.3C112.8,78.4,95.5,78.4,78.1,78.4z"/>
	<path class="st2" d="M89.9,5.2C101,9.7,110.2,16.6,117.6,26c-9.3,6-18.4,11.9-27.7,17.8C89.9,31,89.9,18.2,89.9,5.2z"/>
	<path class="st2" d="M117.2,107c-7.4,9.2-16.3,15.9-27.2,20.3c0-12.7,0-25.2,0-38.1C99.1,95.1,108.1,101,117.2,107z"/>
	<path class="st2" d="M40.9,127c-6.4-2.5-12.2-6.1-17.5-10.5c-3.4-2.9-6.5-6.1-9.3-9.6c4.8-3,9.4-6,14.1-8.9c4.2-2.7,8.5-5.3,12.8-8
		c0,11.9,0,23.9,0,35.8C41,126.2,40.9,126.6,40.9,127z"/>
	<path class="st2" d="M41,42.5c-5.4-3.6-10.9-7.3-16.3-10.9c-2.9-2-5.8-3.9-8.7-5.9c-0.4-0.3-0.8-0.5-1.3-1c1.8-1.9,3.5-3.8,5.3-5.6
		C25.6,13.5,32.2,9.2,39.5,6c0.4-0.2,0.9-0.3,1.3-0.5c0,0.4,0.1,0.9,0.1,1.3C41,18.7,41,30.6,41,42.5z"/>
	<path class="st3" d="M120.2,29.7c1.1,1.8,2.1,3.5,3.2,5.3c-3.1,2-6.2,3.7-9,5.9c-3.3,2.5-6.8,3.6-10.9,3.1c-1.7-0.2-3.4,0-5.2-0.3
		C105.6,39,112.9,34.4,120.2,29.7z"/>
	<path class="st3" d="M11.5,103.4c-1.1-1.7-2.1-3.3-3.1-5c1.6-1,3-1.9,4.5-2.9c2.9-1.9,5.9-3.7,8.8-5.5c0.4-0.3,0.9-0.5,1.4-0.5
		c3.3,0,6.7,0,10.3,0C26,94.1,18.8,98.7,11.5,103.4z"/>
	<path class="st4" d="M5.3,40.1c1-1.9,1.8-3.7,2.8-5.6c5.1,3.3,10.1,6.5,15,9.7c0,0.1,0,0.2-0.1,0.2c-2.6,0-5.2-0.1-7.7,0
		c-2.4,0.2-4.4-0.4-6.3-1.9C7.9,41.7,6.7,41,5.3,40.1z"/>
	<path class="st4" d="M114,89.2c3.6,0,7.2,0,10.7,0c0.7,0,1.3,0.6,2.1,1c-0.9,2-1.8,3.9-2.7,5.9c-3.5-2.3-6.9-4.5-10.2-6.7
		C113.9,89.4,114,89.3,114,89.2z"/>
	<path class="st5" d="M41,42.5c0-11.9,0-23.8,0-35.7c0-0.4-0.1-0.9-0.1-1.3l0,0c0.1,0,0.2,0.1,0.3,0.1c0,0.4,0.1,0.8,0.1,1.2
		c0,11.6,0,23.1,0,34.7C41.3,41.9,41.2,42.2,41,42.5C41.1,42.6,41,42.6,41,42.5C41,42.6,41,42.5,41,42.5z"/>
	<path class="st6" d="M40.9,127c0-0.4,0.1-0.8,0.1-1.2c0-11.9,0-23.9,0-35.8c0.1,0.3,0.3,0.5,0.3,0.8c0,2.9,0,5.8,0,8.7
		c0,8.7,0,17.5,0,26.2c0,0.4,0,0.8-0.1,1.2C41.1,126.9,41,126.9,40.9,127L40.9,127z"/>
	<path class="st2" d="M41.2,5.6c-0.1,0-0.2-0.1-0.3-0.1C41,5.5,41.1,5.6,41.2,5.6z"/>
	<path class="st2" d="M40.9,127c0.1,0,0.2-0.1,0.3-0.1C41.1,126.9,41,126.9,40.9,127z"/>
</g>
</svg>
