<?xml version="1.0" encoding="utf-8"?>
<!-- Generator: Adobe Illustrator 27.0.0, SVG Export Plug-In . SVG Version: 6.00 Build 0)  -->
<svg version="1.1" id="Calque_1" xmlns="http://www.w3.org/2000/svg" xmlns:xlink="http://www.w3.org/1999/xlink" x="0px" y="0px"
	 viewBox="0 0 676 552" style="enable-background:new 0 0 676 552;" xml:space="preserve">
<style type="text/css">
	.st0{fill:url(#SVGID_1_);}
	.st1{display:none;fill:url(#SVGID_00000047059432328299222190000005446277993220931968_);}
	.st2{fill:url(#SVGID_00000048502098171451877920000007485543362440244889_);}
</style>
<linearGradient id="SVGID_1_" gradientUnits="userSpaceOnUse" x1="88.4546" y1="457.7946" x2="556.6351" y2="187.4905">
	<stop  offset="0" style="stop-color:#592B11"/>
	<stop  offset="0.2266" style="stop-color:#BF8A49"/>
	<stop  offset="0.365" style="stop-color:#CF9F54"/>
	<stop  offset="0.4879" style="stop-color:#D9AD5B"/>
	<stop  offset="0.524" style="stop-color:#DBB160"/>
	<stop  offset="0.5692" style="stop-color:#E1BC70"/>
	<stop  offset="0.6195" style="stop-color:#EACD8A"/>
	<stop  offset="0.673" style="stop-color:#F7E6AD"/>
	<stop  offset="0.6949" style="stop-color:#FDF2BE"/>
	<stop  offset="0.8957" style="stop-color:#E4C27A"/>
	<stop  offset="1" style="stop-color:#D9AD5B"/>
</linearGradient>
<path class="st0" d="M402.3,550c-15.4,0-31-1.3-46.4-3.9c-62.4-10.5-118.1-41.5-157-87.4c-6.3-7.5-5.4-18.6,2.1-25
	c7.5-6.3,18.6-5.4,25,2.1c68.8,81.2,196.8,102.6,291.4,48.9l11.2-6.7l2.7-2.7l2-1.2c35.1-20.5,63.7-53.3,84.9-97.5
	c5.3-11.9,9.1-24.2,13.1-37.1c0.9-2.9,1.8-5.9,2.8-8.8c4.3-18.4,6.5-35.1,6.5-51.1c0-21.2-1.9-39.2-6-56.5c-1-1.6-2.1-4-2.6-7
	c-0.4-1.8-0.7-3.5-1.1-5.3c-0.4-1.7-0.8-3.5-1.2-5.5l-1.9-5.8c-2.5-5.1-4.4-9.8-6.3-15.4c-11.5-25.8-23-44.3-37.2-59.9
	c-1.8-2-3-4-3.7-5.6c-8.8-9.3-18.3-18.3-31.1-29.5c-1.8-0.8-4.2-2.1-6.4-4.3l-0.4-0.4c-1.7-0.8-3.8-2-5.8-4l-0.4-0.4
	c-3.1-1.7-5.4-3.7-7.2-5.4c-0.6-0.3-1.3-0.7-2.1-1c-1.7-0.8-3.8-1.8-6-3.2c-22.2-14.3-45.1-23.3-72.1-28.4l-3.8-0.6
	c-9.6-1.5-18.7-2.9-28.1-3.6c-12.9-0.8-25.9,0-39.7,0.9c-23,2.8-40.7,7.3-57.4,14.5l-0.4,0.2C281,68.9,250.2,89.6,228,115
	c-6.5,7.4-17.6,8.1-25,1.6c-7.4-6.5-8.1-17.6-1.6-25c25.9-29.5,61.1-53.4,104.6-71c20-8.7,40.9-14,67.6-17.2l1-0.1
	c14.5-0.9,29.4-1.8,44.7-0.9l0.3,0c10.8,0.8,20.6,2.4,31,4l4.6,0.7c31.4,5.9,59.2,16.8,85.1,33.5l0.1,0.1c0.3,0.2,1,0.5,1.5,0.7
	c2.2,1,5.6,2.6,9.2,5.3l1,0.8l0.9,0.9c0.2,0.2,0.4,0.4,0.6,0.6l2.7,0.9l3.3,3.3c1.7,0.8,3.8,2,5.8,4l0.4,0.4
	c1.5,0.7,3.3,1.8,5.1,3.4c15.5,13.5,26.7,24.1,37.3,35.5c2,2.1,3.2,4.2,3.9,5.9c16.2,18.3,29.2,39.4,41.9,68.1l0.3,0.8l0.3,0.8
	c1.6,4.9,3.1,8.4,5.2,12.7l0.6,1.1l3.4,10.2l0.2,1.1c0.4,2,0.8,3.9,1.3,5.8c0.3,1.3,0.6,2.5,0.9,3.9c0.9,1.5,1.8,3.6,2.3,6.2
	c5.1,20.5,7.4,41.7,7.4,66.4c0,18.9-2.5,38.5-7.6,59.9l-0.1,0.6l-0.2,0.6c-1,3.1-1.9,6.2-2.9,9.3c-4.2,13.5-8.5,27.4-14.6,41.3
	l-0.2,0.5c-24,50-56.6,87.6-97.1,111.8l-2.6,2.6l-15.5,9.3C495,538.2,449.1,550,402.3,550z"/>
<linearGradient id="SVGID_00000178191224731101389830000008616688912095379644_" gradientUnits="userSpaceOnUse" x1="-55.7586" y1="431.9565" x2="357.4045" y2="193.4167">
	<stop  offset="0" style="stop-color:#592B11"/>
	<stop  offset="0.2266" style="stop-color:#BF8A49"/>
	<stop  offset="0.365" style="stop-color:#CF9F54"/>
	<stop  offset="0.4879" style="stop-color:#D9AD5B"/>
	<stop  offset="0.524" style="stop-color:#DBB160"/>
	<stop  offset="0.5692" style="stop-color:#E1BC70"/>
	<stop  offset="0.6195" style="stop-color:#EACD8A"/>
	<stop  offset="0.673" style="stop-color:#F7E6AD"/>
	<stop  offset="0.6949" style="stop-color:#FDF2BE"/>
	<stop  offset="0.8957" style="stop-color:#E4C27A"/>
	<stop  offset="1" style="stop-color:#D9AD5B"/>
</linearGradient>
<circle style="display:none;fill:url(#SVGID_00000178191224731101389830000008616688912095379644_);" cx="213.5" cy="276.5" r="238.5"/>
<linearGradient id="SVGID_00000131364989566083508350000017114445879992827029_" gradientUnits="userSpaceOnUse" x1="-142.9137" y1="400.4648" x2="218.2671" y2="191.937" gradientTransform="matrix(-1 0 0 -1 452.9999 544.699)">
	<stop  offset="0" style="stop-color:#592B11"/>
	<stop  offset="0.2266" style="stop-color:#BF8A49"/>
	<stop  offset="0.365" style="stop-color:#CF9F54"/>
	<stop  offset="0.4879" style="stop-color:#D9AD5B"/>
	<stop  offset="0.524" style="stop-color:#DBB160"/>
	<stop  offset="0.5692" style="stop-color:#E1BC70"/>
	<stop  offset="0.6195" style="stop-color:#EACD8A"/>
	<stop  offset="0.673" style="stop-color:#F7E6AD"/>
	<stop  offset="0.6949" style="stop-color:#FDF2BE"/>
	<stop  offset="0.8957" style="stop-color:#E4C27A"/>
	<stop  offset="1" style="stop-color:#D9AD5B"/>
</linearGradient>
<path style="fill:url(#SVGID_00000131364989566083508350000017114445879992827029_);" d="M437,351v87.3l160-165.7L437,107v88H157.6
	c-7.5,23.2-11.6,47.9-11.6,73.5c0,29,5.2,56.8,14.7,82.5H437z"/>
</svg>
