<?xml version="1.0" encoding="utf-8"?>
<!-- Generator: Adobe Illustrator 26.5.0, SVG Export Plug-In . SVG Version: 6.00 Build 0)  -->
<svg version="1.1" id="Calque_1" xmlns="http://www.w3.org/2000/svg" xmlns:xlink="http://www.w3.org/1999/xlink" x="0px" y="0px"
	 viewBox="0 0 134.4 154.2" style="enable-background:new 0 0 134.4 154.2;" xml:space="preserve">
<style type="text/css">
	.st0{fill:url(#SVGID_1_);}
	.st1{fill:url(#SVGID_00000179618573677261673150000007503410236900509068_);}
</style>
<g>
	<linearGradient id="SVGID_1_" gradientUnits="userSpaceOnUse" x1="-9.1992" y1="173.9031" x2="116.8822" y2="101.1099">
		<stop  offset="0" style="stop-color:#592B11"/>
		<stop  offset="0.2266" style="stop-color:#BF8A49"/>
		<stop  offset="0.365" style="stop-color:#CF9F54"/>
		<stop  offset="0.4879" style="stop-color:#D9AD5B"/>
		<stop  offset="0.524" style="stop-color:#DBB160"/>
		<stop  offset="0.5692" style="stop-color:#E1BC70"/>
		<stop  offset="0.6195" style="stop-color:#EACD8A"/>
		<stop  offset="0.673" style="stop-color:#F7E6AD"/>
		<stop  offset="0.6949" style="stop-color:#FDF2BE"/>
		<stop  offset="0.8957" style="stop-color:#E4C27A"/>
		<stop  offset="1" style="stop-color:#D9AD5B"/>
	</linearGradient>
	<path class="st0" d="M67.2,154.2c-17.6,0-35.3,0-52.9,0c-2.4,0-4.8,0.1-7.2-0.1c-3.8-0.4-6.9-3.5-7-7.2c-0.2-6.7-0.3-13.3,1.1-19.9
		c4.2-19.5,20.7-35.3,40.4-38.5c2.6-0.4,5.3-0.7,8-0.7c12-0.1,24-0.4,36,0.1c19.2,0.8,33.6,10,42.9,26.8c4.1,7.4,5.9,15.4,5.8,23.8
		c0,2.5,0,5,0,7.4c0,4.8-3.4,8.4-8.1,8.4c-10.4,0.1-20.8,0-31.2,0C85.8,154.1,76.5,154.1,67.2,154.2
		C67.2,154.2,67.2,154.2,67.2,154.2z"/>
	
		<linearGradient id="SVGID_00000159457649274560618140000004749796453603911300_" gradientUnits="userSpaceOnUse" x1="17.479" y1="68.6352" x2="107.4963" y2="16.6637">
		<stop  offset="0" style="stop-color:#592B11"/>
		<stop  offset="0.2266" style="stop-color:#BF8A49"/>
		<stop  offset="0.365" style="stop-color:#CF9F54"/>
		<stop  offset="0.4879" style="stop-color:#D9AD5B"/>
		<stop  offset="0.524" style="stop-color:#DBB160"/>
		<stop  offset="0.5692" style="stop-color:#E1BC70"/>
		<stop  offset="0.6195" style="stop-color:#EACD8A"/>
		<stop  offset="0.673" style="stop-color:#F7E6AD"/>
		<stop  offset="0.6949" style="stop-color:#FDF2BE"/>
		<stop  offset="0.8957" style="stop-color:#E4C27A"/>
		<stop  offset="1" style="stop-color:#D9AD5B"/>
	</linearGradient>
	<path style="fill:url(#SVGID_00000159457649274560618140000004749796453603911300_);" d="M107.1,39.9c0,22.1-17.9,39.9-39.9,39.9
		C45,79.8,27.3,62,27.3,39.7C27.3,17.7,45.3,0,67.3,0C89.3,0,107.1,17.9,107.1,39.9z"/>
</g>
</svg>
