<?xml version="1.0" encoding="utf-8"?>
<!-- Generator: Adobe Illustrator 26.5.0, SVG Export Plug-In . SVG Version: 6.00 Build 0)  -->
<svg version="1.1" xmlns="http://www.w3.org/2000/svg" xmlns:xlink="http://www.w3.org/1999/xlink" x="0px" y="0px"
	 viewBox="0 0 477.5 504.5" style="enable-background:new 0 0 477.5 504.5;" xml:space="preserve">
<style type="text/css">
	.st0{display:none;}
	.st1{display:inline;fill:#00150C;}
	.st2{display:inline;}
	.st3{fill:none;}
	.st4{font-family:'SarahScript-Regular';}
	.st5{font-size:74.259px;}
	.st6{display:inline;fill:none;}
	.st7{display:inline;fill:#FFFFFF;}
	.st8{font-size:43.2875px;}
	.st9{display:inline;fill:url(#SVGID_1_);}
	.st10{display:inline;fill:url(#SVGID_00000129885570010816432970000008696267025599017381_);}
	.st11{display:inline;fill:url(#SVGID_00000114782243203279124140000004402717722864746666_);}
	.st12{display:inline;fill:url(#SVGID_00000090287396592092696760000005339609036840605347_);}
	.st13{display:inline;fill:url(#SVGID_00000026883566511520787150000002100853472801308060_);}
	.st14{display:inline;fill:url(#SVGID_00000153701478002431436070000003051727085925394066_);}
	.st15{display:inline;fill:url(#SVGID_00000163777652160971070590000002008742189558218642_);}
	.st16{display:inline;fill:url(#SVGID_00000016795582201363057960000001447384422773929105_);}
	.st17{display:inline;fill:url(#SVGID_00000088096409872666810020000011396813502618487937_);}
	.st18{display:inline;fill:url(#SVGID_00000114785134847025916630000009449127325505915537_);}
	.st19{display:inline;fill:url(#SVGID_00000085231804432882306540000015508359504705305250_);}
	.st20{display:inline;fill:url(#SVGID_00000019652940403607615410000003253342853890244028_);}
	.st21{display:inline;fill:url(#SVGID_00000134943708874278177200000012702491828311744949_);}
	.st22{display:inline;fill:url(#SVGID_00000137827719477593381050000006947895509545959097_);}
	.st23{display:inline;fill:url(#SVGID_00000102538681725758786370000012647001498914158999_);}
	.st24{display:inline;fill:url(#SVGID_00000021111876811976801870000007197291530959082122_);}
	.st25{fill:url(#SVGID_00000098941441381438545000000001660665146216702602_);}
	.st26{fill:url(#SVGID_00000124125753107338028210000010375984425906670227_);}
	.st27{fill:url(#SVGID_00000101803726741640918140000017635916196592918696_);}
	.st28{display:inline;fill:url(#SVGID_00000139287072074185667420000016850887445591416705_);}
	.st29{display:inline;fill:url(#SVGID_00000032637418369742602560000004861411222863644338_);}
	.st30{display:inline;fill:url(#SVGID_00000173143746777045520490000006869485124533909388_);}
	.st31{display:inline;fill:url(#SVGID_00000045576633563834735770000016243663474816644013_);}
	.st32{display:inline;fill:url(#SVGID_00000019648431504274625240000008727958952046567348_);}
	.st33{display:inline;fill:url(#SVGID_00000064345497189793717850000007819251538734265232_);}
	.st34{fill:url(#SVGID_00000086681413667824815310000015431344881412827038_);}
	.st35{fill:url(#SVGID_00000170966153417486877070000011697510938771714699_);}
	.st36{fill:url(#SVGID_00000016056872273464095020000016602482536563494063_);}
	.st37{fill:url(#SVGID_00000120556826957311523200000001162046141688943798_);}
	.st38{fill:url(#SVGID_00000062170018601019615480000015025229600083679926_);}
	.st39{fill:url(#SVGID_00000076590668776877660370000014172901339800508816_);}
	.st40{fill:url(#SVGID_00000089569987288911737800000000098032659488146107_);}
	.st41{fill:url(#SVGID_00000146483169220144929910000000817399969305717632_);}
	.st42{fill:url(#SVGID_00000147196259838587027640000006450340987979495604_);}
	.st43{fill:url(#SVGID_00000076595867270557309140000003862818155317843636_);}
	.st44{fill:url(#SVGID_00000076580321437379917360000017535568306207761331_);}
	.st45{fill:url(#SVGID_00000106138364805296760130000017463420395495413431_);}
	.st46{fill:url(#SVGID_00000101088843372282288140000014320419543646809758_);}
	.st47{fill:url(#SVGID_00000163754241983450960010000005538484429365439630_);}
	.st48{fill:url(#SVGID_00000148621810904266254000000016301267030502309253_);}
	.st49{fill:url(#SVGID_00000066492322006042205020000007810156980948749486_);}
	.st50{fill:url(#SVGID_00000040546096249116029710000001439493180028882343_);}
	.st51{fill:url(#SVGID_00000076602825860733282440000012566933271264824985_);}
	.st52{fill:url(#SVGID_00000119087097457913895250000010791166457214530948_);}
	.st53{fill:url(#SVGID_00000121968059302592615980000009195519750002369688_);}
	.st54{fill:url(#SVGID_00000044863146602522658310000006452303275174519218_);}
	.st55{fill:#FFFFFF;}
</style>
<g id="Calque_6" class="st0">
	<rect x="-182.6" y="-30.5" class="st1" width="841.9" height="595.3"/>
</g>
<g id="Calque_1" class="st0">
</g>
<g id="Calque_2" class="st0">
</g>
<g id="Calque_3" class="st0">
	<g class="st2">
		<rect x="109.2" y="221.9" class="st3" width="270" height="80.8"/>
		<text transform="matrix(1 0 0 1 109.2025 266.3873)" class="st4 st5">Art  </text>
		<g>
			<g>
				<path d="M583.2,198.6c0,0.9,0,1.6,0,2.5c-216.3,0-432.5,0-648.7,0c0-0.9,0-1.6,0-2.5C150.8,198.6,367,198.6,583.2,198.6z"/>
				<path d="M486.8,154.8c-0.1-0.1-0.2-0.2-0.3-0.3c-0.3-0.3-0.6-0.7-0.8-1c-1.5,0-3,0-4.5-0.1c0,0.8,0,1.5-0.1,2.3
					c0,0.1,0,0.1,0,0.2c0.1,0.1,0.1,0.2,0.2,0.2c0.3,0.3,9.6,9.7,13.7,13.8h7C497.6,165.7,487.1,155.2,486.8,154.8z"/>
				<path d="M23.7,170c-2.4,0-4.1,0-6,0c0-6.3,0-12.4,0-19c18,0,36.1,0,53.7,0c3.1-2.6,3.5-4.9,0.5-7.4c-17.7,0-35.7,0-54.1,0
					c-0.1-2-0.2-3.9-0.3-6c18.8,0,37.3,0,55.5,0c4.3,1.7,7.2,4.5,8.5,9.2c-0.9,4.4-3.5,7.8-9.6,9.8c-14.9,0-31.4,0-48.2,0
					C23.7,161.1,23.7,165.2,23.7,170z"/>
			</g>
			<path d="M444.2,170c-2.4,0-4.1,0-6,0c0-6.3,0-12.4,0-19c18,0,36.1,0,53.7,0c3.1-2.6,3.5-4.9,0.5-7.4c-17.7,0-35.7,0-54.1,0
				c-0.1-2-0.2-3.9-0.3-6c18.8,0,37.3,0,55.5,0c4.3,1.7,7.2,4.5,8.5,9.2c-0.9,4.4-3.5,7.8-9.6,9.8c-14.9,0-31.4,0-48.2,0
				C444.2,161.1,444.2,165.3,444.2,170z"/>
			<polygon points="274.2,139.4 272.5,137.9 268.7,137.9 268.7,170 274.3,170 			"/>
			<polyline points="280.3,144.6 300.4,162 300.4,168.9 280.3,151.7 			"/>
			<polyline points="332.1,170 332.1,137.9 328.3,137.9 300.4,162 300.4,168.9 326.4,146.4 326.4,170 			"/>
			<rect x="101" y="137.8" width="5.8" height="32.1"/>
			<rect x="157.3" y="137.6" width="5.5" height="32.4"/>
			<rect x="106.7" y="150.8" width="43.7" height="6.5"/>
			<g>
				<path d="M521.1,143.3h62.1v-5.5l-69.7,0.1C517.2,138.9,520,140.5,521.1,143.3z"/>
				<rect x="521.1" y="151.2" width="59.3" height="5.7"/>
				<rect x="521.1" y="166" width="62.1" height="3.9"/>
			</g>
			<g>
				<path d="M353.5,143.3h62.1v-5.5l-69.7,0.1C349.6,138.9,352.4,140.6,353.5,143.3z"/>
				<rect x="353.5" y="151.2" width="59.3" height="5.7"/>
				<rect x="353.5" y="166.1" width="62.1" height="3.9"/>
			</g>
			<g>
				<path d="M185.5,143.3h62.1v-5.5l-69.7,0.1C181.6,138.9,184.4,140.5,185.5,143.3z"/>
				<rect x="185.5" y="151.2" width="59.3" height="5.7"/>
				<rect x="185.5" y="166" width="62.1" height="3.9"/>
			</g>
			<g>
				<path d="M-65.5,143.2h62.1v-5.5l-69.7,0.1C-69.4,138.8-66.6,140.4-65.5,143.2z"/>
				<rect x="-65.5" y="151.1" width="59.3" height="5.7"/>
				<rect x="-65.5" y="166" width="62.1" height="3.9"/>
			</g>
		</g>
	</g>
</g>
<g id="Calque_5" class="st0">
	<rect x="189.7" y="33.7" class="st6" width="157.4" height="47.1"/>
	<text transform="matrix(1 0 0 1 189.6725 59.5672)" class="st7 st4 st8">Art  </text>
	<linearGradient id="SVGID_1_" gradientUnits="userSpaceOnUse" x1="268.8761" y1="22.5272" x2="268.8761" y2="19.9526">
		<stop  offset="0" style="stop-color:#E9A900"/>
		<stop  offset="1" style="stop-color:#FFDC2A"/>
		<stop  offset="1" style="stop-color:#000000"/>
	</linearGradient>
	<path class="st9" d="M79.8,20.1c0,0.5,0,0.9,0,1.4c126.1,0,252.1,0,378.2,0c0-0.5,0-0.9,0-1.4C331.9,20.1,205.9,20.1,79.8,20.1z"/>
	
		<linearGradient id="SVGID_00000111163303782538728950000017327812924586608568_" gradientUnits="userSpaceOnUse" x1="146.5535" y1="4.4491" x2="146.8775" y2="-16.5389">
		<stop  offset="0" style="stop-color:#E9A900"/>
		<stop  offset="1" style="stop-color:#FFEF26"/>
	</linearGradient>
	<path style="display:inline;fill:url(#SVGID_00000111163303782538728950000017327812924586608568_);" d="M159.9-12
		c1.8,1.5,1.5,2.8-0.3,4.3c-10.2,0-20.8,0-31.3,0c0,3.9,0,7.4,0,11.1c1.1,0,2.1,0,3.5,0c0-2.8,0-5.2,0-7.7c9.8,0,19.4,0,28.1,0
		c3.6-1.2,5-3.2,5.6-5.7c-0.7-2.8-2.5-4.4-4.9-5.4c-10.6,0-21.4,0-32.4,0c0.1,1.2,0.1,2.3,0.2,3.5C139.1-12,149.6-12,159.9-12z"/>
	
		<linearGradient id="SVGID_00000183216257208584939180000007254865556831572402_" gradientUnits="userSpaceOnUse" x1="391.8545" y1="4.1643" x2="392.0002" y2="-16.1167">
		<stop  offset="0" style="stop-color:#E9A900"/>
		<stop  offset="1" style="stop-color:#FFDC2A"/>
		<stop  offset="1" style="stop-color:#000000"/>
	</linearGradient>
	<path style="display:inline;fill:url(#SVGID_00000183216257208584939180000007254865556831572402_);" d="M405-12
		c1.8,1.5,1.5,2.8-0.3,4.3c-10.2,0-20.8,0-31.3,0c0,3.9,0,7.4,0,11.1c1.1,0,2.1,0,3.5,0c0-2.8,0-5.2,0-7.7c7.5,0,14.9,0,21.9,0
		c1.3,1.3,5.6,5.6,7.6,7.7h4.1c-1.9-1.9-5.8-5.8-7.7-7.7c0.7,0,1.4,0,2.1,0c3.6-1.2,5-3.2,5.6-5.7c-0.7-2.8-2.5-4.4-4.9-5.4
		c-10.6,0-21.4,0-32.4,0c0.1,1.2,0.1,2.3,0.2,3.5C384.2-12,394.7-12,405-12z"/>
	
		<linearGradient id="SVGID_00000029023927609793252340000012794879922986138506_" gradientUnits="userSpaceOnUse" x1="276.2384" y1="3.9465" x2="276.2384" y2="-16.1887">
		<stop  offset="0" style="stop-color:#E9A900"/>
		<stop  offset="1" style="stop-color:#FFDC2A"/>
		<stop  offset="1" style="stop-color:#000000"/>
	</linearGradient>
	<polygon style="display:inline;fill:url(#SVGID_00000029023927609793252340000012794879922986138506_);" points="277.8,-14.5 
		276.8,-15.3 274.6,-15.3 274.6,3.4 277.9,3.4 	"/>
	
		<linearGradient id="SVGID_00000008127734459228468030000002687883343056708509_" gradientUnits="userSpaceOnUse" x1="296.3689" y1="4.0766" x2="296.6118" y2="-16.6901">
		<stop  offset="0" style="stop-color:#E9A900"/>
		<stop  offset="1" style="stop-color:#FFDC2A"/>
		<stop  offset="1" style="stop-color:#000000"/>
	</linearGradient>
	<path style="display:inline;fill:url(#SVGID_00000008127734459228468030000002687883343056708509_);" d="M309.3-15.3L293.1-1.3
		c0,0,0,0,0,0l-11.7-10.1v4.1l11.7,10v0l0,0c5.1-4.4,10.1-8.7,15.2-13.1V3.4h3.3v-18.7H309.3z"/>
	
		<linearGradient id="SVGID_00000163773939610296033370000007432614216431670168_" gradientUnits="userSpaceOnUse" x1="191.2215" y1="4.4553" x2="191.2429" y2="-16.5324">
		<stop  offset="0" style="stop-color:#E9A900"/>
		<stop  offset="1" style="stop-color:#FFEF26"/>
	</linearGradient>
	<polygon style="display:inline;fill:url(#SVGID_00000163773939610296033370000007432614216431670168_);" points="180.2,-4.1 
		205.6,-4.1 205.6,-7.8 180.2,-7.8 180.2,-15.4 176.8,-15.4 176.8,3.4 180.2,3.4 	"/>
	
		<linearGradient id="SVGID_00000178906300278709285920000014770121928478967447_" gradientUnits="userSpaceOnUse" x1="211.1927" y1="3.9207" x2="211.3708" y2="-16.2475">
		<stop  offset="0" style="stop-color:#E9A900"/>
		<stop  offset="1" style="stop-color:#FFDC2A"/>
		<stop  offset="1" style="stop-color:#000000"/>
	</linearGradient>
	
		<rect x="209.7" y="-15.5" style="display:inline;fill:url(#SVGID_00000178906300278709285920000014770121928478967447_);" width="3.2" height="18.9"/>
	
		<linearGradient id="SVGID_00000009550769663673724840000006682562823005197752_" gradientUnits="userSpaceOnUse" x1="437.5808" y1="4.744" x2="437.6537" y2="-17.0428">
		<stop  offset="0" style="stop-color:#E9A900"/>
		<stop  offset="1" style="stop-color:#FFDC2A"/>
		<stop  offset="1" style="stop-color:#000000"/>
	</linearGradient>
	<path style="display:inline;fill:url(#SVGID_00000009550769663673724840000006682562823005197752_);" d="M421.8-12.2H458v-3.2
		l-40.6,0.1C419.5-14.8,421.1-13.8,421.8-12.2z"/>
	
		<linearGradient id="SVGID_00000103224643956011028260000015470038024679469697_" gradientUnits="userSpaceOnUse" x1="438.9945" y1="4.7346" x2="439.0917" y2="-16.3965">
		<stop  offset="0" style="stop-color:#E9A900"/>
		<stop  offset="1" style="stop-color:#FFDC2A"/>
		<stop  offset="1" style="stop-color:#000000"/>
	</linearGradient>
	
		<rect x="421.8" y="-7.6" style="display:inline;fill:url(#SVGID_00000103224643956011028260000015470038024679469697_);" width="34.6" height="3.3"/>
	
		<linearGradient id="SVGID_00000111879201798509645170000017399305204514007204_" gradientUnits="userSpaceOnUse" x1="439.8437" y1="4.5407" x2="439.9651" y2="-16.566">
		<stop  offset="0" style="stop-color:#E9A900"/>
		<stop  offset="1" style="stop-color:#FFDC2A"/>
		<stop  offset="1" style="stop-color:#000000"/>
	</linearGradient>
	
		<rect x="421.8" y="1.1" style="display:inline;fill:url(#SVGID_00000111879201798509645170000017399305204514007204_);" width="36.2" height="2.3"/>
	
		<linearGradient id="SVGID_00000115483612401227595150000009491479096268749734_" gradientUnits="userSpaceOnUse" x1="339.8648" y1="4.4056" x2="339.9377" y2="-16.3125">
		<stop  offset="0" style="stop-color:#E9A900"/>
		<stop  offset="1" style="stop-color:#FFDC2A"/>
		<stop  offset="1" style="stop-color:#000000"/>
	</linearGradient>
	<path style="display:inline;fill:url(#SVGID_00000115483612401227595150000009491479096268749734_);" d="M324-12.2h36.2v-3.2
		l-40.6,0.1C321.8-14.7,323.4-13.8,324-12.2z"/>
	
		<linearGradient id="SVGID_00000018951763390788375320000009322587075504031909_" gradientUnits="userSpaceOnUse" x1="341.3415" y1="4.6251" x2="341.3172" y2="-16.5059">
		<stop  offset="0" style="stop-color:#E9A900"/>
		<stop  offset="1" style="stop-color:#FFDC2A"/>
		<stop  offset="1" style="stop-color:#000000"/>
	</linearGradient>
	
		<rect x="324" y="-7.6" style="display:inline;fill:url(#SVGID_00000018951763390788375320000009322587075504031909_);" width="34.6" height="3.3"/>
	
		<linearGradient id="SVGID_00000024708599827825167060000007138831173714837402_" gradientUnits="userSpaceOnUse" x1="342.1354" y1="4.4596" x2="342.2083" y2="-16.7686">
		<stop  offset="0" style="stop-color:#E9A900"/>
		<stop  offset="1" style="stop-color:#FFDC2A"/>
		<stop  offset="1" style="stop-color:#000000"/>
	</linearGradient>
	
		<rect x="324" y="1.1" style="display:inline;fill:url(#SVGID_00000024708599827825167060000007138831173714837402_);" width="36.2" height="2.3"/>
	
		<linearGradient id="SVGID_00000031187095023383701340000017309374949969527694_" gradientUnits="userSpaceOnUse" x1="241.9875" y1="3.9874" x2="242.0118" y2="-16.8279">
		<stop  offset="0" style="stop-color:#E9A900"/>
		<stop  offset="1" style="stop-color:#FFDC2A"/>
		<stop  offset="1" style="stop-color:#000000"/>
	</linearGradient>
	<path style="display:inline;fill:url(#SVGID_00000031187095023383701340000017309374949969527694_);" d="M226.1-12.2h36.2v-3.2
		l-40.6,0.1C223.9-14.8,225.5-13.8,226.1-12.2z"/>
	
		<linearGradient id="SVGID_00000163039503301697225960000005300668577209824658_" gradientUnits="userSpaceOnUse" x1="243.54" y1="4.3767" x2="243.2728" y2="-16.6086">
		<stop  offset="0" style="stop-color:#E9A900"/>
		<stop  offset="1" style="stop-color:#FFDC2A"/>
		<stop  offset="1" style="stop-color:#000000"/>
	</linearGradient>
	
		<rect x="226.1" y="-7.6" style="display:inline;fill:url(#SVGID_00000163039503301697225960000005300668577209824658_);" width="34.6" height="3.3"/>
	
		<linearGradient id="SVGID_00000005233403874150664440000016839874547018635938_" gradientUnits="userSpaceOnUse" x1="244.1802" y1="4.5551" x2="244.5688" y2="-16.8917">
		<stop  offset="0" style="stop-color:#E9A900"/>
		<stop  offset="1" style="stop-color:#FFDC2A"/>
		<stop  offset="1" style="stop-color:#000000"/>
	</linearGradient>
	
		<rect x="226.1" y="1.1" style="display:inline;fill:url(#SVGID_00000005233403874150664440000016839874547018635938_);" width="36.2" height="2.3"/>
	<g class="st2">
		
			<linearGradient id="SVGID_00000015332128476399258960000015656398691548382874_" gradientUnits="userSpaceOnUse" x1="95.3652" y1="4.5638" x2="95.7287" y2="-16.9726">
			<stop  offset="0" style="stop-color:#E9A900"/>
			<stop  offset="1" style="stop-color:#FFEF26"/>
		</linearGradient>
		<path style="fill:url(#SVGID_00000015332128476399258960000015656398691548382874_);" d="M116-12.2v-3.2l-40.6,0.1
			c2.2,0.6,3.8,1.5,4.4,3.1H116z"/>
		
			<linearGradient id="SVGID_00000165193461994857567270000002242725932749260932_" gradientUnits="userSpaceOnUse" x1="96.9612" y1="4.55" x2="97.1935" y2="-16.714">
			<stop  offset="0" style="stop-color:#E9A900"/>
			<stop  offset="1" style="stop-color:#FFEF26"/>
		</linearGradient>
		
			<rect x="79.8" y="-7.6" style="fill:url(#SVGID_00000165193461994857567270000002242725932749260932_);" width="34.6" height="3.3"/>
		
			<linearGradient id="SVGID_00000034052005117541365780000013144352984601609149_" gradientUnits="userSpaceOnUse" x1="97.8521" y1="4.5987" x2="98.1815" y2="-16.7182">
			<stop  offset="0" style="stop-color:#E9A900"/>
			<stop  offset="1" style="stop-color:#FFEF26"/>
		</linearGradient>
		<rect x="79.8" y="1" style="fill:url(#SVGID_00000034052005117541365780000013144352984601609149_);" width="36.2" height="2.3"/>
	</g>
</g>
<g id="Calque_8" class="st0">
	
		<linearGradient id="SVGID_00000145764831150506963850000012358740930041442985_" gradientUnits="userSpaceOnUse" x1="116.8694" y1="467.0779" x2="116.9249" y2="448.189">
		<stop  offset="0" style="stop-color:#412513"/>
		<stop  offset="0.3643" style="stop-color:#9C6D35"/>
		<stop  offset="0.6055" style="stop-color:#E7CC81"/>
		<stop  offset="0.8492" style="stop-color:#D7B467"/>
	</linearGradient>
	<path style="display:inline;fill:url(#SVGID_00000145764831150506963850000012358740930041442985_);" d="M130,451.6
		c1.8,1.5,1.5,2.8-0.3,4.3c-10.2,0-20.8,0-31.3,0c0,3.9,0,7.4,0,11.1c1.1,0,2.1,0,3.5,0c0-2.8,0-5.2,0-7.7c9.8,0,19.4,0,28.1,0
		c3.6-1.2,5-3.2,5.6-5.7c-0.7-2.8-2.5-4.4-4.9-5.4c-10.6,0-21.4,0-32.4,0c0.1,1.2,0.1,2.3,0.2,3.5
		C109.2,451.6,119.7,451.6,130,451.6z"/>
	
		<linearGradient id="SVGID_00000064312493189017272930000010586476323332898465_" gradientUnits="userSpaceOnUse" x1="361.9042" y1="467.7751" x2="362.1264" y2="449.1084">
		<stop  offset="0" style="stop-color:#412513"/>
		<stop  offset="0.3643" style="stop-color:#9C6D35"/>
		<stop  offset="0.6055" style="stop-color:#E7CC81"/>
		<stop  offset="0.8492" style="stop-color:#D7B467"/>
	</linearGradient>
	<path style="display:inline;fill:url(#SVGID_00000064312493189017272930000010586476323332898465_);" d="M375.1,451.6
		c1.8,1.5,1.5,2.8-0.3,4.3c-10.2,0-20.8,0-31.3,0c0,3.9,0,7.4,0,11.1c1.1,0,2.1,0,3.5,0c0-2.8,0-5.2,0-7.7c7.5,0,14.9,0,21.9,0
		c1.3,1.3,5.6,5.6,7.6,7.7h4.1c-1.9-1.9-5.8-5.8-7.7-7.7c0.7,0,1.4,0,2.1,0c3.6-1.2,5-3.2,5.6-5.7c-0.7-2.8-2.5-4.4-4.9-5.4
		c-10.6,0-21.4,0-32.4,0c0.1,1.2,0.1,2.3,0.2,3.5C354.3,451.6,364.8,451.6,375.1,451.6z"/>
	
		<linearGradient id="SVGID_00000137855164198439334560000004224809345625547423_" gradientUnits="userSpaceOnUse" x1="246.2793" y1="467.2644" x2="246.3904" y2="448.4866">
		<stop  offset="0" style="stop-color:#412513"/>
		<stop  offset="0.3643" style="stop-color:#9C6D35"/>
		<stop  offset="0.6055" style="stop-color:#E7CC81"/>
		<stop  offset="0.8492" style="stop-color:#D7B467"/>
	</linearGradient>
	<polygon style="display:inline;fill:url(#SVGID_00000137855164198439334560000004224809345625547423_);" points="247.9,449.1 
		246.9,448.3 244.7,448.3 244.7,467 248,467 	"/>
	
		<linearGradient id="SVGID_00000096741359176658576670000002544266895559893939_" gradientUnits="userSpaceOnUse" x1="266.5154" y1="467.3842" x2="266.6265" y2="448.6064">
		<stop  offset="0" style="stop-color:#412513"/>
		<stop  offset="0.3643" style="stop-color:#9C6D35"/>
		<stop  offset="0.6055" style="stop-color:#E7CC81"/>
		<stop  offset="0.8492" style="stop-color:#D7B467"/>
	</linearGradient>
	<path style="display:inline;fill:url(#SVGID_00000096741359176658576670000002544266895559893939_);" d="M279.4,448.3l-16.3,14.1
		c0,0,0,0,0,0l-11.7-10.1v4.1l11.7,10v0l0,0c5.1-4.4,10.1-8.7,15.2-13.1V467h3.3v-18.7H279.4z"/>
	
		<linearGradient id="SVGID_00000181057964778552809210000002462104465464737975_" gradientUnits="userSpaceOnUse" x1="161.2955" y1="466.9695" x2="161.3511" y2="448.0251">
		<stop  offset="0" style="stop-color:#412513"/>
		<stop  offset="0.3643" style="stop-color:#9C6D35"/>
		<stop  offset="0.6055" style="stop-color:#E7CC81"/>
		<stop  offset="0.8492" style="stop-color:#D7B467"/>
	</linearGradient>
	<polygon style="display:inline;fill:url(#SVGID_00000181057964778552809210000002462104465464737975_);" points="150.3,459.5 
		175.7,459.5 175.7,455.8 150.3,455.8 150.3,448.2 146.9,448.2 146.9,467 150.3,467 	"/>
	
		<linearGradient id="SVGID_00000122695931052392273600000010568817516137774252_" gradientUnits="userSpaceOnUse" x1="181.351" y1="467.0283" x2="181.4065" y2="448.0839">
		<stop  offset="0" style="stop-color:#412513"/>
		<stop  offset="0.3643" style="stop-color:#9C6D35"/>
		<stop  offset="0.6055" style="stop-color:#E7CC81"/>
		<stop  offset="0.8492" style="stop-color:#D7B467"/>
	</linearGradient>
	
		<rect x="179.8" y="448.1" style="display:inline;fill:url(#SVGID_00000122695931052392273600000010568817516137774252_);" width="3.2" height="18.9"/>
	<g class="st2">
		
			<linearGradient id="SVGID_00000061436558125806250120000007089824088812569500_" gradientUnits="userSpaceOnUse" x1="407.6641" y1="467.066" x2="407.7474" y2="448.316">
			<stop  offset="0" style="stop-color:#412513"/>
			<stop  offset="0.3643" style="stop-color:#9C6D35"/>
			<stop  offset="0.6055" style="stop-color:#E7CC81"/>
			<stop  offset="0.8492" style="stop-color:#D7B467"/>
		</linearGradient>
		<path style="fill:url(#SVGID_00000061436558125806250120000007089824088812569500_);" d="M391.9,451.4h36.2v-3.2l-40.6,0.1
			C389.6,448.8,391.2,449.8,391.9,451.4z"/>
		
			<linearGradient id="SVGID_00000174599883361424377520000005808864277098988974_" gradientUnits="userSpaceOnUse" x1="409.0997" y1="467.0724" x2="409.183" y2="448.3224">
			<stop  offset="0" style="stop-color:#412513"/>
			<stop  offset="0.3643" style="stop-color:#9C6D35"/>
			<stop  offset="0.6055" style="stop-color:#E7CC81"/>
			<stop  offset="0.8492" style="stop-color:#D7B467"/>
		</linearGradient>
		
			<rect x="391.9" y="456" style="fill:url(#SVGID_00000174599883361424377520000005808864277098988974_);" width="34.6" height="3.3"/>
		
			<linearGradient id="SVGID_00000165193801115557711720000009594156355501416612_" gradientUnits="userSpaceOnUse" x1="409.9494" y1="467.0762" x2="410.0327" y2="448.3262">
			<stop  offset="0" style="stop-color:#412513"/>
			<stop  offset="0.3643" style="stop-color:#9C6D35"/>
			<stop  offset="0.6055" style="stop-color:#E7CC81"/>
			<stop  offset="0.8492" style="stop-color:#D7B467"/>
		</linearGradient>
		
			<rect x="391.9" y="464.7" style="fill:url(#SVGID_00000165193801115557711720000009594156355501416612_);" width="36.2" height="2.3"/>
	</g>
	<g class="st2">
		
			<linearGradient id="SVGID_00000067928570990646763510000002597423602631447705_" gradientUnits="userSpaceOnUse" x1="309.8208" y1="467.155" x2="310.043" y2="448.4884">
			<stop  offset="0" style="stop-color:#412513"/>
			<stop  offset="0.3643" style="stop-color:#9C6D35"/>
			<stop  offset="0.6055" style="stop-color:#E7CC81"/>
			<stop  offset="0.8492" style="stop-color:#D7B467"/>
		</linearGradient>
		<path style="fill:url(#SVGID_00000067928570990646763510000002597423602631447705_);" d="M294.1,451.4h36.2v-3.2l-40.6,0.1
			C291.9,448.9,293.5,449.8,294.1,451.4z"/>
		
			<linearGradient id="SVGID_00000148653662348489172590000010289579949294480779_" gradientUnits="userSpaceOnUse" x1="311.3148" y1="467.1728" x2="311.537" y2="448.5061">
			<stop  offset="0" style="stop-color:#412513"/>
			<stop  offset="0.3643" style="stop-color:#9C6D35"/>
			<stop  offset="0.6055" style="stop-color:#E7CC81"/>
			<stop  offset="0.8492" style="stop-color:#D7B467"/>
		</linearGradient>
		
			<rect x="294.1" y="456.1" style="fill:url(#SVGID_00000148653662348489172590000010289579949294480779_);" width="34.6" height="3.3"/>
		
			<linearGradient id="SVGID_00000031891240134986202820000006795333611826914448_" gradientUnits="userSpaceOnUse" x1="312.2251" y1="467.1837" x2="312.4473" y2="448.517">
			<stop  offset="0" style="stop-color:#412513"/>
			<stop  offset="0.3643" style="stop-color:#9C6D35"/>
			<stop  offset="0.6055" style="stop-color:#E7CC81"/>
			<stop  offset="0.8492" style="stop-color:#D7B467"/>
		</linearGradient>
		
			<rect x="294.1" y="464.7" style="fill:url(#SVGID_00000031891240134986202820000006795333611826914448_);" width="36.2" height="2.3"/>
	</g>
	<g class="st2">
		
			<linearGradient id="SVGID_00000176753366453213506260000011536766282827197085_" gradientUnits="userSpaceOnUse" x1="212.0043" y1="467.0616" x2="212.1154" y2="448.2838">
			<stop  offset="0" style="stop-color:#412513"/>
			<stop  offset="0.3643" style="stop-color:#9C6D35"/>
			<stop  offset="0.6055" style="stop-color:#E7CC81"/>
			<stop  offset="0.8492" style="stop-color:#D7B467"/>
		</linearGradient>
		<path style="fill:url(#SVGID_00000176753366453213506260000011536766282827197085_);" d="M196.2,451.4h36.2v-3.2l-40.6,0.1
			C193.9,448.8,195.6,449.8,196.2,451.4z"/>
		
			<linearGradient id="SVGID_00000136394369938783062850000007123155829998841522_" gradientUnits="userSpaceOnUse" x1="213.4514" y1="467.0702" x2="213.5626" y2="448.2924">
			<stop  offset="0" style="stop-color:#412513"/>
			<stop  offset="0.3643" style="stop-color:#9C6D35"/>
			<stop  offset="0.6055" style="stop-color:#E7CC81"/>
			<stop  offset="0.8492" style="stop-color:#D7B467"/>
		</linearGradient>
		
			<rect x="196.2" y="456" style="fill:url(#SVGID_00000136394369938783062850000007123155829998841522_);" width="34.6" height="3.3"/>
		
			<linearGradient id="SVGID_00000180328011560927240300000001557327023281127043_" gradientUnits="userSpaceOnUse" x1="214.3131" y1="467.0753" x2="214.4242" y2="448.2975">
			<stop  offset="0" style="stop-color:#412513"/>
			<stop  offset="0.3643" style="stop-color:#9C6D35"/>
			<stop  offset="0.6055" style="stop-color:#E7CC81"/>
			<stop  offset="0.8492" style="stop-color:#D7B467"/>
		</linearGradient>
		
			<rect x="196.2" y="464.7" style="fill:url(#SVGID_00000180328011560927240300000001557327023281127043_);" width="36.2" height="2.3"/>
	</g>
	<g class="st2">
		
			<linearGradient id="SVGID_00000041279816694488764520000009299419219890484384_" gradientUnits="userSpaceOnUse" x1="65.6209" y1="466.9892" x2="65.7876" y2="448.1558">
			<stop  offset="0" style="stop-color:#412513"/>
			<stop  offset="0.3643" style="stop-color:#9C6D35"/>
			<stop  offset="0.6055" style="stop-color:#E7CC81"/>
			<stop  offset="0.8492" style="stop-color:#D7B467"/>
		</linearGradient>
		<path style="fill:url(#SVGID_00000041279816694488764520000009299419219890484384_);" d="M86.1,451.4v-3.2l-40.6,0.1
			c2.2,0.6,3.8,1.5,4.4,3.1H86.1z"/>
		
			<linearGradient id="SVGID_00000021094237131723656250000014389902479589077138_" gradientUnits="userSpaceOnUse" x1="67.0911" y1="467.0022" x2="67.2578" y2="448.1689">
			<stop  offset="0" style="stop-color:#412513"/>
			<stop  offset="0.3643" style="stop-color:#9C6D35"/>
			<stop  offset="0.6055" style="stop-color:#E7CC81"/>
			<stop  offset="0.8492" style="stop-color:#D7B467"/>
		</linearGradient>
		
			<rect x="49.9" y="456" style="fill:url(#SVGID_00000021094237131723656250000014389902479589077138_);" width="34.6" height="3.3"/>
		
			<linearGradient id="SVGID_00000150824415202586849180000011596268592567001522_" gradientUnits="userSpaceOnUse" x1="67.9765" y1="467.01" x2="68.1432" y2="448.1767">
			<stop  offset="0" style="stop-color:#412513"/>
			<stop  offset="0.3643" style="stop-color:#9C6D35"/>
			<stop  offset="0.6055" style="stop-color:#E7CC81"/>
			<stop  offset="0.8492" style="stop-color:#D7B467"/>
		</linearGradient>
		
			<rect x="49.9" y="464.6" style="fill:url(#SVGID_00000150824415202586849180000011596268592567001522_);" width="36.2" height="2.3"/>
	</g>
</g>
<g id="Calque_11" class="st0">
	<g class="st2">
		
			<linearGradient id="SVGID_00000000213706026211297150000005962187278671828890_" gradientUnits="userSpaceOnUse" x1="162.1524" y1="506.0403" x2="161.8747" y2="491.0403">
			<stop  offset="0" style="stop-color:#412513"/>
			<stop  offset="0.3643" style="stop-color:#9C6D35"/>
			<stop  offset="0.6055" style="stop-color:#E7CC81"/>
			<stop  offset="0.8492" style="stop-color:#D7B467"/>
		</linearGradient>
		<path style="fill:url(#SVGID_00000000213706026211297150000005962187278671828890_);" d="M166.1,496.1H157l-0.4,0.6
			c-0.4,0.6-1.3,2-1.3,2.6c0,0.5,0.1,1,1.7,1c0.3,0,0.4,0.1,0.4,0.2c0,0.1,0,0.2-0.4,0.2c-1,0-2,0-3,0c-1,0-2,0-3,0
			c-0.3,0-0.4-0.1-0.4-0.2c0,0,0-0.2,0.4-0.2c1.8,0,2.8-1.2,4.5-3.9l5.5-8.5c-0.4-0.5-1.1-0.8-2.1-0.8c-0.2,0-0.4-0.1-0.4-0.2
			c0-0.1,0.1-0.1,0.3-0.1h2.3c1.5,0,1.8,0.1,2.7,1.6l5.9,9.3c1,1.5,1.9,2.6,3.3,2.6c0.3,0,0.4,0.1,0.4,0.2c0,0.1-0.1,0.2-0.4,0.2
			c-1.1,0-2,0-3.1,0c-1.1,0-2.2,0-3.3,0c-0.3,0-0.4-0.1-0.4-0.2c0-0.1,0.1-0.2,0.4-0.2c0.9,0,1.3-0.4,1.3-0.8s-0.4-1.2-0.9-1.9
			L166.1,496.1z M157.6,495.2h7.9l-3.9-6.3L157.6,495.2z"/>
		
			<linearGradient id="SVGID_00000039119810840091643120000006542024558155503241_" gradientUnits="userSpaceOnUse" x1="182.9121" y1="505.6558" x2="182.6343" y2="490.6558">
			<stop  offset="0" style="stop-color:#412513"/>
			<stop  offset="0.3643" style="stop-color:#9C6D35"/>
			<stop  offset="0.6055" style="stop-color:#E7CC81"/>
			<stop  offset="0.8492" style="stop-color:#D7B467"/>
		</linearGradient>
		<path style="fill:url(#SVGID_00000039119810840091643120000006542024558155503241_);" d="M176.9,492.1c0-1.3-0.6-2.2-2-2.2
			c-0.3,0-0.4-0.1-0.4-0.2s0.1-0.2,0.3-0.2c0.9,0,2,0,3.1,0c1.3,0,2.4,0,3.1,0h1.6c2.8,0,5.9,0.5,5.9,3.2c0,2-1.7,2.9-3.6,3.2
			c0.4,0.1,1,0.9,1.4,1.5c1.5,2.1,2.7,3.1,3.8,3.1c0.4,0,0.5,0,0.8,0c0.3,0,0.4,0.2,0,0.3c-0.4,0.1-1.1,0.1-1.6,0.1
			c-2.8,0-3.3-0.2-5.3-3.1c-1.2-1.8-1.4-1.8-2.5-1.8h-2.3c-0.1,0-0.1,0-0.1,0.2v1.9c0,0.8,0.1,1.2,0.2,1.5c0.4,0.7,1.3,0.8,1.7,0.8
			c0.3,0,0.5,0,0.5,0.2c0,0.1-0.1,0.2-0.4,0.2c-1.1,0-2.2,0-3.1,0c-0.9,0-1.9,0-3.1,0c-0.3,0-0.4,0-0.4-0.2c0-0.1,0.2-0.2,0.5-0.2
			c0.7,0,1.4-0.2,1.7-0.8c0.1-0.3,0.2-0.7,0.2-1.5V492.1z M182.5,495.2c2.2,0,3.6-0.6,3.6-2.5s-1.4-2.5-3.6-2.5h-1.4
			c-1.9,0-2,0.1-2,1.7v3.1c0,0.2,0,0.2,0.1,0.2H182.5z"/>
		
			<linearGradient id="SVGID_00000148661586688284041430000008520505944633603760_" gradientUnits="userSpaceOnUse" x1="199.2372" y1="505.3535" x2="198.9594" y2="490.3535">
			<stop  offset="0" style="stop-color:#412513"/>
			<stop  offset="0.3643" style="stop-color:#9C6D35"/>
			<stop  offset="0.6055" style="stop-color:#E7CC81"/>
			<stop  offset="0.8492" style="stop-color:#D7B467"/>
		</linearGradient>
		<path style="fill:url(#SVGID_00000148661586688284041430000008520505944633603760_);" d="M197.9,490.4h-2.6c-2,0-2.3,0.6-2.8,2.2
			c-0.1,0.2-0.4,0.2-0.4-0.1l0.4-2.9c0-0.2,0-0.3,0.2-0.3c0.1,0,0.3,0.2,1.3,0.2h10c1.1,0,1.2-0.2,1.4-0.2c0.1,0,0.2,0.1,0.2,0.3
			l0.3,2.9c0,0.3-0.2,0.3-0.3,0.1c-0.6-1.6-0.8-2.2-2.8-2.2h-2.6v7.7c0,0.8,0.1,1.2,0.2,1.5c0.3,0.6,1.2,0.8,1.7,0.8
			c0.3,0,0.5,0,0.5,0.2c0,0.1-0.2,0.2-0.4,0.2c-1,0-2,0-3,0s-2.1,0-3.2,0c-0.3,0-0.4,0-0.4-0.2c0-0.1,0.2-0.2,0.5-0.2
			c0.5,0,1.4-0.2,1.7-0.8c0.1-0.3,0.2-0.7,0.2-1.5V490.4z"/>
		
			<linearGradient id="SVGID_00000056405886933837979650000008181122862009625217_" gradientUnits="userSpaceOnUse" x1="231.5682" y1="504.7548" x2="231.2904" y2="489.7548">
			<stop  offset="0" style="stop-color:#412513"/>
			<stop  offset="0.3643" style="stop-color:#9C6D35"/>
			<stop  offset="0.6055" style="stop-color:#E7CC81"/>
			<stop  offset="0.8492" style="stop-color:#D7B467"/>
		</linearGradient>
		<path style="fill:url(#SVGID_00000056405886933837979650000008181122862009625217_);" d="M227.8,500.8c-0.9,0-2,0-2.9,0
			c-1.1,0-2,0-3,0c-0.4,0-0.5,0-0.5-0.2c0-0.1,0.1-0.2,0.5-0.2c0.6,0,1.5-0.3,1.8-0.8c0.1-0.2,0.2-0.6,0.2-1.1v-8.9
			c0-0.8,0-1.2-0.2-1.5c-0.3-0.6-1.3-0.8-1.8-0.8c-0.4,0-0.5,0-0.5-0.2c0-0.1,0.1-0.1,0.5-0.1c1.9,0,2,0,3.1,0c1,0,2,0,3,0h3.8
			c4.7,0,9.7,1.7,9.7,6.8c0,5-4.7,7.1-9.7,7.1H227.8z M231.7,500c4.1,0,6.9-2,6.9-6.3c0-4.4-3-6.1-6.9-6.1h-4.4c-0.9,0-1,0.2-1,1
			v8.9c0,2.1,0.1,2.4,3,2.5H231.7z"/>
		
			<linearGradient id="SVGID_00000072254350810862195880000015486836256122504108_" gradientUnits="userSpaceOnUse" x1="251.2449" y1="504.3904" x2="250.9671" y2="489.3904">
			<stop  offset="0" style="stop-color:#412513"/>
			<stop  offset="0.3643" style="stop-color:#9C6D35"/>
			<stop  offset="0.6055" style="stop-color:#E7CC81"/>
			<stop  offset="0.8492" style="stop-color:#D7B467"/>
		</linearGradient>
		<path style="fill:url(#SVGID_00000072254350810862195880000015486836256122504108_);" d="M250.6,500.8c-1.1,0-1.8,0-2.9,0
			c-1,0-2,0-3,0c-0.2,0-0.3-0.1-0.3-0.2c0-0.1,0.1-0.2,0.3-0.2c1.4,0,2-0.9,2-2.2v-6.1c0-1.3-0.5-2.2-2-2.2c-0.2,0-0.3-0.1-0.3-0.2
			c0-0.1,0.1-0.2,0.3-0.2c1,0,2,0,3,0c1.1,0,1.8,0,2.7,0h4.8c1.4,0,1.4-0.2,1.7-0.2c0.1,0,0.2,0.1,0.2,0.2l-0.3,2.8
			c0,0.3-0.3,0.2-0.3,0c0-1.8-1.4-1.9-3.7-1.9h-2.3c-1.4,0-1.6,0.2-1.6,1.7v2.4c0,0.1,0,0.2,0.2,0.2h3.5c1.1,0,1.8-0.5,1.8-1.5
			c0-0.4,0.3-0.4,0.3,0c0,0.6,0,1.3,0,1.9c0,0.6,0,1.3,0,1.9c0,0.3-0.3,0.3-0.3,0c0-1-0.7-1.5-1.8-1.5H249c-0.1,0-0.2,0.1-0.2,0.2
			v2.3c0,1.8,0.3,2,3.5,2c2.5,0,4.4-0.6,5.2-2.8c0.1-0.3,0.4-0.2,0.3,0.1l-0.9,2.7c-0.2,0.7-0.4,0.9-1.3,0.9H250.6z"/>
		
			<linearGradient id="SVGID_00000136376929615384067000000003356483055401467027_" gradientUnits="userSpaceOnUse" x1="267.2885" y1="504.0933" x2="267.0107" y2="489.0933">
			<stop  offset="0" style="stop-color:#412513"/>
			<stop  offset="0.3643" style="stop-color:#9C6D35"/>
			<stop  offset="0.6055" style="stop-color:#E7CC81"/>
			<stop  offset="0.8492" style="stop-color:#D7B467"/>
		</linearGradient>
		<path style="fill:url(#SVGID_00000136376929615384067000000003356483055401467027_);" d="M272.9,492.9c0,0.1,0,0.3-0.1,0.3
			c-0.1,0-0.2-0.1-0.2-0.2c-0.5-2.2-2.9-2.9-5.3-2.9c-2.1,0-4.3,0.5-4.3,1.8c0,3.1,10.6,0.1,10.6,5.4c0,2.6-2.6,3.6-6.4,3.6
			c-3,0-4.1-0.5-5.1-0.8c-0.5-0.2-0.3,0.2-0.5,0.2s-0.3-0.2-0.4-0.7l-0.5-2.9c0-0.2,0-0.4,0.1-0.4c0.1,0,0.2,0.1,0.2,0.3
			c0.8,2.8,3.6,3.4,6.1,3.4c2.5,0,4.8-0.5,4.8-2.2c0-3.7-10.7-0.3-10.7-5.3c0-2.6,3-3.3,6-3.3c2.2,0,3.6,0.5,4.3,0.7
			c0.5,0.2,0.3-0.2,0.5-0.2c0.1,0,0.2,0.1,0.3,0.8L272.9,492.9z"/>
		
			<linearGradient id="SVGID_00000008859295487426391220000000488146976756980109_" gradientUnits="userSpaceOnUse" x1="280.2517" y1="503.8532" x2="279.9739" y2="488.8532">
			<stop  offset="0" style="stop-color:#412513"/>
			<stop  offset="0.3643" style="stop-color:#9C6D35"/>
			<stop  offset="0.6055" style="stop-color:#E7CC81"/>
			<stop  offset="0.8492" style="stop-color:#D7B467"/>
		</linearGradient>
		<path style="fill:url(#SVGID_00000008859295487426391220000000488146976756980109_);" d="M279,492.2c0-0.8-0.1-1.2-0.2-1.5
			c-0.3-0.6-1.1-0.8-1.7-0.8c-0.3,0-0.5,0-0.5-0.2c0-0.1,0.2-0.2,0.5-0.2c1.1,0,2,0,3.1,0c1,0,2,0,3.1,0c0.3,0,0.5,0,0.5,0.2
			c0,0.2-0.2,0.2-0.5,0.2c-0.5,0-1.4,0.3-1.7,0.8c-0.2,0.3-0.2,0.7-0.2,1.5v5.9c0,0.8,0.1,1.2,0.2,1.5c0.3,0.6,1.2,0.8,1.7,0.8
			c0.3,0,0.5,0,0.5,0.2c0,0.1-0.2,0.2-0.5,0.2c-1.1,0-2.1,0-3.1,0c-1,0-2,0-3,0c-0.3,0-0.5,0-0.5-0.2c0-0.1,0.2-0.2,0.5-0.2
			c0.5,0,1.4-0.2,1.7-0.8c0.2-0.3,0.2-0.7,0.2-1.5V492.2z"/>
		
			<linearGradient id="SVGID_00000170965865166203071790000001505678375797324714_" gradientUnits="userSpaceOnUse" x1="294.9384" y1="503.5812" x2="294.6606" y2="488.5812">
			<stop  offset="0" style="stop-color:#412513"/>
			<stop  offset="0.3643" style="stop-color:#9C6D35"/>
			<stop  offset="0.6055" style="stop-color:#E7CC81"/>
			<stop  offset="0.8492" style="stop-color:#D7B467"/>
		</linearGradient>
		<path style="fill:url(#SVGID_00000170965865166203071790000001505678375797324714_);" d="M301.1,499.3c0,1.2-4,1.7-6.2,1.7
			c-4.2,0-8.7-1.7-8.7-5.9c0-4.1,4.5-5.9,8.6-5.9c2.1,0,3.6,0.5,4.4,0.8c0.5,0.2,0.8,0.3,1,0.3c0.5,0,0.3-0.5,0.6-0.5
			c0.2,0,0.2,0.1,0.2,0.4v3.2c0,0.3-0.3,0.3-0.3,0c-0.3-1-1.8-3.4-5.9-3.4c-3.3,0-6.1,1.6-6.1,5c0,3.5,2.9,5.1,6.1,5.1
			c1.1,0,4-0.2,4-1v-1.4c0-0.5-0.1-0.9-0.3-1.3c-0.3-0.4-0.8-0.5-1.6-0.5c-0.2,0-0.4,0-0.4-0.2c0-0.1,0.1-0.2,0.3-0.2
			c1,0,2.1,0.1,3.1,0.1s2.1-0.1,3.2-0.1c0.1,0,0.3,0,0.3,0.2c0,0.2-0.2,0.2-0.4,0.2c-0.7,0-1.2,0.2-1.5,0.5
			c-0.4,0.3-0.4,0.8-0.4,1.3V499.3z"/>
		
			<linearGradient id="SVGID_00000071558566532020725600000002626816351136813482_" gradientUnits="userSpaceOnUse" x1="314.0379" y1="503.2275" x2="313.7602" y2="488.2275">
			<stop  offset="0" style="stop-color:#412513"/>
			<stop  offset="0.3643" style="stop-color:#9C6D35"/>
			<stop  offset="0.6055" style="stop-color:#E7CC81"/>
			<stop  offset="0.8492" style="stop-color:#D7B467"/>
		</linearGradient>
		<path style="fill:url(#SVGID_00000071558566532020725600000002626816351136813482_);" d="M308.6,491.5v6.9c0,1.2,0.3,2,1.9,2
			c0.2,0,0.4,0,0.4,0.2c0,0.1-0.1,0.2-0.3,0.2c-0.8,0-1.9,0-2.6,0c-0.8,0-1.8,0-2.6,0c-0.2,0-0.4,0-0.4-0.2c0-0.1,0.2-0.2,0.4-0.2
			c1.5,0,1.9-0.7,1.9-2v-7c0-0.9-0.6-1.6-1.9-1.6c-0.2,0-0.4,0-0.4-0.2c0-0.1,0.2-0.2,0.4-0.2h2.7c1.2,0,1.3,0,2,0.6l9.1,7.7v-6
			c0-1.2-0.3-2-1.9-2c-0.2,0-0.4,0-0.4-0.2c0-0.1,0.1-0.2,0.3-0.2c0.9,0,1.9,0,2.6,0c0.8,0,1.8,0,2.6,0c0.2,0,0.3,0,0.3,0.2
			c0,0.2-0.3,0.2-0.4,0.2c-1.5,0-1.9,0.7-1.9,2v8.2c0,0.8,0,1-0.2,1c-0.1,0-0.3,0-1-0.6L308.6,491.5z"/>
	</g>
</g>
<g id="Calque_10" class="st0">
</g>
<g id="Calque_7" class="st0">
</g>
<g id="Calque_12" class="st0">
</g>
<g id="Calque_9" class="st0">
	<path class="st7" d="M253.2,230.1"/>
</g>
<g id="Calque_4" class="st0">
	<g class="st2">
		<path d="M187.3,259.7c0,0.2,0,0.3,0,0.5c34.9,0,69.9,0,104.8,0c0-0.2,0-0.3,0-0.5C257.2,259.7,222.3,259.7,187.3,259.7z"/>
		<path d="M209.5,248.2c0.5,0.5,0.4,1-0.1,1.5c-2.8,0-5.8,0-8.7,0c0,1.4,0,2.7,0,4c0.3,0,0.6,0,1,0c0-1,0-1.9,0-2.8
			c2.7,0,5.4,0,7.8,0c1-0.4,1.4-1.1,1.5-2.1c-0.2-1-0.7-1.6-1.4-1.9c-2.9,0-5.9,0-9,0c0,0.4,0,0.8,0,1.2
			C203.7,248.2,206.7,248.2,209.5,248.2z"/>
		<path d="M277.5,248.2c0.5,0.5,0.4,1-0.1,1.5c-2.8,0-5.8,0-8.7,0c0,1.4,0,2.7,0,4c0.3,0,0.6,0,1,0c0-1,0-1.9,0-2.8
			c2.1,0,4.1,0,6.1,0c0.3,0.5,1.5,2,2.1,2.8h1.1c-0.5-0.7-1.6-2.1-2.1-2.8c0.2,0,0.4,0,0.6,0c1-0.4,1.4-1.1,1.5-2.1
			c-0.2-1-0.7-1.6-1.4-1.9c-2.9,0-5.9,0-9,0c0,0.4,0,0.8,0,1.2C271.7,248.2,274.6,248.2,277.5,248.2z"/>
		<polygon points="242.2,248.8 246.4,253.5 246.4,253.5 250.6,248.8 250.6,253.8 251.6,253.8 251.6,247 250.9,247 246.4,252.1 
			246.4,252.1 241.9,247 241.3,247 241.3,253.8 242.2,253.8 		"/>
		<polygon points="215.1,251.1 222,251.1 222,249.7 215.1,249.7 215.1,247 214.2,247 214.2,253.8 215.1,253.8 		"/>
		<rect x="223.3" y="247" width="0.9" height="6.8"/>
		<path d="M282.1,248.2h10V247l-11.3,0C281.5,247.2,281.9,247.6,282.1,248.2z"/>
		<rect x="282.1" y="249.8" width="9.6" height="1.2"/>
		<rect x="282.1" y="252.9" width="10" height="0.8"/>
		<path d="M255,248.2h10V247l-11.3,0C254.4,247.2,254.8,247.6,255,248.2z"/>
		<rect x="255" y="249.8" width="9.6" height="1.2"/>
		<rect x="255" y="252.9" width="10" height="0.8"/>
		<path d="M227.9,248.2h10V247l-11.3,0C227.2,247.2,227.7,247.6,227.9,248.2z"/>
		<rect x="227.9" y="249.8" width="9.6" height="1.2"/>
		<rect x="227.9" y="252.9" width="10" height="0.8"/>
		<path d="M197.3,248.1V247l-11.3,0c0.6,0.2,1,0.5,1.2,1.1H197.3z"/>
		<rect x="187.3" y="249.8" width="9.6" height="1.2"/>
		<rect x="187.3" y="252.9" width="10" height="0.8"/>
	</g>
</g>
<g id="Calque_13">
	
		<image style="display:none;overflow:visible;" width="4096" height="4096" xlink:href="logoV5.png"  transform="matrix(0.1191 0 0 0.1191 -5.5462 -34.6833)">
	</image>
	<g>
		<path class="st55" d="M256.9,269.3c-0.6,0.3-0.5,0.9-0.5,1.5c-0.1,2.7-0.1,5.4-0.2,8.1c0,1.7-0.1,3.3-0.2,5
			c-0.1,2.3-0.8,4.4-3.3,5.4c0.3,0.5,0.6,0.9,0.8,1.3c1.1,1.7,0.9,3.4-0.6,4.6c-0.5,0.4-1,0.7-1.7,1.1c0.3,0.4,0.5,0.8,0.8,1.1
			c1.1,1.6,0.9,3.4-0.5,4.7c-0.5,0.5-1.1,0.8-1.7,1.2c2.2,3.3,1.9,4.6-1.5,6.9c0.3,0.3,0.6,0.7,0.9,1c1.3,1.4,1.2,2.6-0.3,3.8
			c-0.4,0.3-0.8,0.5-1.3,0.9c0.4,0.4,0.7,0.7,1,1.1c1.2,1.3,1.1,2.6-0.2,3.7c-0.4,0.3-0.9,0.6-1.3,0.9c0,0.7,0.5,0.8,0.8,1.2
			c1.2,1.3,1.1,2.6-0.2,3.7c-0.4,0.4-0.9,0.6-1.4,1.1c0.3,0.4,0.6,0.6,0.9,0.9c1.4,1.5,1.3,2.7-0.3,4c-0.2,0.1-0.4,0.2-0.6,0.4
			c-0.2,0.1-0.3,0.3-0.6,0.6c0.3,0.3,0.6,0.5,0.9,0.8c1.3,1.3,1.2,2.7-0.2,3.9c-0.4,0.3-0.8,0.5-1.2,0.8c0,0.7,0.6,0.9,0.9,1.3
			c1,1.2,0.9,2.5-0.3,3.5c-0.5,0.4-1.2,0.8-1.9,1.3c0.9,1.7,0.4,3.4-0.1,5.1c-0.5,1.7-0.8,3.4-1.1,5.1c-0.1,1-0.6,1.6-1.5,2
			c-0.1,0.7-0.1,1.3-0.1,1.9c-0.2,7-0.3,14-0.5,20.9c-0.3,14.1-0.6,28.2-0.9,42.3c0,2.1-0.1,4.3-0.7,6.6c-0.3-0.4-0.6-0.6-0.6-0.8
			c-0.2-1.9-0.5-3.8-0.5-5.7c-0.2-7.1-0.4-14.3-0.5-21.4c-0.2-11.3-0.4-22.5-0.6-33.8c-0.1-3.2-0.2-6.5-0.4-10
			c-0.3-0.3-1-0.6-1.3-1.1c-0.3-0.4-0.2-1.1-0.4-1.6c-0.5-1.9-0.9-3.9-1.4-5.8c-0.4-1.3-0.3-2.5,0.3-3.8c-0.5-0.3-1-0.6-1.4-0.9
			c-1.7-1.3-1.8-2.6-0.3-4.1c0.2-0.2,0.5-0.4,0.8-0.7c-0.5-0.4-0.8-0.7-1.2-0.9c-1.7-1.4-1.8-2.6-0.3-4.1c0.2-0.2,0.4-0.4,0.8-0.7
			c-0.5-0.4-0.9-0.7-1.4-1c-1.3-0.8-1.5-2.9-0.2-3.9c0.3-0.2,0.5-0.5,0.9-0.9c-0.5-0.3-0.8-0.5-1.1-0.8c-1.9-1.5-2-2.6-0.3-4.3
			c0.2-0.2,0.3-0.3,0.5-0.5c0,0,0-0.1,0-0.4c-0.3-0.2-0.7-0.4-1.1-0.7c-1.6-1.2-1.7-2.5-0.3-4c0.2-0.2,0.5-0.4,0.8-0.8
			c-0.3-0.3-0.6-0.5-0.8-0.8c-0.4-0.3-0.8-0.6-1.1-0.9c-0.7-0.9-0.7-1.9,0-2.8c0.3-0.4,0.8-0.8,1.2-1.2c0-0.6-0.6-0.7-0.9-0.9
			c-0.7-0.5-1.2-1-1.6-1.8c-0.5-1.1-0.5-2.2,0.2-3.2c0.3-0.4,0.6-0.7,0.9-1.2c-0.4-0.3-0.8-0.6-1.1-0.8c-2.1-1.5-2.4-3.3-0.9-5.5
			c0.1-0.2,0.3-0.4,0.5-0.7c-0.3-0.2-0.6-0.5-0.9-0.7c-2.5-1.7-2.8-3.3-1-5.7c0.1-0.1,0.2-0.3,0.3-0.5c-0.2-0.2-0.4-0.4-0.6-0.6
			c-1.7-0.8-2.4-2.3-2.5-4c-0.2-1.7-0.3-3.5-0.4-5.2c-0.1-2.9-0.1-5.9-0.2-8.8c0-0.5-0.1-1.1-0.1-1.6c-0.6-0.1-0.7,0.4-0.8,0.8
			c-1.3,4.5-2.6,9-4.1,13.4c-2.9,8.4-6.8,16.4-11.4,24c-6.1,9.9-12.8,19.3-21.2,27.4c-2.9,2.8-5.9,5.5-9.1,8
			c-5,3.9-10.1,7.6-15.2,11.4c-0.6,0.4-1.3,0.8-2.1,0.9c0.5-0.4,1-0.9,1.5-1.3c3.5-2.8,6.9-5.6,10.4-8.4
			c12.4-9.9,22.4-21.7,30.3-35.4c5.6-9.6,10.5-19.5,14-30.2c2.3-7.2,4-14.5,5.4-21.9c0.3-1.4,0.1-2.8-0.1-4.2
			c-1-5.1-2-10.1-2.9-15.2c-1.2-7.1-1.7-14.2-1.2-21.3c0.4-5.8,1.5-11.5,3.2-17c1.4-4.5,3-9,4.5-13.5c0.4-1.1,0.7-2,0.4-3.2
			c-0.3-0.9,0-1.9,0.4-2.8c0.3-0.7,0.7-1.4,1-2.1c1.9-3.4,3.5-6.9,5-10.5c1.7-4.2,3.5-8.3,5.2-12.5c0.4-1,0.8-1.9,1.1-2.9
			c0.2-0.5,0.1-1.1,0.2-1.9c-0.6,0.4-1.1,0.6-1.3,1c-0.8,1.2-1.6,2.4-2.3,3.6c-2,3.5-4,7-6,10.5c-0.5,0.9-1.1,1.8-1.7,2.6
			c-1.7,2.2-3.9,3.4-6.7,3.4c-1.3,0-2.6-0.1-3.7-0.5c-3.7-1.2-6.9-0.4-9.8,1.9c-1.1,0.8-2.2,1.6-3.3,2.3c-3,1.8-5.9,1.6-8.7-0.4
			c-0.8-0.6-1.6-1.3-2.4-1.9c-0.9-0.7-1.7-1.4-2.7-1.9c-2-1.1-3.3-0.8-4.5,1c-0.6,0.9-1.1,1.9-1.6,2.9c-0.8,1.4-1.5,2.8-2.4,4.1
			c-1.8,2.9-4.6,4.3-7.9,4.7c-1.3,0.2-2.7,0.1-4,0c-0.4,0-0.8-0.2-1.1-0.4c-0.1-0.1-0.2-0.7-0.1-0.8c0.3-0.3,0.8-0.6,1.2-0.7
			c0.7-0.1,1.4-0.1,2.1-0.2c0.6,0,1.1,0,1.7,0c3.3-0.2,4.7-1.5,5.3-4.7c0.5-2.8,0.8-5.6,1.3-8.5c0.5-3.1,1.4-6,2.6-8.9
			c0.4-0.9,0.7-1.9,1.1-3c-0.6-0.2-1-0.3-1.5-0.3c-1-0.1-2.1,0-3.1,0c-8.6,0-16.8-1.9-24.7-5.2c-12-5.1-22.9-11.9-32.8-20.4
			c-4.6-4-9.1-8.1-13.2-12.7c-1.4-1.6-2.7-3.3-3.9-5.1c-0.7-1-1.2-2.1-1.5-3.2c-0.6-2.2,0-3.5,2-4.5c1.6-0.8,3.3-1.2,5-1.4
			c2.5-0.2,5.1-0.5,7.6-0.5c7.5,0,14.9,0.1,22.4,0.2c4.3,0.1,8.6,0.1,12.8,0.2c6.1,0.2,12.2,0.3,18.3,0.5c3.3,0.2,6.6,0.6,9.9,1
			c2.8,0.4,5.5,0,8.2-0.8c2.4-0.6,4.7-1.3,7.1-1.8c4.5-0.9,9-1,13.5-0.7c3.2,0.2,6.3,0.7,9.5,1c0.4,0,0.8,0,1.6,0.1
			c-0.7-0.5-1-0.9-1.4-1c-2.4-1.2-5-2-7.6-2.6c-5.4-1.3-10.8-2.5-16.2-3.8C175.8,92,160,85.7,145.1,77
			c-10.6-6.2-21.2-12.4-31.8-18.6c-2.8-1.6-5.6-3.3-8.7-4.4c-4.2-1.6-8.5-2.4-12.9-2.9c-4.2-0.5-8.4-0.7-12.6-0.7
			c-4.4,0.1-8.9,0.3-13.3,0.5C64,51,62.3,51,60.5,51c-8.1,0.3-16.1,0.7-24.2,0.4c-2.1-0.1-4.3-0.3-6.4-0.6c-5.1-0.7-9.2-3.3-12.6-7
			c-2-2.2-3.6-4.8-5-7.5c-0.5-1-0.9-2-0.9-3.2c0-1.5,0.6-2.5,1.9-3c0.9-0.3,1.8-0.6,2.8-0.6c2.1,0,4.3-0.1,6.4,0.2
			c6.1,0.6,12.1,1.8,18.1,2.8c11.1,2,22.1,4,33.2,5.8c5.1,0.8,10.2,1.2,15.4,1.7c10,1,20.1,1,30.2,0.7c5.2-0.2,10.5-0.3,15.7-0.5
			c2.7-0.1,5.4,0,8.1,0c6.9,0,13.5,1.5,19.9,4.1c6.2,2.5,12.1,5.6,17.8,9c10.3,6,20.1,12.7,29.7,19.7c2.9,2.1,5.7,4.2,8.6,6.3
			c1.5,1.1,3,2,4.6,3c0.5,0.3,1.1,0.5,1.8,0.8c0.1-0.8,0.2-1.4,0.3-2c0.2-1.5,0.8-2.7,1.8-3.8c1.4-1.6,3.1-2.9,5-4
			c0.2-0.1,0.4-0.2,0.6-0.3c4.4-1.4,8.7-1.5,12.7,1.3c1,0.7,1.9,1.5,2.7,2.3c1.6,1.5,2.5,3.2,2.6,5.4c0,0.3,0.1,0.6,0.1,0.9
			c0.8,0.2,1.4-0.3,2-0.7c1.9-1.2,3.7-2.4,5.5-3.7c5.7-4.1,11.4-8.3,17.2-12.3c8.6-6,17.5-11.8,26.8-16.7c5.2-2.7,10.5-5.2,16.1-7
			c4.4-1.4,8.9-2.2,13.6-2.3c7.7-0.2,15.4,0,23.1,0.3c8.6,0.4,17.1,0.4,25.7-0.1c6-0.4,12-0.8,18-1.6c4.5-0.6,8.9-1.3,13.4-2.1
			c10.8-1.9,21.5-3.9,32.3-5.8c4.8-0.8,9.7-1.7,14.6-1.5c1.2,0,2.4,0.2,3.5,0.5c2.1,0.6,2.9,2,2.3,4.2c-0.1,0.6-0.3,1.2-0.6,1.8
			c-2.2,4.7-5.2,8.7-9.5,11.7c-2.5,1.7-5.2,2.7-8.1,3.1c-2,0.3-4.1,0.5-6.2,0.6c-5.1,0.1-10.2,0.1-15.2,0c-4.6-0.1-9.2-0.5-13.8-0.6
			c-4.6-0.2-9.2-0.2-13.8-0.4c-6-0.2-12,0.4-18,1.4c-5,0.8-9.6,2.5-14,5.1c-4.3,2.5-8.6,5.1-12.9,7.6c-7.6,4.4-15.2,8.8-22.8,13.3
			c-14.4,8.4-29.8,14.3-46,18.4c-5.3,1.4-10.6,2.5-16,3.8c-2.6,0.6-5.2,1.4-7.7,2.5c-0.5,0.2-0.9,0.5-1.4,0.8
			c0.5,0.6,0.9,0.3,1.3,0.3c4.6-0.7,9.1-1.1,13.7-1.1c5.1,0,10.1,0.6,15,2.2c1.4,0.5,2.9,0.8,4.4,1.1c2.6,0.6,5.2,0.1,7.8-0.2
			c2.6-0.2,5.2-0.6,7.8-0.7c3.2-0.2,6.3-0.3,9.5-0.4c14.1-0.2,28.2-0.5,42.4-0.6c2.8,0,5.5,0.2,8.3,0.5c1.4,0.1,2.8,0.5,4.2,0.9
			c0.7,0.2,1.5,0.6,2.1,1c1.2,0.9,1.7,2,1.3,3.5c-0.3,1.4-0.9,2.7-1.8,3.9c-1.6,2.1-3.1,4.2-4.9,6.1c-12.2,12.9-26.1,23.4-42.3,30.7
			c-5.5,2.5-11.2,4.5-17.2,5.5c-3.9,0.7-7.9,0.8-11.8,0.9c-0.9,0-1.7-0.2-2.7,0.3c0.1,0.5,0.1,0.9,0.2,1.3c0.1,0.5,0.3,0.9,0.5,1.3
			c2.1,4.4,3,9.2,3.6,14c0.2,1.3,0.3,2.5,0.5,3.8c0.5,3,2,4.4,5.1,4.6c1,0.1,2.1,0,3.1,0.1c0.7,0,1.4,0.1,2,0.6
			c0.2,0.1,0.3,0.4,0.3,0.6c0,0.2-0.2,0.4-0.4,0.5c-0.1,0.1-0.3,0.1-0.4,0.2c-2.5,0.2-4.9,0.2-7.3-0.7c-2-0.8-3.7-1.9-4.8-3.7
			c-0.9-1.5-1.8-3-2.6-4.5c-0.6-1-1.1-2.1-1.8-3.1c-1-1.5-2.3-1.8-3.9-1c-1.1,0.6-2.1,1.4-3.1,2.1c-0.9,0.7-1.7,1.5-2.6,2.1
			c-2.7,1.8-5.5,2-8.3,0.3c-1-0.6-2-1.3-3-2c-1-0.7-2-1.3-3-1.9c-1.7-1-3.6-1.2-5.5-0.8c-0.8,0.2-1.5,0.5-2.3,0.6
			c-1.3,0.2-2.5,0.3-3.8,0.3c-2.4-0.1-4.4-1.2-5.9-3.1c-0.6-0.8-1.2-1.7-1.7-2.6c-2-3.5-4-7-6-10.5c-0.8-1.3-1.6-2.6-2.4-3.8
			c-0.3-0.4-0.8-0.6-1.5-1.2c0.1,0.8,0,1.3,0.2,1.7c0.3,1.1,0.7,2.1,1.2,3.1c1.8,4.4,3.6,8.8,5.5,13.2c1.4,3.3,3.1,6.4,4.6,9.6
			c0.4,0.8,0.8,1.5,1.2,2.3c0.4,1,0.8,2,0.4,3c-0.4,1,0,1.8,0.3,2.7c2.1,5.6,4,11.2,5.4,17c2,8,2.9,16,2.3,24.3
			c-0.5,7.3-1.7,14.5-3.2,21.6c-0.4,1.8-0.8,3.6-1.1,5.4c-0.2,0.9-0.2,1.9,0,2.8c2.2,12,5.2,23.8,10.3,35
			c5.5,12.1,12.1,23.6,20.4,34c5.7,7.2,12.3,13.5,19.4,19.2c3.3,2.7,6.7,5.4,10,8.1c0.5,0.4,1,0.9,1.9,1.7c-0.7-0.3-1-0.3-1.1-0.4
			c-8.9-6.2-17.7-12.6-25.5-20.2c-6.8-6.7-12.5-14.3-17.9-22.2c-8.5-12.6-14.6-26.3-18.4-41c-0.2-0.7-0.4-1.4-0.6-2.1
			C257.1,269.6,257,269.5,256.9,269.3z M261.1,148.5c1.2,0.9,2,1.7,2.9,2.3c2.1,1.5,3.9,3.3,5.4,5.3c1.5,2,2.9,4.2,4.3,6.3
			c0.9,1.3,1.7,2.7,2.7,3.9c1.5,2,2.6,2.3,5,1.5c1.7-0.5,3.3-1.1,4.9-1.7c1-0.4,1.9-0.8,2.8-1.4c1.8-1.1,2.1-2.6,1.2-4.5
			c-0.4-0.7-0.8-1.4-1.2-2.1c-4.8-8-11.4-13.7-20.1-17c-0.6-0.2-1.3-0.4-2.1-0.6c-0.7,1.5-1.4,3-2.1,4.4
			C264,146.4,262.8,147.4,261.1,148.5z M216,148.4c-0.4-0.3-0.7-0.6-1.1-0.9c-1.1-0.7-1.9-1.7-2.4-2.9c-0.4-0.9-0.8-1.9-1.3-2.8
			c-0.2-0.4-0.4-0.8-0.7-1.3c-0.7,0.2-1.3,0.3-1.9,0.6c-1.2,0.5-2.4,0.9-3.5,1.5c-7.2,3.6-12.9,8.9-16.9,15.9
			c-0.4,0.7-0.8,1.4-1.2,2.1c-0.7,1.6-0.4,2.9,1,4c0.3,0.2,0.5,0.4,0.8,0.5c2.6,1.4,5.4,2.3,8.2,3.1c1.2,0.3,2.2,0,3.1-0.9
			c0.7-0.7,1.4-1.5,1.9-2.4c1.1-1.6,2.1-3.4,3.2-5c2.4-3.7,5.1-7,8.8-9.6C214.7,149.8,215.5,149.3,216,148.4z"/>
		<path class="st55" d="M122.6,78.9c-2-0.5-3.4-0.7-4.9-0.8c-2.6-0.1-5.2-0.1-7.9-0.2c-9.3-0.1-18.6-0.2-27.8-0.3
			c-6.3-0.1-12.5-0.3-18.8-0.5c-3.2-0.1-6.5-0.6-9.7-1.3c-3.8-0.8-7.3-2.3-10.5-4.3c-3.7-2.3-7.1-5.1-10.1-8.3
			c-0.9-0.9-1.7-1.9-2.3-3c-1.2-2.1-0.7-3.7,1.4-4.7c1.1-0.6,2.4-0.9,3.6-1.2c3.7-0.9,7.5-1.2,11.3-1.4c11.3-0.4,22.7-0.7,34-1
			c2.8-0.1,5.6,0,8.3,0c6.1,0.1,11.9,1.5,17.4,4.1c3.4,1.6,6.8,3.5,9.9,5.6c3,2,6,3.9,8.8,6.1c9.5,7.1,18.9,14.2,28.3,21.3
			c2,1.5,3.9,3.2,5.8,5c0.7,0.7,1.4,1.5,1.9,2.4c1,1.7,0.6,2.9-1.2,3.6c-1.4,0.5-2.9,0.8-4.4,0.9c-3,0.2-6,0.4-9,0.3
			c-14.1-0.4-28.2-0.3-42.4-0.2c-2.7,0-5.4,0-8.1,0c-6.8-0.1-13.2-1.7-19.1-5c-4.5-2.4-8.7-5.2-12.6-8.5c-1-0.9-2-1.9-2.8-2.9
			c-1.4-1.9-1-3.3,1.3-4c1.8-0.5,3.7-0.8,5.6-1c4.8-0.4,9.7-0.4,14.5-0.3c11.4,0.1,22.8,0.2,34.3,0.3c1.3,0,2.5,0,3.8-0.1
			C121.6,79.4,121.9,79.2,122.6,78.9z"/>
		<path class="st55" d="M355.2,79.4c1.2,0,2.2,0.1,3.2,0.1c11.9-0.1,23.8-0.2,35.7-0.2c4.8,0,9.5,0.1,14.3,0.3
			c1.9,0.1,3.8,0.4,5.6,0.9c2.5,0.7,2.9,2.1,1.3,4.3c-0.6,0.8-1.2,1.5-1.9,2.1c-5.8,4.9-12,9-19.2,11.8c-3.9,1.5-8,2.2-12.1,2.3
			c-2.7,0.1-5.4,0.1-8.1,0.1c-10.8,0-21.6,0-32.4,0c-3.1,0-6.2,0.2-9.3,0.2c-3.6,0-7.3-0.1-10.9-0.3c-1.3-0.1-2.5-0.3-3.7-0.6
			c-0.6-0.1-1.2-0.5-1.7-0.8c-0.7-0.5-1-1.3-0.6-2.1c0.4-0.9,0.9-1.9,1.6-2.6c1.1-1.2,2.3-2.4,3.6-3.4c3.4-2.7,6.9-5.3,10.4-8
			c5.9-4.5,11.9-9,17.9-13.5c4.8-3.6,9.7-7.1,14.9-10.2c3.4-2,6.9-3.9,10.6-5.3c4.2-1.6,8.6-2.4,13-2.4c5.5-0.1,10.9,0.1,16.4,0.1
			c3.3,0.1,6.7,0.2,10,0.3c5.5,0.2,10.9,0.3,16.4,0.6c3.7,0.2,7.4,0.5,11.1,1.3c1.4,0.3,2.8,0.6,4,1.4c1.8,1.1,2.4,2.5,1.4,4.4
			c-0.5,1-1.3,2-2.1,2.9c-3.5,3.8-7.5,7-12,9.6c-4.2,2.4-8.8,3.6-13.5,4.2c-5.5,0.7-11.1,0.8-16.6,0.9c-12.4,0.2-24.9,0.3-37.3,0.4
			c-3,0-6,0-9,0.5C355.9,78.7,355.4,78.6,355.2,79.4z"/>
		<path class="st55" d="M364.9,38.7c-7.1-0.2-14.3-0.3-21.4-0.6c-1.5,0-3-0.3-4.5-0.6c-0.7-0.1-1.7-0.3-1.9-1.2
			c-0.2-0.9,0.4-1.5,1-2c0.8-0.6,1.6-1.3,2.5-1.7c2.4-1.2,4.8-2.4,7.3-3.5c19.1-8.2,38.8-14.7,59-19.5c8.9-2.1,17.9-4.2,26.9-5.9
			c7.5-1.4,15-2.6,22.6-3.2c3.3-0.3,6.6-0.5,10-0.3c1.8,0.1,3.6,0.4,5.4,0.8c3.4,0.8,5.3,3.1,5.6,6.6c0.4,5.9-1.4,11-6.7,14.2
			c-2.2,1.4-4.7,2.3-7.2,3.1c-4.9,1.5-9.8,2.4-14.8,3.3c-12,2.2-24,4.4-36,6.5c-6.6,1.2-13.3,2.4-20,2.9c-8.2,0.6-16.5,1-24.7,1
			c-1,0-2.1,0-3.1,0C364.9,38.6,364.9,38.7,364.9,38.7z"/>
		<path class="st55" d="M112.5,38.7c-9.1,0-18.2-0.4-27.3-1.1c-6.1-0.5-12.1-1.4-18.1-2.5c-10.1-1.9-20.3-3.7-30.4-5.5
			c-7-1.3-14.1-2.4-20.9-4.3c-1.9-0.5-3.8-1.2-5.6-1.9c-0.7-0.3-1.5-0.6-2.2-1c-5.5-3-8.6-7.3-7.9-15.4C0.3,4,2,2,4.9,1
			c1.7-0.6,3.5-0.9,5.4-1c4.9-0.2,9.8,0.2,14.7,0.7C40.5,2.5,55.7,6,70.8,9.7c19.3,4.6,38.1,10.7,56.4,18.5c2.6,1.1,5.1,2.2,7.6,3.4
			c1.3,0.6,2.5,1.4,3.7,2.2c0.6,0.4,1.2,1.1,1.6,1.7c0.4,0.6,0.2,1.3-0.4,1.6c-0.6,0.3-1.2,0.5-1.8,0.6c-1.5,0.2-3,0.5-4.5,0.5
			C126.5,38.4,119.5,38.5,112.5,38.7z"/>
	</g>
</g>
<g id="Calque_14">
	<g>
		<path class="st55" d="M156.1,461.4v-8.7l-110.6,0.2c5.9,1.6,10.3,4.1,12.1,8.6H156.1z"/>
		<rect x="57.5" y="474" class="st55" width="94.1" height="9.1"/>
		<rect x="57.5" y="497.6" class="st55" width="98.6" height="6.3"/>
	</g>
	<path class="st55" d="M423.1,477.7c-1.3-13.4-19.1-25.1-19.1-25.1l-82-0.1l-0.2,25.6l0.1,10.6h10l-0.1-10.6l0.2-17.5l68.1,0.2
		c0,0,12.6,6.8,13.7,17l0,0.3l0,0.3c-1,10.3-13.6,17.1-13.6,17.1l-78.2,0.2l0.1,8l82-0.1c0,0,17.8-11.7,19.1-25.1l0-0.4L423.1,477.7
		z"/>
	<polygon class="st55" points="276.8,503.5 287.5,503.5 238.4,445.5 189.3,503.5 200.7,503.5 217.4,483.2 251.6,483.2 242.9,473 
		225.8,473 238.4,457.2 	"/>
</g>
</svg>
