<?xml version="1.0" encoding="utf-8"?>
<!-- Generator: Adobe Illustrator 26.5.0, SVG Export Plug-In . SVG Version: 6.00 Build 0)  -->
<svg version="1.1" xmlns="http://www.w3.org/2000/svg" xmlns:xlink="http://www.w3.org/1999/xlink" x="0px" y="0px"
	 viewBox="0 0 841.9 595.3" style="enable-background:new 0 0 841.9 595.3;" xml:space="preserve">
<style type="text/css">
	.st0{display:none;}
	.st1{display:inline;fill:#00150C;}
	.st2{display:inline;}
	.st3{fill:none;}
	.st4{font-family:'SarahScript-Regular';}
	.st5{font-size:74.259px;}
	.st6{display:inline;fill:none;}
	.st7{display:inline;fill:#FFFFFF;}
	.st8{font-size:43.2875px;}
	.st9{display:inline;fill:url(#SVGID_1_);}
	.st10{display:inline;fill:url(#SVGID_00000183242763835412169110000013466007663420588991_);}
	.st11{display:inline;fill:url(#SVGID_00000160892964853214773140000012446580891314436745_);}
	.st12{display:inline;fill:url(#SVGID_00000038404391071308313870000008782354254564931208_);}
	.st13{display:inline;fill:url(#SVGID_00000027598440118843262610000017396912532691828629_);}
	.st14{display:inline;fill:url(#SVGID_00000037651333246333249860000007248069313948001726_);}
	.st15{display:inline;fill:url(#SVGID_00000047780700560962785570000017883138087556145847_);}
	.st16{display:inline;fill:url(#SVGID_00000153701779672271709180000016985421126904334991_);}
	.st17{display:inline;fill:url(#SVGID_00000066492465086664916990000012545478571628688318_);}
	.st18{display:inline;fill:url(#SVGID_00000169546957515188049330000003510813414885445779_);}
	.st19{display:inline;fill:url(#SVGID_00000123426400334879016340000010879244284698271129_);}
	.st20{display:inline;fill:url(#SVGID_00000065061851897474898360000015904083599313768324_);}
	.st21{display:inline;fill:url(#SVGID_00000144334899573637522430000000201769274016511380_);}
	.st22{display:inline;fill:url(#SVGID_00000162343175575421681790000006041210947101340587_);}
	.st23{display:inline;fill:url(#SVGID_00000036236327926411677670000017244633246507178379_);}
	.st24{display:inline;fill:url(#SVGID_00000121243367698733133400000000098611532637005700_);}
	.st25{fill:url(#SVGID_00000048489681561152448700000004079299030998633881_);}
	.st26{fill:url(#SVGID_00000039098842586207901720000017924532414474699175_);}
	.st27{fill:url(#SVGID_00000011001398038384387010000014206677918541386883_);}
	.st28{fill:#FFFFFF;}
</style>
<g id="Calque_6" class="st0">
	<rect class="st1" width="841.9" height="595.3"/>
</g>
<g id="Calque_1" class="st0">
</g>
<g id="Calque_2" class="st0">
</g>
<g id="Calque_3" class="st0">
	<g class="st2">
		<rect x="291.8" y="252.4" class="st3" width="270" height="80.8"/>
		<text transform="matrix(1 0 0 1 291.7595 296.8586)" class="st4 st5">Art  </text>
		<g>
			<g>
				<path d="M765.8,229.1c0,0.9,0,1.6,0,2.5c-216.3,0-432.5,0-648.7,0c0-0.9,0-1.6,0-2.5C333.4,229.1,549.5,229.1,765.8,229.1z"/>
				<path d="M669.3,185.3c-0.1-0.1-0.2-0.2-0.3-0.3c-0.3-0.3-0.6-0.7-0.8-1c-1.5,0-3,0-4.5-0.1c0,0.8,0,1.5-0.1,2.3
					c0,0.1,0,0.1,0,0.2c0.1,0.1,0.1,0.2,0.2,0.2c0.3,0.3,9.6,9.7,13.7,13.8h7C680.2,196.2,669.7,185.7,669.3,185.3z"/>
				<path d="M206.3,200.5c-2.4,0-4.1,0-6,0c0-6.3,0-12.4,0-19c18,0,36.1,0,53.7,0c3.1-2.6,3.5-4.9,0.5-7.4c-17.7,0-35.7,0-54.1,0
					c-0.1-2-0.2-3.9-0.3-6c18.8,0,37.3,0,55.5,0c4.3,1.7,7.2,4.5,8.5,9.2c-0.9,4.4-3.5,7.8-9.6,9.8c-14.9,0-31.4,0-48.2,0
					C206.3,191.6,206.3,195.7,206.3,200.5z"/>
			</g>
			<path d="M626.8,200.5c-2.4,0-4.1,0-6,0c0-6.3,0-12.4,0-19c18,0,36.1,0,53.7,0c3.1-2.6,3.5-4.9,0.5-7.4c-17.7,0-35.7,0-54.1,0
				c-0.1-2-0.2-3.9-0.3-6c18.8,0,37.3,0,55.5,0c4.3,1.7,7.2,4.5,8.5,9.2c-0.9,4.4-3.5,7.8-9.6,9.8c-14.9,0-31.4,0-48.2,0
				C626.8,191.6,626.8,195.7,626.8,200.5z"/>
			<polygon points="456.8,169.8 455.1,168.4 451.2,168.4 451.2,200.5 456.9,200.5 			"/>
			<polyline points="462.9,175.1 482.9,192.5 482.9,199.3 462.9,182.2 			"/>
			<polyline points="514.6,200.5 514.6,168.4 510.8,168.4 482.9,192.5 482.9,199.3 509,176.8 509,200.5 			"/>
			<rect x="283.5" y="168.3" width="5.8" height="32.1"/>
			<rect x="339.9" y="168.1" width="5.5" height="32.4"/>
			<rect x="289.3" y="181.2" width="43.7" height="6.5"/>
			<g>
				<path d="M703.7,173.8h62.1v-5.5l-69.7,0.1C699.8,169.4,702.6,171,703.7,173.8z"/>
				<rect x="703.7" y="181.7" width="59.3" height="5.7"/>
				<rect x="703.7" y="196.5" width="62.1" height="3.9"/>
			</g>
			<g>
				<path d="M536.1,173.8h62.1v-5.5l-69.7,0.1C532.2,169.4,534.9,171,536.1,173.8z"/>
				<rect x="536.1" y="181.7" width="59.3" height="5.7"/>
				<rect x="536.1" y="196.6" width="62.1" height="3.9"/>
			</g>
			<g>
				<path d="M368.1,173.8h62.1v-5.5l-69.7,0.1C364.2,169.4,367,171,368.1,173.8z"/>
				<rect x="368.1" y="181.7" width="59.3" height="5.7"/>
				<rect x="368.1" y="196.5" width="62.1" height="3.9"/>
			</g>
			<g>
				<path d="M117.1,173.7h62.1v-5.5l-69.7,0.1C113.1,169.3,115.9,170.9,117.1,173.7z"/>
				<rect x="117.1" y="181.6" width="59.3" height="5.7"/>
				<rect x="117" y="196.5" width="62.1" height="3.9"/>
			</g>
		</g>
	</g>
</g>
<g id="Calque_5" class="st0">
	<rect x="372.2" y="64.1" class="st6" width="157.4" height="47.1"/>
	<text transform="matrix(1 0 0 1 372.2296 90.0385)" class="st7 st4 st8">Art  </text>
	<linearGradient id="SVGID_1_" gradientUnits="userSpaceOnUse" x1="451.4331" y1="52.9986" x2="451.4331" y2="50.424">
		<stop  offset="0" style="stop-color:#E9A900"/>
		<stop  offset="1" style="stop-color:#FFDC2A"/>
		<stop  offset="1" style="stop-color:#000000"/>
	</linearGradient>
	<path class="st9" d="M262.4,50.5c0,0.5,0,0.9,0,1.4c126.1,0,252.1,0,378.2,0c0-0.5,0-0.9,0-1.4C514.5,50.5,388.4,50.5,262.4,50.5z"
		/>
	
		<linearGradient id="SVGID_00000085218201248826034890000001741621740016854916_" gradientUnits="userSpaceOnUse" x1="329.1105" y1="34.9205" x2="329.4345" y2="13.9325">
		<stop  offset="0" style="stop-color:#E9A900"/>
		<stop  offset="1" style="stop-color:#FFEF26"/>
	</linearGradient>
	<path style="display:inline;fill:url(#SVGID_00000085218201248826034890000001741621740016854916_);" d="M342.5,18.5
		c1.8,1.5,1.5,2.8-0.3,4.3c-10.2,0-20.8,0-31.3,0c0,3.9,0,7.4,0,11.1c1.1,0,2.1,0,3.5,0c0-2.8,0-5.2,0-7.7c9.8,0,19.4,0,28.1,0
		c3.6-1.2,5-3.2,5.6-5.7c-0.7-2.8-2.5-4.4-4.9-5.4c-10.6,0-21.4,0-32.4,0c0.1,1.2,0.1,2.3,0.2,3.5C321.7,18.5,332.1,18.5,342.5,18.5
		z"/>
	
		<linearGradient id="SVGID_00000025404922618615050700000014049867367055969698_" gradientUnits="userSpaceOnUse" x1="574.4115" y1="34.6356" x2="574.5573" y2="14.3547">
		<stop  offset="0" style="stop-color:#E9A900"/>
		<stop  offset="1" style="stop-color:#FFDC2A"/>
		<stop  offset="1" style="stop-color:#000000"/>
	</linearGradient>
	<path style="display:inline;fill:url(#SVGID_00000025404922618615050700000014049867367055969698_);" d="M587.6,18.5
		c1.8,1.5,1.5,2.8-0.3,4.3c-10.2,0-20.8,0-31.3,0c0,3.9,0,7.4,0,11.1c1.1,0,2.1,0,3.5,0c0-2.8,0-5.2,0-7.7c7.5,0,14.9,0,21.9,0
		c1.3,1.3,5.6,5.6,7.6,7.7h4.1c-1.9-1.9-5.8-5.8-7.7-7.7c0.7,0,1.4,0,2.1,0c3.6-1.2,5-3.2,5.6-5.7c-0.7-2.8-2.5-4.4-4.9-5.4
		c-10.6,0-21.4,0-32.4,0c0.1,1.2,0.1,2.3,0.2,3.5C566.8,18.5,577.3,18.5,587.6,18.5z"/>
	
		<linearGradient id="SVGID_00000076567773249573343560000005661528738311004576_" gradientUnits="userSpaceOnUse" x1="458.7955" y1="34.4178" x2="458.7955" y2="14.2826">
		<stop  offset="0" style="stop-color:#E9A900"/>
		<stop  offset="1" style="stop-color:#FFDC2A"/>
		<stop  offset="1" style="stop-color:#000000"/>
	</linearGradient>
	<polygon style="display:inline;fill:url(#SVGID_00000076567773249573343560000005661528738311004576_);" points="460.4,16 
		459.4,15.1 457.2,15.1 457.2,33.8 460.4,33.8 	"/>
	
		<linearGradient id="SVGID_00000098199187805143487350000010579831938060035739_" gradientUnits="userSpaceOnUse" x1="478.9259" y1="34.5479" x2="479.1688" y2="13.7812">
		<stop  offset="0" style="stop-color:#E9A900"/>
		<stop  offset="1" style="stop-color:#FFDC2A"/>
		<stop  offset="1" style="stop-color:#000000"/>
	</linearGradient>
	<path style="display:inline;fill:url(#SVGID_00000098199187805143487350000010579831938060035739_);" d="M491.9,15.1l-16.3,14.1
		c0,0,0,0,0,0l-11.7-10.1v4.1l11.7,10v0l0,0c5.1-4.4,10.1-8.7,15.2-13.1v13.8h3.3V15.1H491.9z"/>
	
		<linearGradient id="SVGID_00000000922797545862073070000016535841852880918174_" gradientUnits="userSpaceOnUse" x1="373.7786" y1="34.9266" x2="373.8" y2="13.9389">
		<stop  offset="0" style="stop-color:#E9A900"/>
		<stop  offset="1" style="stop-color:#FFEF26"/>
	</linearGradient>
	<polygon style="display:inline;fill:url(#SVGID_00000000922797545862073070000016535841852880918174_);" points="362.7,26.4 
		388.2,26.4 388.2,22.6 362.7,22.6 362.7,15.1 359.4,15.1 359.4,33.8 362.7,33.8 	"/>
	
		<linearGradient id="SVGID_00000094581600023650734780000016555555197327965325_" gradientUnits="userSpaceOnUse" x1="393.7498" y1="34.3921" x2="393.9278" y2="14.2238">
		<stop  offset="0" style="stop-color:#E9A900"/>
		<stop  offset="1" style="stop-color:#FFDC2A"/>
		<stop  offset="1" style="stop-color:#000000"/>
	</linearGradient>
	
		<rect x="392.2" y="15" style="display:inline;fill:url(#SVGID_00000094581600023650734780000016555555197327965325_);" width="3.2" height="18.9"/>
	
		<linearGradient id="SVGID_00000048502870824955362430000017140607424372658309_" gradientUnits="userSpaceOnUse" x1="620.1378" y1="35.2154" x2="620.2107" y2="13.4285">
		<stop  offset="0" style="stop-color:#E9A900"/>
		<stop  offset="1" style="stop-color:#FFDC2A"/>
		<stop  offset="1" style="stop-color:#000000"/>
	</linearGradient>
	<path style="display:inline;fill:url(#SVGID_00000048502870824955362430000017140607424372658309_);" d="M604.3,18.3h36.2v-3.2
		l-40.6,0.1C602,15.7,603.7,16.7,604.3,18.3z"/>
	
		<linearGradient id="SVGID_00000101070289575951523460000008745452919336237222_" gradientUnits="userSpaceOnUse" x1="621.5516" y1="35.2059" x2="621.6487" y2="14.0749">
		<stop  offset="0" style="stop-color:#E9A900"/>
		<stop  offset="1" style="stop-color:#FFDC2A"/>
		<stop  offset="1" style="stop-color:#000000"/>
	</linearGradient>
	
		<rect x="604.3" y="22.9" style="display:inline;fill:url(#SVGID_00000101070289575951523460000008745452919336237222_);" width="34.6" height="3.3"/>
	
		<linearGradient id="SVGID_00000115508803591654598870000004736017555972552098_" gradientUnits="userSpaceOnUse" x1="622.4007" y1="35.0121" x2="622.5222" y2="13.9053">
		<stop  offset="0" style="stop-color:#E9A900"/>
		<stop  offset="1" style="stop-color:#FFDC2A"/>
		<stop  offset="1" style="stop-color:#000000"/>
	</linearGradient>
	
		<rect x="604.3" y="31.5" style="display:inline;fill:url(#SVGID_00000115508803591654598870000004736017555972552098_);" width="36.2" height="2.3"/>
	
		<linearGradient id="SVGID_00000063601087732701416890000000915221288959806852_" gradientUnits="userSpaceOnUse" x1="522.4219" y1="34.877" x2="522.4948" y2="14.1588">
		<stop  offset="0" style="stop-color:#E9A900"/>
		<stop  offset="1" style="stop-color:#FFDC2A"/>
		<stop  offset="1" style="stop-color:#000000"/>
	</linearGradient>
	<path style="display:inline;fill:url(#SVGID_00000063601087732701416890000000915221288959806852_);" d="M506.6,18.3h36.2v-3.2
		l-40.6,0.1C504.3,15.7,505.9,16.7,506.6,18.3z"/>
	
		<linearGradient id="SVGID_00000052807738688090504950000010544214836512095398_" gradientUnits="userSpaceOnUse" x1="523.8986" y1="35.0965" x2="523.8743" y2="13.9655">
		<stop  offset="0" style="stop-color:#E9A900"/>
		<stop  offset="1" style="stop-color:#FFDC2A"/>
		<stop  offset="1" style="stop-color:#000000"/>
	</linearGradient>
	
		<rect x="506.6" y="22.9" style="display:inline;fill:url(#SVGID_00000052807738688090504950000010544214836512095398_);" width="34.6" height="3.3"/>
	
		<linearGradient id="SVGID_00000058566630937185054970000012453291743024308910_" gradientUnits="userSpaceOnUse" x1="524.6924" y1="34.9309" x2="524.7653" y2="13.7027">
		<stop  offset="0" style="stop-color:#E9A900"/>
		<stop  offset="1" style="stop-color:#FFDC2A"/>
		<stop  offset="1" style="stop-color:#000000"/>
	</linearGradient>
	
		<rect x="506.6" y="31.6" style="display:inline;fill:url(#SVGID_00000058566630937185054970000012453291743024308910_);" width="36.2" height="2.3"/>
	
		<linearGradient id="SVGID_00000057841553245824781190000011556703649315523202_" gradientUnits="userSpaceOnUse" x1="424.5446" y1="34.4588" x2="424.5688" y2="13.6435">
		<stop  offset="0" style="stop-color:#E9A900"/>
		<stop  offset="1" style="stop-color:#FFDC2A"/>
		<stop  offset="1" style="stop-color:#000000"/>
	</linearGradient>
	<path style="display:inline;fill:url(#SVGID_00000057841553245824781190000011556703649315523202_);" d="M408.7,18.3h36.2v-3.2
		l-40.6,0.1C406.4,15.7,408,16.7,408.7,18.3z"/>
	
		<linearGradient id="SVGID_00000062910037222240272200000002013064144506714758_" gradientUnits="userSpaceOnUse" x1="426.097" y1="34.8481" x2="425.8299" y2="13.8628">
		<stop  offset="0" style="stop-color:#E9A900"/>
		<stop  offset="1" style="stop-color:#FFDC2A"/>
		<stop  offset="1" style="stop-color:#000000"/>
	</linearGradient>
	
		<rect x="408.7" y="22.9" style="display:inline;fill:url(#SVGID_00000062910037222240272200000002013064144506714758_);" width="34.6" height="3.3"/>
	
		<linearGradient id="SVGID_00000161589881665983581320000002586435273369962156_" gradientUnits="userSpaceOnUse" x1="426.7372" y1="35.0265" x2="427.1259" y2="13.5797">
		<stop  offset="0" style="stop-color:#E9A900"/>
		<stop  offset="1" style="stop-color:#FFDC2A"/>
		<stop  offset="1" style="stop-color:#000000"/>
	</linearGradient>
	
		<rect x="408.7" y="31.5" style="display:inline;fill:url(#SVGID_00000161589881665983581320000002586435273369962156_);" width="36.2" height="2.3"/>
	<g class="st2">
		
			<linearGradient id="SVGID_00000010286010950906356020000003131888150307567790_" gradientUnits="userSpaceOnUse" x1="277.9222" y1="35.0352" x2="278.2857" y2="13.4987">
			<stop  offset="0" style="stop-color:#E9A900"/>
			<stop  offset="1" style="stop-color:#FFEF26"/>
		</linearGradient>
		<path style="fill:url(#SVGID_00000010286010950906356020000003131888150307567790_);" d="M298.5,18.2V15l-40.6,0.1
			c2.2,0.6,3.8,1.5,4.4,3.1H298.5z"/>
		
			<linearGradient id="SVGID_00000137853968520133585520000004784402661252960642_" gradientUnits="userSpaceOnUse" x1="279.5182" y1="35.0213" x2="279.7505" y2="13.7574">
			<stop  offset="0" style="stop-color:#E9A900"/>
			<stop  offset="1" style="stop-color:#FFEF26"/>
		</linearGradient>
		
			<rect x="262.4" y="22.9" style="fill:url(#SVGID_00000137853968520133585520000004784402661252960642_);" width="34.6" height="3.3"/>
		
			<linearGradient id="SVGID_00000067213849702729085510000008720628545115815052_" gradientUnits="userSpaceOnUse" x1="280.4091" y1="35.0701" x2="280.7386" y2="13.7532">
			<stop  offset="0" style="stop-color:#E9A900"/>
			<stop  offset="1" style="stop-color:#FFEF26"/>
		</linearGradient>
		
			<rect x="262.3" y="31.5" style="fill:url(#SVGID_00000067213849702729085510000008720628545115815052_);" width="36.2" height="2.3"/>
	</g>
</g>
<g id="Calque_8">
	<path class="st28" d="M312.6,482.1c1.8,1.5,1.5,2.8-0.3,4.3c-10.2,0-20.8,0-31.3,0c0,3.9,0,7.4,0,11.1c1.1,0,2.1,0,3.5,0
		c0-2.8,0-5.2,0-7.7c9.8,0,19.4,0,28.1,0c3.6-1.2,5-3.2,5.6-5.7c-0.7-2.8-2.5-4.4-4.9-5.4c-10.6,0-21.4,0-32.4,0
		c0.1,1.2,0.1,2.3,0.2,3.5C291.8,482.1,302.2,482.1,312.6,482.1z"/>
	<path class="st28" d="M557.7,482.1c1.8,1.5,1.5,2.8-0.3,4.3c-10.2,0-20.8,0-31.3,0c0,3.9,0,7.4,0,11.1c1.1,0,2.1,0,3.5,0
		c0-2.8,0-5.2,0-7.7c7.5,0,14.9,0,21.9,0c1.3,1.3,5.6,5.6,7.6,7.7h4.1c-1.9-1.9-5.8-5.8-7.7-7.7c0.7,0,1.4,0,2.1,0
		c3.6-1.2,5-3.2,5.6-5.7c-0.7-2.8-2.5-4.4-4.9-5.4c-10.6,0-21.4,0-32.4,0c0.1,1.2,0.1,2.3,0.2,3.5
		C536.9,482.1,547.4,482.1,557.7,482.1z"/>
	<polygon class="st28" points="430.5,479.6 429.5,478.7 427.3,478.7 427.3,497.4 430.5,497.4 	"/>
	<path class="st28" d="M462,478.7l-16.3,14.1c0,0,0,0,0,0L434,482.7v4.1l11.7,10v0l0,0c5.1-4.4,10.1-8.7,15.2-13.1v13.8h3.3v-18.7
		H462z"/>
	<polygon class="st28" points="332.8,490 358.3,490 358.3,486.2 332.8,486.2 332.8,478.7 329.5,478.7 329.5,497.4 332.8,497.4 	"/>
	<rect x="362.3" y="478.6" class="st28" width="3.2" height="18.9"/>
	<g>
		<path class="st28" d="M574.4,481.9h36.2v-3.2l-40.6,0.1C572.1,479.3,573.8,480.3,574.4,481.9z"/>
		<rect x="574.4" y="486.5" class="st28" width="34.6" height="3.3"/>
		<rect x="574.4" y="495.1" class="st28" width="36.2" height="2.3"/>
	</g>
	<g>
		<path class="st28" d="M476.7,481.9h36.2v-3.2l-40.6,0.1C474.4,479.3,476,480.3,476.7,481.9z"/>
		<rect x="476.7" y="486.5" class="st28" width="34.6" height="3.3"/>
		<rect x="476.7" y="495.2" class="st28" width="36.2" height="2.3"/>
	</g>
	<g>
		<path class="st28" d="M378.8,481.9H415v-3.2l-40.6,0.1C376.5,479.3,378.1,480.3,378.8,481.9z"/>
		<rect x="378.8" y="486.5" class="st28" width="34.6" height="3.3"/>
		<rect x="378.8" y="495.1" class="st28" width="36.2" height="2.3"/>
	</g>
	<g>
		<path class="st28" d="M268.6,481.9v-3.2l-40.6,0.1c2.2,0.6,3.8,1.5,4.4,3.1H268.6z"/>
		<rect x="232.5" y="486.5" class="st28" width="34.6" height="3.3"/>
		<rect x="232.4" y="495.1" class="st28" width="36.2" height="2.3"/>
	</g>
</g>
<g id="Calque_11">
	<g>
		<path class="st28" d="M348.7,526.6h-9.1l-0.4,0.6c-0.4,0.6-1.3,2-1.3,2.6c0,0.5,0.1,1,1.7,1c0.3,0,0.4,0.1,0.4,0.2
			c0,0.1,0,0.2-0.4,0.2c-1,0-2,0-3,0c-1,0-2,0-3,0c-0.3,0-0.4-0.1-0.4-0.2c0,0,0-0.2,0.4-0.2c1.8,0,2.8-1.2,4.5-3.9l5.5-8.5
			c-0.4-0.5-1.1-0.8-2.1-0.8c-0.2,0-0.4-0.1-0.4-0.2c0-0.1,0.1-0.1,0.3-0.1h2.3c1.5,0,1.8,0.1,2.7,1.6l5.9,9.3
			c1,1.5,1.9,2.6,3.3,2.6c0.3,0,0.4,0.1,0.4,0.2c0,0.1-0.1,0.2-0.4,0.2c-1.1,0-2,0-3.1,0c-1.1,0-2.2,0-3.3,0c-0.3,0-0.4-0.1-0.4-0.2
			c0-0.1,0.1-0.2,0.4-0.2c0.9,0,1.3-0.4,1.3-0.8s-0.4-1.2-0.9-1.9L348.7,526.6z M340.1,525.7h7.9l-3.9-6.3L340.1,525.7z"/>
		<path class="st28" d="M359.5,522.5c0-1.3-0.6-2.2-2-2.2c-0.3,0-0.4-0.1-0.4-0.2s0.1-0.2,0.3-0.2c0.9,0,2,0,3.1,0
			c1.3,0,2.4,0,3.1,0h1.6c2.8,0,5.9,0.5,5.9,3.2c0,2-1.7,2.9-3.6,3.2c0.4,0.1,1,0.9,1.4,1.5c1.5,2.1,2.7,3.1,3.8,3.1
			c0.4,0,0.5,0,0.8,0c0.3,0,0.4,0.2,0,0.3c-0.4,0.1-1.1,0.1-1.6,0.1c-2.8,0-3.3-0.2-5.3-3.1c-1.2-1.8-1.4-1.8-2.5-1.8h-2.3
			c-0.1,0-0.1,0-0.1,0.2v1.9c0,0.8,0.1,1.2,0.2,1.5c0.4,0.7,1.3,0.8,1.7,0.8c0.3,0,0.5,0,0.5,0.2c0,0.1-0.1,0.2-0.4,0.2
			c-1.1,0-2.2,0-3.1,0c-0.9,0-1.9,0-3.1,0c-0.3,0-0.4,0-0.4-0.2c0-0.1,0.2-0.2,0.5-0.2c0.7,0,1.4-0.2,1.7-0.8
			c0.1-0.3,0.2-0.7,0.2-1.5V522.5z M365,525.7c2.2,0,3.6-0.6,3.6-2.5s-1.4-2.5-3.6-2.5h-1.4c-1.9,0-2,0.1-2,1.7v3.1
			c0,0.2,0,0.2,0.1,0.2H365z"/>
		<path class="st28" d="M380.5,520.9h-2.6c-2,0-2.3,0.6-2.8,2.2c-0.1,0.2-0.4,0.2-0.4-0.1l0.4-2.9c0-0.2,0-0.3,0.2-0.3
			c0.1,0,0.3,0.2,1.3,0.2h10c1.1,0,1.2-0.2,1.4-0.2c0.1,0,0.2,0.1,0.2,0.3l0.3,2.9c0,0.3-0.2,0.3-0.3,0.1c-0.6-1.6-0.8-2.2-2.8-2.2
			h-2.6v7.7c0,0.8,0.1,1.2,0.2,1.5c0.3,0.6,1.2,0.8,1.7,0.8c0.3,0,0.5,0,0.5,0.2c0,0.1-0.2,0.2-0.4,0.2c-1,0-2,0-3,0s-2.1,0-3.2,0
			c-0.3,0-0.4,0-0.4-0.2c0-0.1,0.2-0.2,0.5-0.2c0.5,0,1.4-0.2,1.7-0.8c0.1-0.3,0.2-0.7,0.2-1.5V520.9z"/>
		<path class="st28" d="M410.4,531.2c-0.9,0-2,0-2.9,0c-1.1,0-2,0-3,0c-0.4,0-0.5,0-0.5-0.2c0-0.1,0.1-0.2,0.5-0.2
			c0.6,0,1.5-0.3,1.8-0.8c0.1-0.2,0.2-0.6,0.2-1.1V520c0-0.8,0-1.2-0.2-1.5c-0.3-0.6-1.3-0.8-1.8-0.8c-0.4,0-0.5,0-0.5-0.2
			c0-0.1,0.1-0.1,0.5-0.1c1.9,0,2,0,3.1,0c1,0,2,0,3,0h3.8c4.7,0,9.7,1.7,9.7,6.8c0,5-4.7,7.1-9.7,7.1H410.4z M414.2,530.5
			c4.1,0,6.9-2,6.9-6.3c0-4.4-3-6.1-6.9-6.1h-4.4c-0.9,0-1,0.2-1,1v8.9c0,2.1,0.1,2.4,3,2.5H414.2z"/>
		<path class="st28" d="M433.2,531.2c-1.1,0-1.8,0-2.9,0c-1,0-2,0-3,0c-0.2,0-0.3-0.1-0.3-0.2c0-0.1,0.1-0.2,0.3-0.2
			c1.4,0,2-0.9,2-2.2v-6.1c0-1.3-0.5-2.2-2-2.2c-0.2,0-0.3-0.1-0.3-0.2c0-0.1,0.1-0.2,0.3-0.2c1,0,2,0,3,0c1.1,0,1.8,0,2.7,0h4.8
			c1.4,0,1.4-0.2,1.7-0.2c0.1,0,0.2,0.1,0.2,0.2l-0.3,2.8c0,0.3-0.3,0.2-0.3,0c0-1.8-1.4-1.9-3.7-1.9H433c-1.4,0-1.6,0.2-1.6,1.7
			v2.4c0,0.1,0,0.2,0.2,0.2h3.5c1.1,0,1.8-0.5,1.8-1.5c0-0.4,0.3-0.4,0.3,0c0,0.6,0,1.3,0,1.9c0,0.6,0,1.3,0,1.9
			c0,0.3-0.3,0.3-0.3,0c0-1-0.7-1.5-1.8-1.5h-3.5c-0.1,0-0.2,0.1-0.2,0.2v2.3c0,1.8,0.3,2,3.5,2c2.5,0,4.4-0.6,5.2-2.8
			c0.1-0.3,0.4-0.2,0.3,0.1l-0.9,2.7c-0.2,0.7-0.4,0.9-1.3,0.9H433.2z"/>
		<path class="st28" d="M455.4,523.4c0,0.1,0,0.3-0.1,0.3c-0.1,0-0.2-0.1-0.2-0.2c-0.5-2.2-2.9-2.9-5.3-2.9c-2.1,0-4.3,0.5-4.3,1.8
			c0,3.1,10.6,0.1,10.6,5.4c0,2.6-2.6,3.6-6.4,3.6c-3,0-4.1-0.5-5.1-0.8c-0.5-0.2-0.3,0.2-0.5,0.2s-0.3-0.2-0.4-0.7l-0.5-2.9
			c0-0.2,0-0.4,0.1-0.4c0.1,0,0.2,0.1,0.2,0.3c0.8,2.8,3.6,3.4,6.1,3.4c2.5,0,4.8-0.5,4.8-2.2c0-3.7-10.7-0.3-10.7-5.3
			c0-2.6,3-3.3,6-3.3c2.2,0,3.6,0.5,4.3,0.7c0.5,0.2,0.3-0.2,0.5-0.2c0.1,0,0.2,0.1,0.3,0.8L455.4,523.4z"/>
		<path class="st28" d="M461.6,522.7c0-0.8-0.1-1.2-0.2-1.5c-0.3-0.6-1.1-0.8-1.7-0.8c-0.3,0-0.5,0-0.5-0.2c0-0.1,0.2-0.2,0.5-0.2
			c1.1,0,2,0,3.1,0c1,0,2,0,3.1,0c0.3,0,0.5,0,0.5,0.2c0,0.2-0.2,0.2-0.5,0.2c-0.5,0-1.4,0.3-1.7,0.8c-0.2,0.3-0.2,0.7-0.2,1.5v5.9
			c0,0.8,0.1,1.2,0.2,1.5c0.3,0.6,1.2,0.8,1.7,0.8c0.3,0,0.5,0,0.5,0.2c0,0.1-0.2,0.2-0.5,0.2c-1.1,0-2.1,0-3.1,0c-1,0-2,0-3,0
			c-0.3,0-0.5,0-0.5-0.2c0-0.1,0.2-0.2,0.5-0.2c0.5,0,1.4-0.2,1.7-0.8c0.2-0.3,0.2-0.7,0.2-1.5V522.7z"/>
		<path class="st28" d="M483.6,529.8c0,1.2-4,1.7-6.2,1.7c-4.2,0-8.7-1.7-8.7-5.9c0-4.1,4.5-5.9,8.6-5.9c2.1,0,3.6,0.5,4.4,0.8
			c0.5,0.2,0.8,0.3,1,0.3c0.5,0,0.3-0.5,0.6-0.5c0.2,0,0.2,0.1,0.2,0.4v3.2c0,0.3-0.3,0.3-0.3,0c-0.3-1-1.8-3.4-5.9-3.4
			c-3.3,0-6.1,1.6-6.1,5c0,3.5,2.9,5.1,6.1,5.1c1.1,0,4-0.2,4-1v-1.4c0-0.5-0.1-0.9-0.3-1.3c-0.3-0.4-0.8-0.5-1.6-0.5
			c-0.2,0-0.4,0-0.4-0.2c0-0.1,0.1-0.2,0.3-0.2c1,0,2.1,0.1,3.1,0.1s2.1-0.1,3.2-0.1c0.1,0,0.3,0,0.3,0.2c0,0.2-0.2,0.2-0.4,0.2
			c-0.7,0-1.2,0.2-1.5,0.5c-0.4,0.3-0.4,0.8-0.4,1.3V529.8z"/>
		<path class="st28" d="M491.2,522v6.9c0,1.2,0.3,2,1.9,2c0.2,0,0.4,0,0.4,0.2c0,0.1-0.1,0.2-0.3,0.2c-0.8,0-1.9,0-2.6,0
			c-0.8,0-1.8,0-2.6,0c-0.2,0-0.4,0-0.4-0.2c0-0.1,0.2-0.2,0.4-0.2c1.5,0,1.9-0.7,1.9-2v-7c0-0.9-0.6-1.6-1.9-1.6
			c-0.2,0-0.4,0-0.4-0.2c0-0.1,0.2-0.2,0.4-0.2h2.7c1.2,0,1.3,0,2,0.6l9.1,7.7v-6c0-1.2-0.3-2-1.9-2c-0.2,0-0.4,0-0.4-0.2
			c0-0.1,0.1-0.2,0.3-0.2c0.9,0,1.9,0,2.6,0c0.8,0,1.8,0,2.6,0c0.2,0,0.3,0,0.3,0.2c0,0.2-0.3,0.2-0.4,0.2c-1.5,0-1.9,0.7-1.9,2v8.2
			c0,0.8,0,1-0.2,1c-0.1,0-0.3,0-1-0.6L491.2,522z"/>
	</g>
</g>
<g id="Calque_10" class="st0">
</g>
<g id="Calque_7" class="st0">
</g>
<g id="Calque_12" class="st0">
</g>
<g id="Calque_9" class="st0">
	<path class="st7" d="M435.7,260.6"/>
</g>
<g id="Calque_4" class="st0">
	<g class="st2">
		<path d="M369.9,290.2c0,0.2,0,0.3,0,0.5c34.9,0,69.9,0,104.8,0c0-0.2,0-0.3,0-0.5C439.8,290.2,404.8,290.2,369.9,290.2z"/>
		<path d="M392.1,278.7c0.5,0.5,0.4,1-0.1,1.5c-2.8,0-5.8,0-8.7,0c0,1.4,0,2.7,0,4c0.3,0,0.6,0,1,0c0-1,0-1.9,0-2.8
			c2.7,0,5.4,0,7.8,0c1-0.4,1.4-1.1,1.5-2.1c-0.2-1-0.7-1.6-1.4-1.9c-2.9,0-5.9,0-9,0c0,0.4,0,0.8,0,1.2
			C386.3,278.7,389.2,278.7,392.1,278.7z"/>
		<path d="M460,278.7c0.5,0.5,0.4,1-0.1,1.5c-2.8,0-5.8,0-8.7,0c0,1.4,0,2.7,0,4c0.3,0,0.6,0,1,0c0-1,0-1.9,0-2.8c2.1,0,4.1,0,6.1,0
			c0.3,0.5,1.5,2,2.1,2.8h1.1c-0.5-0.7-1.6-2.1-2.1-2.8c0.2,0,0.4,0,0.6,0c1-0.4,1.4-1.1,1.5-2.1c-0.2-1-0.7-1.6-1.4-1.9
			c-2.9,0-5.9,0-9,0c0,0.4,0,0.8,0,1.2C454.3,278.7,457.2,278.7,460,278.7z"/>
		<polygon points="424.8,279.3 429,284 429,284 433.2,279.3 433.2,284.2 434.1,284.2 434.1,277.5 433.5,277.5 429,282.6 429,282.6 
			424.5,277.5 423.9,277.5 423.9,284.2 424.8,284.2 		"/>
		<polygon points="397.7,281.6 404.6,281.6 404.6,280.2 397.7,280.2 397.7,277.5 396.8,277.5 396.8,284.2 397.7,284.2 		"/>
		<rect x="405.9" y="277.4" width="0.9" height="6.8"/>
		<path d="M464.7,278.6h10v-1.2l-11.3,0C464,277.7,464.5,278,464.7,278.6z"/>
		<rect x="464.7" y="280.3" width="9.6" height="1.2"/>
		<rect x="464.7" y="283.4" width="10" height="0.8"/>
		<path d="M437.6,278.6h10v-1.2l-11.3,0C436.9,277.7,437.4,278.1,437.6,278.6z"/>
		<rect x="437.6" y="280.3" width="9.6" height="1.2"/>
		<rect x="437.6" y="283.4" width="10" height="0.8"/>
		<path d="M410.4,278.6h10v-1.2l-11.3,0C409.8,277.7,410.2,278,410.4,278.6z"/>
		<rect x="410.4" y="280.3" width="9.6" height="1.2"/>
		<rect x="410.4" y="283.4" width="10" height="0.8"/>
		<path d="M379.9,278.6v-1.2l-11.3,0c0.6,0.2,1,0.5,1.2,1.1H379.9z"/>
		<rect x="369.9" y="280.3" width="9.6" height="1.2"/>
		<rect x="369.9" y="283.4" width="10" height="0.8"/>
	</g>
</g>
<g id="Calque_13">
	
		<image style="display:none;overflow:visible;" width="4096" height="4096" xlink:href="logoV5.png"  transform="matrix(0.1191 0 0 0.1191 177.0108 -4.212)">
	</image>
	<g>
		<path class="st28" d="M413.2,352.5c-3.5-2.4-3.6-3.3-1-5.9c-0.2-0.6-0.8-0.6-1.2-1c-1.6-1.2-1.6-2.5-0.2-4
			c0.2-0.2,0.5-0.4,0.6-0.6c0-0.7-0.6-0.8-0.9-1c-0.7-0.5-1.2-1-1.6-1.7c-0.5-1.1-0.5-2.1,0.2-3.1c0.3-0.4,0.6-0.7,1-1.2
			c-0.4-0.3-0.7-0.6-1.1-0.9c-0.7-0.4-1.2-1-1.6-1.7c-0.5-1.1-0.5-2.1,0.2-3.2c0.3-0.4,0.6-0.7,1-1.2c-0.5-0.4-0.9-0.7-1.3-1
			c-0.7-0.5-1.2-1.1-1.5-1.8c-0.4-1.1-0.4-2.2,0.4-3.1c0.3-0.4,0.5-0.7,0.8-1.1c-0.1-0.2-0.1-0.3-0.2-0.3c-2.3-1.1-3-3.1-3.1-5.5
			c-0.1-3.6-0.2-7.1-0.3-10.7c0-1.3-0.1-2.7-0.2-4.3c-0.7,0.8-0.8,1.5-1,2.2c-1.9,7.3-4.3,14.5-7.3,21.4c-4.2,9.6-9.8,18.5-15.9,27
			c-7.2,10-15.6,18.8-25.5,26.2c-3.9,2.9-7.8,5.8-11.7,8.6c-0.8,0.6-1.6,1.1-2.5,1.7c-0.2-0.7,0.3-0.9,0.6-1.1
			c3.5-2.8,6.9-5.6,10.4-8.4c7.6-6.1,14.7-12.9,20.7-20.6c5.8-7.3,10.5-15.3,14.9-23.5c6.6-12.3,11.1-25.3,13.8-38.9
			c0.4-1.9,0.7-3.9,1.1-5.8c0.2-0.8,0.1-1.5,0-2.3c-0.9-4.7-1.9-9.5-2.7-14.3c-1.3-7.4-2-15-1.6-22.5c0.3-5.2,1.2-10.4,2.5-15.5
			c1.4-5.5,3.3-10.9,5.3-16.3c0.4-1,0.6-1.9,0.3-3c-0.2-0.7,0-1.6,0.2-2.3c0.2-0.8,0.6-1.5,1-2.2c2.6-4.5,4.6-9.2,6.6-14
			c1.5-3.6,3-7.2,4.5-10.8c0.4-1,0.9-2,0.8-3.4c-0.4,0.1-0.7,0.2-0.9,0.3c-1.2,1.2-2,2.7-2.8,4.1c-2,3.5-4,7-6,10.6
			c-0.4,0.6-0.7,1.2-1.1,1.8c-2.3,3.5-5.7,4.7-9.7,3.9c-0.9-0.2-1.7-0.4-2.5-0.6c-2.4-0.6-4.7-0.3-6.8,1.1c-0.9,0.6-1.8,1.3-2.8,1.9
			c-0.9,0.6-1.8,1.3-2.8,1.8c-2.4,1.3-4.9,1.3-7.3-0.1c-1.1-0.6-2-1.5-3-2.3c-1.1-0.8-2.1-1.7-3.3-2.3c-1.8-0.9-2.9-0.6-4.1,1.1
			c-0.6,0.8-1,1.8-1.5,2.7c-0.7,1.3-1.4,2.7-2.2,4c-2,3.3-5.1,4.9-8.8,5.4c-1.1,0.1-2.2,0.1-3.3,0c-0.5,0-1-0.3-1.8-0.6
			c0.4-0.5,0.7-1,1-1.1c1-0.2,2-0.3,3-0.4c0.9-0.1,1.9,0,2.8-0.2c1.8-0.3,3-1.4,3.5-3.1c0.3-1,0.4-2,0.6-3c0.4-2.4,0.6-4.7,1-7.1
			c0.5-3,1.4-5.9,2.6-8.6c0.4-1,1-2,0.9-3.3c-0.9,0-1.6-0.1-2.4-0.1c-10.4,0.3-20.1-2.2-29.5-6.5c-12.8-5.9-24.3-13.7-34.6-23.3
			c-3.1-2.9-6-5.9-8.9-8.9c-1.4-1.4-2.5-3.1-3.6-4.7c-0.7-1-1.2-2.2-1.6-3.4c-0.6-1.9,0.1-3.2,1.8-4.2c1.3-0.7,2.6-1.1,4.1-1.3
			c2-0.3,4.1-0.6,6.2-0.6c9.7,0,19.4,0.1,29.1,0.2c4.8,0,9.5,0.2,14.3,0.3c4.9,0.1,9.8,0.3,14.8,0.5c2.1,0.1,4.1,0.4,6.2,0.7
			c3.6,0.5,7.1,0.5,10.6-0.7c7.6-2.5,15.4-2.9,23.3-2.1c2.1,0.2,4.3,0.5,6.4,0.7c0.4,0,0.7,0,1.1,0c0-0.7-0.5-0.7-0.8-0.9
			c-2.9-1.4-6.1-2.3-9.3-3c-7.4-1.6-14.7-3.3-21.9-5.5c-14.4-4.2-28-10.1-41-17.7c-10.3-6.1-20.7-12.1-31-18.2
			c-3.4-2-6.7-3.9-10.5-5.1c-3.6-1.1-7.4-2-11.2-2.3c-3.4-0.3-6.8-0.6-10.2-0.7c-3.2-0.1-6.5,0.1-9.8,0.2c-2.2,0.1-4.4,0.3-6.6,0.4
			c-2.8,0.1-5.5,0.2-8.3,0.3c-3.8,0.1-7.6,0.3-11.4,0.3c-4.4,0.1-8.9,0-13.3-0.4c-7.2-0.6-12.6-3.9-16.7-9.7
			c-1.2-1.7-2.2-3.5-3.1-5.3c-0.5-0.9-0.7-1.9-0.9-2.9c-0.2-1.4,0.5-2.5,1.8-3c0.7-0.3,1.5-0.5,2.3-0.6c2.7-0.3,5.4-0.1,8.1,0.2
			c6.8,0.8,13.5,2.1,20.2,3.3c10.3,1.8,20.6,3.7,31,5.4c5.3,0.8,10.7,1.2,16.1,1.7c6.8,0.6,13.6,0.9,20.5,0.8
			c6.9-0.1,13.8-0.4,20.7-0.6c5.2-0.2,10.3-0.2,15.5,0.2c5.1,0.4,10,1.7,14.8,3.5c5.5,2.1,10.7,4.8,15.8,7.7
			c10.4,5.9,20.3,12.5,29.9,19.5c3.7,2.6,7.3,5.4,11,8c1.7,1.2,3.4,2.3,5.2,3.4c0.5,0.3,1.1,0.5,1.8,0.8c0.1-0.7,0.1-1.1,0.1-1.6
			c0.1-1.7,0.7-3.1,1.8-4.3c1.4-1.6,3.1-3,5-4c1.1-0.6,2.3-1,3.6-1.1c0.3,0,0.6,0,1-0.1c4.5-0.5,8.2,1.1,11.4,4.2
			c1.6,1.6,2.8,3.5,2.7,5.9c0,0.2,0.1,0.5,0.1,0.7c0.9,0.1,1.5-0.4,2.2-0.8c1.8-1.2,3.6-2.3,5.3-3.6c5.2-3.7,10.4-7.6,15.6-11.3
			c8-5.7,16.3-11.1,24.9-15.9c5.8-3.2,11.6-6.2,17.9-8.4c4.8-1.7,9.6-2.7,14.7-2.9c4-0.1,8.1-0.2,12.1-0.1
			c6.7,0.1,13.5,0.5,20.2,0.6c9.5,0.2,18.9-0.4,28.3-1.2c8.5-0.8,16.8-2.2,25.2-3.7c9.8-1.7,19.7-3.6,29.5-5.3
			c4.2-0.7,8.5-1.3,12.8-1.2c1.3,0,2.5,0,3.7,0.5c1.7,0.7,2.4,2,2.1,3.8c-0.1,0.7-0.4,1.4-0.7,2c-1.9,3.9-4.2,7.4-7.5,10.3
			c-3.4,2.9-7.3,4.4-11.7,4.9c-4.8,0.6-9.5,0.5-14.3,0.4c-5.2-0.1-10.3-0.4-15.5-0.6c-5.6-0.2-11.3-0.3-16.9-0.5
			c-6-0.2-11.9,0.3-17.8,1.2c-5.5,0.8-10.7,2.7-15.6,5.6c-8,4.7-16,9.4-24,14.1c-6.8,4-13.7,8-20.8,11.6
			c-10.7,5.4-21.9,9.4-33.4,12.5c-5.9,1.6-11.9,2.9-17.8,4.3c-3,0.7-6,1.5-8.8,2.8c-0.5,0.2-1,0.3-1.4,1.1c0.5,0,0.8,0.1,1.2,0.1
			c2.4-0.3,4.9-0.6,7.3-0.8c5.6-0.5,11.3-0.4,16.8,0.7c1.9,0.4,3.9,0.9,5.7,1.5c3.2,1,6.4,1.2,9.7,0.7c5.6-0.8,11.2-1.1,16.9-1.2
			c13.7-0.3,27.5-0.5,41.2-0.7c2.5,0,5.1-0.1,7.6,0.1c2.4,0.2,4.7,0.5,7.1,1c0.9,0.2,1.8,0.6,2.6,1c1.6,0.9,2.2,2.3,1.7,4
			c-0.4,1.3-0.9,2.6-1.7,3.6c-1.6,2.2-3.2,4.4-5.1,6.3c-11.5,12.1-24.5,22.1-39.6,29.4c-5.7,2.7-11.5,5-17.7,6.3
			c-4.4,0.9-8.8,1.3-13.2,1.3c-1.1,0-2.2,0-3.5,0c0.1,0.6,0.1,1.1,0.2,1.5c0.2,0.6,0.4,1.2,0.7,1.8c1.9,4,2.7,8.3,3.3,12.6
			c0.2,1.4,0.3,2.8,0.5,4.3c0.4,3.3,1.7,5.2,5.8,5.2c1.3,0,2.5,0.1,3.8,0.3c0.6,0.1,1,0.4,1,1.2c-0.4,0.2-0.8,0.5-1.2,0.5
			c-2.6,0.3-5.1,0.1-7.5-1c-2-0.8-3.5-2.2-4.6-4c-0.9-1.5-1.7-3-2.6-4.6c-0.5-1-1.1-2-1.7-2.8c-0.9-1.2-2-1.5-3.4-0.9
			c-1.1,0.5-2.1,1.2-3,1.9c-1,0.7-1.8,1.5-2.8,2.3c-1,0.8-2.2,1.4-3.4,1.6c-1.7,0.3-3.3,0.1-4.8-0.8c-0.9-0.6-1.9-1.2-2.8-1.8
			c-1-0.7-2-1.4-3-2c-2-1.3-4.1-1.5-6.4-1c-0.8,0.2-1.5,0.4-2.3,0.6c-4.6,1-8.1-0.3-10.6-4.4c-2.2-3.5-4.1-7.2-6.2-10.7
			c-0.9-1.6-1.9-3.1-2.9-4.7c-0.3-0.4-0.6-1-1.4-0.7c0,0.3-0.1,0.6,0,0.9c0.3,1,0.6,2,1,2.9c2,4.9,4,9.8,6.2,14.7
			c1.3,3,2.8,5.8,4.3,8.8c0.5,1,1,2,1.3,3c0.2,0.7,0.4,1.6,0.1,2.3c-0.4,1,0,1.7,0.2,2.5c1.5,4.4,3.1,8.8,4.4,13.3
			c2.5,8.3,3.9,16.9,3.5,25.6c-0.2,5-0.7,10-1.6,14.9c-0.9,4.9-1.9,9.8-2.8,14.7c-0.2,0.9-0.3,1.7-0.1,2.6c1.9,10.1,4.2,20.1,8,29.6
			c6.6,16.5,15.4,31.7,27.3,45c4.9,5.5,10.4,10.3,16.1,14.9c2.8,2.2,5.6,4.5,8.4,6.7c0.8,0.7,1.7,1.4,2.3,2.3
			c-0.4-0.2-0.8-0.4-1.1-0.7c-7.5-5.2-14.9-10.6-21.7-16.7c-4.6-4.1-8.9-8.7-12.7-13.5c-7.6-9.7-14.4-20-19.6-31.2
			c-3.4-7.3-5.9-14.9-7.9-22.7c-0.2-0.7-0.4-1.3-0.9-2c-0.1,0.3-0.2,0.7-0.2,1c-0.1,3.2-0.2,6.3-0.3,9.5c-0.1,1.6-0.1,3.2-0.2,4.8
			c-0.2,2-0.8,3.7-2.9,4.6c-0.1,0.1-0.2,0.2-0.3,0.5c0.2,0.3,0.4,0.6,0.6,0.9c1.2,1.8,1,3.5-0.6,4.8c-0.5,0.4-1,0.7-1.6,1.1
			c0.3,0.4,0.6,0.8,0.9,1.2c1,1.5,0.9,3.2-0.5,4.5c-0.5,0.5-1.1,0.8-1.6,1.2c-0.1,0.7,0.4,0.9,0.6,1.3c1,1.5,0.9,3.2-0.5,4.5
			c-0.5,0.5-1.2,0.8-1.8,1.3c0.4,0.4,0.8,0.8,1.2,1.2c1,1.1,0.9,2.4-0.2,3.4c-0.5,0.4-1,0.7-1.6,1.2c0.4,0.4,0.8,0.8,1.2,1.2
			c1,1.2,0.9,2.4-0.2,3.4c-0.5,0.4-1,0.7-1.7,1.2c0.4,0.4,0.7,0.7,1,1c1.2,1.3,1.1,2.6-0.2,3.7c-0.4,0.4-0.9,0.6-1.5,1
			c0.4,0.4,0.7,0.7,1,1c1.2,1.3,1.1,2.5-0.2,3.7c-0.4,0.3-0.9,0.6-1.5,1c0.4,0.4,0.7,0.8,1.1,1.1c1.1,0.9,1,2.6-0.2,3.6
			c-0.4,0.3-0.9,0.6-1.5,1.1c0.4,0.4,0.7,0.8,1.1,1.2c1,1.2,0.9,2.6-0.3,3.6c-0.5,0.4-1.2,0.8-1.8,1.2c0.7,1.8,0.4,3.4-0.2,5.1
			c-0.5,1.3-0.6,2.8-0.9,4.2c-0.2,1.1-0.2,2.2-1.4,2.8c-0.2,0.1-0.3,0.5-0.3,0.8c-0.1,0.5-0.1,1.1-0.1,1.7
			c-0.2,7.1-0.4,14.3-0.5,21.4c-0.2,11.5-0.4,23-0.6,34.5c-0.1,3.3-0.3,6.7-0.4,10c-0.1,1.1-0.3,2.2-0.4,3.5
			c-0.8-0.5-0.8-1.1-0.9-1.6c-0.2-2.9-0.4-5.7-0.5-8.6c-0.2-11.5-0.4-23-0.6-34.5c-0.1-7-0.3-14-0.4-21c0-1.6-0.1-3.2-0.2-4.8
			c0-0.8-0.1-1.5-1-2c-0.3-0.2-0.5-0.8-0.6-1.2c-0.4-2.3-0.7-4.5-1.5-6.7c-0.5-1.2-0.2-2.5,0.3-3.7c-0.6-0.4-1.1-0.6-1.5-1
			c-1.6-1.1-1.7-2.6-0.4-4c0.2-0.2,0.5-0.4,0.6-0.6c0.1-0.7-0.5-0.8-0.8-1.1c-0.3-0.3-0.6-0.5-0.9-0.8c-0.7-0.9-0.8-1.9,0-2.8
			c0.3-0.4,0.8-0.8,1.1-1.1c0-0.8-0.7-0.8-1.1-1.2c-1.5-1.3-1.6-2.5-0.1-4c0.2-0.2,0.5-0.4,0.6-0.4c0-0.9-0.6-0.9-1-1.2
			c-1.7-1.4-1.9-2.6-0.3-4.1C412.3,352.9,412.7,352.8,413.2,352.5z M392.9,170.9c-1,0-1.8,0.4-2.6,0.7c-9.3,3.7-16.1,10.1-20.8,18.9
			c-0.1,0.2-0.2,0.4-0.3,0.7c-0.5,1.4-0.2,2.5,0.9,3.4c0.6,0.5,1.3,0.9,2,1.2c2.3,0.9,4.6,1.7,6.9,2.5c1.4,0.5,2.7,0.1,3.7-1
			c0.7-0.8,1.4-1.7,2-2.6c1-1.5,1.9-3.1,2.9-4.6c2.4-3.7,5.1-7,8.8-9.6c0.7-0.5,1.3-1.1,2.1-1.7c-1.4-1.1-2.7-1.9-3.4-3.4
			C394.3,173.9,393.6,172.4,392.9,170.9z M443.8,178.6c0.5,1,1.4,1.5,2.1,2.1c3.3,2.3,5.9,5.3,8.1,8.6c1.1,1.6,2,3.2,3.1,4.8
			c0.7,1,1.3,2,2.1,2.9c1.2,1.4,2.6,1.9,4.4,1.2c1.8-0.7,3.7-1.3,5.6-2c0.7-0.3,1.5-0.6,2.1-1.1c2.1-1.3,2.4-2.7,1.3-4.8
			c-4.2-7.9-10.4-13.9-18.5-17.8c-1.5-0.7-3-1.4-4.8-1.7c-0.2,0.4-0.5,0.8-0.7,1.2C447.6,174.8,446.4,177.2,443.8,178.6z"/>
		<path class="st28" d="M537.2,109.2c0.9,0.2,1.4,0.4,1.9,0.4c1.6,0.1,3.2,0.1,4.8,0.1c11.3-0.1,22.5-0.2,33.8-0.2
			c4.8,0,9.5-0.1,14.3,0.4c1.4,0.2,2.9,0.3,4.2,0.7c2.9,0.8,3.4,2.4,1.6,4.7c-0.5,0.7-1.1,1.3-1.8,1.9c-5.8,4.9-12.1,9-19.2,11.8
			c-4.5,1.7-9.2,2.3-14,2.4c-4.4,0.1-8.7,0.1-13.1,0c-11-0.2-21.9-0.1-32.9,0.1c-3.5,0.1-7,0-10.5,0c-1.7,0-3.3-0.3-5-0.5
			c-0.8-0.1-1.7-0.5-2.5-0.9c-1-0.5-1.3-1.4-0.9-2.4c0.4-0.9,0.9-1.9,1.6-2.6c1.1-1.2,2.2-2.3,3.5-3.3c2.5-2,5-3.9,7.5-5.8
			c7-5.3,14-10.5,20.9-15.7c5.5-4.1,11-8,17-11.4c3.7-2.1,7.6-3.9,11.8-5.1c2.8-0.8,5.7-1.2,8.7-1.4c7.2-0.3,14.4,0,21.7,0.2
			c3.3,0.1,6.7,0.2,10,0.3c6.1,0.1,12.2,0.4,18.3,1c2.5,0.3,5,0.6,7.5,1.4c0.8,0.3,1.6,0.7,2.3,1.2c1.2,0.9,1.5,2.1,1,3.4
			c-0.2,0.5-0.4,1-0.7,1.5c-0.2,0.4-0.5,0.8-0.8,1.2c-6.7,7.3-14.4,13-24.5,14.3c-3.3,0.4-6.6,0.7-9.9,0.9
			c-12.8,0.7-25.7,0.4-38.6,0.6c-4.4,0.1-8.7,0.2-13.1,0.3C540.5,108.5,539,108.6,537.2,109.2z"/>
		<path class="st28" d="M304.7,109.2c-1.3-0.5-2.6-0.7-4-0.7c-3.7-0.1-7.3-0.3-11-0.3c-7.9-0.1-15.7-0.1-23.6-0.2
			c-6.4-0.1-12.9-0.3-19.3-0.5c-3.6-0.1-7.1-0.5-10.6-1.2c-4.1-0.8-7.9-2.4-11.4-4.6c-3.6-2.3-6.9-5-9.9-8.2c-0.9-1-1.7-2.1-2.3-3.3
			c-0.9-1.8-0.5-3.2,1.3-4.2c1.1-0.6,2.3-1,3.5-1.3c3.5-0.9,7-1.2,10.6-1.4c12.7-0.7,25.4-0.9,38.1-1.1c3.6-0.1,7.1,0,10.7,0.5
			c4.3,0.6,8.3,1.9,12.2,3.8c3.9,1.8,7.6,4,11.1,6.4c2.8,1.9,5.7,3.8,8.4,5.9c8.8,6.6,17.5,13.1,26.3,19.8c1.9,1.4,3.8,2.9,5.5,4.5
			c1.1,0.9,2,2,2.9,3.1c0.4,0.5,0.6,1.1,0.8,1.7c0.3,0.9-0.1,1.8-1,2.2c-0.8,0.4-1.8,0.8-2.7,0.9c-1.7,0.3-3.5,0.5-5.2,0.5
			c-6.2,0-12.4-0.1-18.6-0.1c-5.7,0-11.4-0.1-17.1-0.1c-6.2,0-12.4,0.1-18.6,0.2c-3,0-6-0.3-9-0.7c-4-0.6-7.7-1.9-11.3-3.7
			c-4.7-2.4-9.1-5.2-13.2-8.5c-1.1-0.9-2.2-1.9-3.1-3c-2.1-2.5-1.5-4.1,1.7-4.9c1-0.3,2-0.5,3-0.5c3.1-0.2,6.2-0.5,9.3-0.5
			c12.6,0,25.2,0.1,37.9,0.2c2,0,4,0,6,0C303.1,109.6,304,109.8,304.7,109.2z"/>
		<path class="st28" d="M290.4,68.8c-5.9-0.3-13.9-0.5-21.8-1c-6.2-0.4-12.3-1.3-18.4-2.4c-10.3-1.9-20.6-3.7-30.9-5.6
			c-7-1.3-14.1-2.4-21-4.2c-1.5-0.4-3-0.9-4.5-1.4c-0.9-0.3-1.8-0.7-2.6-1.1c-6.1-3-9.3-7.1-9-15.3c0.1-3.5,1.9-5.8,5.3-6.8
			c1.3-0.4,2.6-0.6,4-0.7c4.5-0.4,9-0.1,13.5,0.4c7.3,0.7,14.5,1.8,21.6,3.3c8.2,1.7,16.4,3.5,24.6,5.4
			c19.7,4.6,38.8,10.7,57.4,18.6c2.8,1.2,5.5,2.4,8.2,3.7c1.1,0.5,2.2,1.2,3.3,1.9c0.7,0.4,1.3,0.9,1.8,1.5c1,1.1,0.8,2-0.7,2.5
			c-0.5,0.2-1.1,0.4-1.6,0.4c-1.7,0.2-3.3,0.4-5,0.5C307.3,68.5,299.8,68.7,290.4,68.8z"/>
		<path class="st28" d="M551.5,68.9c-9.2-0.2-16.8-0.3-24.4-0.5c-1.8,0-3.6-0.3-5.4-0.6c-0.8-0.1-1.9-0.3-2-1.4
			c-0.1-0.9,0.6-1.5,1.2-1.9c0.8-0.6,1.6-1.3,2.6-1.7c2.9-1.4,5.8-2.9,8.8-4.2c18.4-7.8,37.4-14,56.9-18.7
			c8.9-2.1,17.7-4.2,26.7-5.9c7.3-1.4,14.7-2.6,22.1-3.3c4.1-0.4,8.2-0.6,12.4-0.4c1.7,0.1,3.3,0.4,4.9,0.9c3,1,4.6,3.1,4.9,6.1
			c0.4,3.1-0.2,6.2-1.5,9.1c-0.9,2-2.4,3.5-4.2,4.8c-1.8,1.3-3.8,2.3-5.9,3c-4.2,1.5-8.5,2.5-12.9,3.3c-8.9,1.7-17.8,3.2-26.7,4.8
			c-6.3,1.1-12.6,2.3-19,3.5c-6.2,1.1-12.4,2-18.7,2.3C564.2,68.3,557.1,68.6,551.5,68.9z"/>
	</g>
</g>
</svg>
