<?xml version="1.0" encoding="utf-8"?>
<!-- Generator: Adobe Illustrator 27.0.0, SVG Export Plug-In . SVG Version: 6.00 Build 0)  -->
<svg version="1.1" id="Calque_1" xmlns="http://www.w3.org/2000/svg" xmlns:xlink="http://www.w3.org/1999/xlink" x="0px" y="0px"
	 viewBox="0 0 475.9 41.3" style="enable-background:new 0 0 475.9 41.3;" xml:space="preserve">
<style type="text/css">
	.st0{fill:#4A4A4A;}
	.st1{fill:url(#SVGID_1_);}
	.st2{fill:url(#SVGID_00000145031080454053006840000015397725058307302297_);}
	.st3{fill:url(#SVGID_00000183942966881406574840000015889021917668223620_);}
	.st4{fill:url(#SVGID_00000044900801652046813840000009731348478573978246_);}
	.st5{fill:url(#SVGID_00000104687910863946190850000007366813046002907324_);}
	.st6{fill:url(#SVGID_00000053518115091139619280000015058527561834492606_);}
	.st7{fill:url(#SVGID_00000054976071509155526900000013804308620107856810_);}
	.st8{fill:url(#SVGID_00000006691405991229687630000016721807431457644967_);}
	.st9{fill:url(#SVGID_00000041270567722157247430000001984504174138231472_);}
	.st10{fill:url(#SVGID_00000129180502751357820370000006052472166518041765_);}
	.st11{fill:url(#SVGID_00000096751502462002911040000015158209703437594500_);}
	.st12{fill:url(#SVGID_00000080188597706487190600000015598725659425970871_);}
	.st13{fill:url(#SVGID_00000152969624647528500960000012175500944927146659_);}
	.st14{fill:url(#SVGID_00000026158542359496617730000007543455627924620166_);}
	.st15{fill:url(#SVGID_00000084506323847803994820000014781766270428653752_);}
	.st16{fill:url(#SVGID_00000026875383682127418940000011836596768083511483_);}
</style>
<polygon class="st0" points="238.7,0 238.5,0 0.7,0 45.2,41.3 238.5,41.3 238.7,41.3 432.1,41.3 476.6,0 "/>
<g>
	<linearGradient id="SVGID_1_" gradientUnits="userSpaceOnUse" x1="123.5079" y1="26.7222" x2="123.5079" y2="14.1662">
		<stop  offset="0" style="stop-color:#592B11"/>
		<stop  offset="0.2266" style="stop-color:#BF8A49"/>
		<stop  offset="0.365" style="stop-color:#CF9F54"/>
		<stop  offset="0.4879" style="stop-color:#D9AD5B"/>
		<stop  offset="0.524" style="stop-color:#DBB160"/>
		<stop  offset="0.5692" style="stop-color:#E1BC70"/>
		<stop  offset="0.6195" style="stop-color:#EACD8A"/>
		<stop  offset="0.673" style="stop-color:#F7E6AD"/>
		<stop  offset="0.6949" style="stop-color:#FDF2BE"/>
		<stop  offset="0.8957" style="stop-color:#E4C27A"/>
		<stop  offset="1" style="stop-color:#D9AD5B"/>
	</linearGradient>
	<path class="st1" d="M131.7,23.2c-0.5,1.3-0.6,1.6-1.3,1.9c-1,0.4-2.8,0.6-5.4,0.6c-4.5,0-10.3-1.7-10.3-6.9
		c0-5.2,5.9-6.9,10.4-6.9c1.8,0,3.4,0.3,5.7,1c0.6,0.2,0.7-0.1,0.9-0.1c0.1,0,0.2,0.1,0.2,0.4v3.6c0,0.3-0.3,0.3-0.3,0
		c-0.7-3-3.3-4.2-6.5-4.2c-3.8,0-7.5,1.9-7.5,6.2s3.6,6.3,7.5,6.3c3.7,0,6.3-2.2,7.1-4.1c0.1-0.2,0.4-0.2,0.3,0.1L131.7,23.2z"/>
	
		<linearGradient id="SVGID_00000079478566870397941520000004305477279160148913_" gradientUnits="userSpaceOnUse" x1="144.1299" y1="26.7222" x2="144.1299" y2="14.1662">
		<stop  offset="0" style="stop-color:#592B11"/>
		<stop  offset="0.2266" style="stop-color:#BF8A49"/>
		<stop  offset="0.365" style="stop-color:#CF9F54"/>
		<stop  offset="0.4879" style="stop-color:#D9AD5B"/>
		<stop  offset="0.524" style="stop-color:#DBB160"/>
		<stop  offset="0.5692" style="stop-color:#E1BC70"/>
		<stop  offset="0.6195" style="stop-color:#EACD8A"/>
		<stop  offset="0.673" style="stop-color:#F7E6AD"/>
		<stop  offset="0.6949" style="stop-color:#FDF2BE"/>
		<stop  offset="0.8957" style="stop-color:#E4C27A"/>
		<stop  offset="1" style="stop-color:#D9AD5B"/>
	</linearGradient>
	<path style="fill:url(#SVGID_00000079478566870397941520000004305477279160148913_);" d="M148.8,20.4c0-0.1,0-0.2-0.2-0.2h-9.1
		c-0.1,0-0.1,0-0.1,0.1v2.5c0,0.8,0.1,1.2,0.2,1.5c0.3,0.6,1.1,0.8,1.7,0.8c0.3,0,0.5,0,0.5,0.2c0,0.1-0.1,0.1-0.4,0.1
		c-1,0-1.9,0-2.9,0c-1,0-2,0-3.1,0c-0.3,0-0.4,0-0.4-0.1c0-0.1,0.2-0.2,0.5-0.2c0.5,0,1.3-0.2,1.6-0.8c0.2-0.3,0.2-0.7,0.2-1.5v-5.6
		c0-0.8-0.1-1.2-0.2-1.4c-0.3-0.6-1.1-0.8-1.6-0.8c-0.3,0-0.5,0-0.5-0.2c0-0.1,0.2-0.2,0.4-0.2c1,0,1.9,0,2.9,0c1,0,2,0,3.1,0
		c0.3,0,0.4,0,0.4,0.2c0,0.1-0.2,0.2-0.5,0.2c-0.5,0-1.3,0.3-1.7,0.8c-0.1,0.3-0.2,0.7-0.2,1.4v2.1c0,0.1,0,0.1,0.1,0.1h9.1
		c0.1,0,0.2,0,0.2-0.1v-2.1c0-0.8-0.1-1.2-0.2-1.4c-0.3-0.6-1.1-0.8-1.7-0.8c-0.3,0-0.5,0-0.5-0.2c0-0.1,0.1-0.2,0.4-0.2
		c1,0,2,0,3,0c1,0,1.9,0,3,0c0.3,0,0.4,0,0.4,0.2c0,0.1-0.2,0.2-0.5,0.2c-0.5,0-1.3,0.3-1.7,0.8c-0.1,0.3-0.2,0.7-0.2,1.4v5.6
		c0,0.8,0.1,1.2,0.2,1.5c0.3,0.6,1.1,0.8,1.7,0.8c0.3,0,0.5,0,0.5,0.2c0,0.1-0.1,0.1-0.4,0.1c-1,0-2,0-3,0c-1,0-1.9,0-3,0
		c-0.3,0-0.4,0-0.4-0.1c0-0.1,0.2-0.2,0.5-0.2c0.5,0,1.3-0.2,1.7-0.8c0.1-0.3,0.2-0.7,0.2-1.5V20.4z"/>
	
		<linearGradient id="SVGID_00000172433983520302964400000008390915971573880507_" gradientUnits="userSpaceOnUse" x1="163.7861" y1="26.7222" x2="163.7861" y2="14.1662">
		<stop  offset="0" style="stop-color:#592B11"/>
		<stop  offset="0.2266" style="stop-color:#BF8A49"/>
		<stop  offset="0.365" style="stop-color:#CF9F54"/>
		<stop  offset="0.4879" style="stop-color:#D9AD5B"/>
		<stop  offset="0.524" style="stop-color:#DBB160"/>
		<stop  offset="0.5692" style="stop-color:#E1BC70"/>
		<stop  offset="0.6195" style="stop-color:#EACD8A"/>
		<stop  offset="0.673" style="stop-color:#F7E6AD"/>
		<stop  offset="0.6949" style="stop-color:#FDF2BE"/>
		<stop  offset="0.8957" style="stop-color:#E4C27A"/>
		<stop  offset="1" style="stop-color:#D9AD5B"/>
	</linearGradient>
	<path style="fill:url(#SVGID_00000172433983520302964400000008390915971573880507_);" d="M163.8,14.5c4.8,0,8.1,2.2,8.1,5.5
		c0,3-2.6,5.8-8.2,5.8c-4.8,0-8-2.2-8-5.5C155.7,17.2,158.3,14.5,163.8,14.5z M158.2,19.9c0,2.8,1.9,5.2,5.7,5.2
		c3.1,0,5.6-1.5,5.6-4.8c0-2.8-1.9-5.2-5.7-5.2C160.7,15.1,158.2,16.6,158.2,19.9z"/>
	
		<linearGradient id="SVGID_00000158727515787387678850000012272887503666212489_" gradientUnits="userSpaceOnUse" x1="182.9141" y1="26.7222" x2="182.9141" y2="14.1662">
		<stop  offset="0" style="stop-color:#592B11"/>
		<stop  offset="0.2266" style="stop-color:#BF8A49"/>
		<stop  offset="0.365" style="stop-color:#CF9F54"/>
		<stop  offset="0.4879" style="stop-color:#D9AD5B"/>
		<stop  offset="0.524" style="stop-color:#DBB160"/>
		<stop  offset="0.5692" style="stop-color:#E1BC70"/>
		<stop  offset="0.6195" style="stop-color:#EACD8A"/>
		<stop  offset="0.673" style="stop-color:#F7E6AD"/>
		<stop  offset="0.6949" style="stop-color:#FDF2BE"/>
		<stop  offset="0.8957" style="stop-color:#E4C27A"/>
		<stop  offset="1" style="stop-color:#D9AD5B"/>
	</linearGradient>
	<path style="fill:url(#SVGID_00000158727515787387678850000012272887503666212489_);" d="M182.9,14.5c4.8,0,8.1,2.2,8.1,5.5
		c0,3-2.6,5.8-8.2,5.8c-4.8,0-8-2.2-8-5.5C174.8,17.2,177.5,14.5,182.9,14.5z M177.3,19.9c0,2.8,1.9,5.2,5.7,5.2
		c3.1,0,5.6-1.5,5.6-4.8c0-2.8-1.9-5.2-5.7-5.2C179.8,15.1,177.3,16.6,177.3,19.9z"/>
	
		<linearGradient id="SVGID_00000124884164233716499930000015190389370117293190_" gradientUnits="userSpaceOnUse" x1="200.1034" y1="26.7222" x2="200.1034" y2="14.1662">
		<stop  offset="0" style="stop-color:#592B11"/>
		<stop  offset="0.2266" style="stop-color:#BF8A49"/>
		<stop  offset="0.365" style="stop-color:#CF9F54"/>
		<stop  offset="0.4879" style="stop-color:#D9AD5B"/>
		<stop  offset="0.524" style="stop-color:#DBB160"/>
		<stop  offset="0.5692" style="stop-color:#E1BC70"/>
		<stop  offset="0.6195" style="stop-color:#EACD8A"/>
		<stop  offset="0.673" style="stop-color:#F7E6AD"/>
		<stop  offset="0.6949" style="stop-color:#FDF2BE"/>
		<stop  offset="0.8957" style="stop-color:#E4C27A"/>
		<stop  offset="1" style="stop-color:#D9AD5B"/>
	</linearGradient>
	<path style="fill:url(#SVGID_00000124884164233716499930000015190389370117293190_);" d="M205.6,18c0,0.1,0,0.3-0.1,0.3
		c-0.1,0-0.2-0.1-0.2-0.2c-0.5-2.2-2.8-2.8-5.1-2.8c-2,0-4.1,0.4-4.1,1.8c0,3,10.2,0.1,10.2,5.2c0,2.5-2.5,3.5-6.2,3.5
		c-2.9,0-3.9-0.5-4.9-0.8c-0.4-0.2-0.3,0.2-0.5,0.2s-0.3-0.2-0.4-0.6l-0.5-2.8c0-0.2,0-0.3,0.1-0.4c0.1,0,0.2,0.1,0.2,0.3
		c0.8,2.7,3.5,3.3,5.9,3.3c2.4,0,4.6-0.4,4.6-2.2c0-3.6-10.2-0.3-10.2-5.1c0-2.5,2.9-3.2,5.7-3.2c2.1,0,3.4,0.4,4.2,0.7
		c0.4,0.2,0.3-0.2,0.5-0.2c0.1,0,0.1,0.1,0.3,0.7L205.6,18z"/>
	
		<linearGradient id="SVGID_00000119819927500788557410000018435204638503268277_" gradientUnits="userSpaceOnUse" x1="215.7834" y1="26.7222" x2="215.7834" y2="14.1662">
		<stop  offset="0" style="stop-color:#592B11"/>
		<stop  offset="0.2266" style="stop-color:#BF8A49"/>
		<stop  offset="0.365" style="stop-color:#CF9F54"/>
		<stop  offset="0.4879" style="stop-color:#D9AD5B"/>
		<stop  offset="0.524" style="stop-color:#DBB160"/>
		<stop  offset="0.5692" style="stop-color:#E1BC70"/>
		<stop  offset="0.6195" style="stop-color:#EACD8A"/>
		<stop  offset="0.673" style="stop-color:#F7E6AD"/>
		<stop  offset="0.6949" style="stop-color:#FDF2BE"/>
		<stop  offset="0.8957" style="stop-color:#E4C27A"/>
		<stop  offset="1" style="stop-color:#D9AD5B"/>
	</linearGradient>
	<path style="fill:url(#SVGID_00000119819927500788557410000018435204638503268277_);" d="M215.3,25.5c-1.1,0-1.8,0-2.8,0
		c-0.9,0-2,0-2.9,0c-0.2,0-0.3-0.1-0.3-0.1c0-0.1,0.1-0.2,0.3-0.2c1.4,0,1.9-0.9,1.9-2.2v-5.8c0-1.3-0.5-2.2-1.9-2.2
		c-0.2,0-0.3-0.1-0.3-0.2s0.1-0.2,0.3-0.2c0.9,0,1.9,0,2.9,0c1.1,0,1.8,0,2.6,0h4.6c1.3,0,1.4-0.2,1.7-0.2c0.1,0,0.2,0.1,0.2,0.2
		l-0.3,2.7c0,0.3-0.3,0.2-0.3,0c0-1.7-1.4-1.9-3.6-1.9h-2.3c-1.4,0-1.6,0.2-1.6,1.6v2.3c0,0.1,0,0.2,0.2,0.2h3.4
		c1,0,1.7-0.5,1.7-1.4c0-0.4,0.3-0.4,0.3,0c0,0.6,0,1.2,0,1.8c0,0.6,0,1.3,0,1.8c0,0.3-0.3,0.3-0.3,0c0-0.9-0.7-1.4-1.7-1.4h-3.4
		c-0.1,0-0.2,0-0.2,0.2v2.2c0,1.7,0.3,1.9,3.4,1.9c2.4,0,4.2-0.6,5-2.7c0.1-0.3,0.4-0.2,0.3,0.1l-0.8,2.6c-0.2,0.6-0.4,0.8-1.2,0.8
		H215.3z"/>
	
		<linearGradient id="SVGID_00000166640182427481624380000008392774469856413097_" gradientUnits="userSpaceOnUse" x1="238.2327" y1="26.7222" x2="238.2327" y2="14.1662">
		<stop  offset="0" style="stop-color:#592B11"/>
		<stop  offset="0.2266" style="stop-color:#BF8A49"/>
		<stop  offset="0.365" style="stop-color:#CF9F54"/>
		<stop  offset="0.4879" style="stop-color:#D9AD5B"/>
		<stop  offset="0.524" style="stop-color:#DBB160"/>
		<stop  offset="0.5692" style="stop-color:#E1BC70"/>
		<stop  offset="0.6195" style="stop-color:#EACD8A"/>
		<stop  offset="0.673" style="stop-color:#F7E6AD"/>
		<stop  offset="0.6949" style="stop-color:#FDF2BE"/>
		<stop  offset="0.8957" style="stop-color:#E4C27A"/>
		<stop  offset="1" style="stop-color:#D9AD5B"/>
	</linearGradient>
	<path style="fill:url(#SVGID_00000166640182427481624380000008392774469856413097_);" d="M237.3,21.2c0-0.6-0.1-0.7-0.5-1.2
		l-3.4-4.2c-1.7-2.2-3-3.3-4.2-3.4c-0.3,0-0.6,0-0.6-0.2c0-0.1,0.2-0.1,0.5-0.1c1.2,0,1.4,0,2.8,0s2.3,0,3.2,0c0.3,0,0.5,0,0.5,0.1
		c0,0.2-0.2,0.2-0.5,0.2c-0.6,0-1,0.1-1,0.5c0,0.4,0.3,1,1,1.9l3.6,4.7l3.9-4.8c0.6-0.8,1-1.3,1-1.7s-0.3-0.5-1.1-0.5
		c-0.2,0-0.4,0-0.4-0.2c0-0.1,0.2-0.1,0.4-0.1c1.2,0,1.6,0,2.5,0s1.3,0,2.3,0c0.4,0,0.5,0,0.5,0.1c0,0.2-0.2,0.2-0.5,0.2
		c-1.2,0-1.7,0.4-3.6,2.7l-3.9,4.9c-0.4,0.5-0.4,0.6-0.4,1.1v1c0,1,0.1,1.6,0.3,1.9c0.4,0.7,1.3,1,2,1c0.3,0,0.6,0,0.6,0.2
		s-0.2,0.2-0.5,0.2c-1.1,0-2.3,0-3.3,0c-1.1,0-2.1,0-3.4,0c-0.3,0-0.5,0-0.5-0.2s0.2-0.2,0.6-0.2c0.7,0,1.6-0.3,2-1
		c0.2-0.4,0.3-0.9,0.3-1.9V21.2z"/>
	
		<linearGradient id="SVGID_00000038401919023538212940000003563660742443347589_" gradientUnits="userSpaceOnUse" x1="255.417" y1="26.7222" x2="255.417" y2="14.1662">
		<stop  offset="0" style="stop-color:#592B11"/>
		<stop  offset="0.2266" style="stop-color:#BF8A49"/>
		<stop  offset="0.365" style="stop-color:#CF9F54"/>
		<stop  offset="0.4879" style="stop-color:#D9AD5B"/>
		<stop  offset="0.524" style="stop-color:#DBB160"/>
		<stop  offset="0.5692" style="stop-color:#E1BC70"/>
		<stop  offset="0.6195" style="stop-color:#EACD8A"/>
		<stop  offset="0.673" style="stop-color:#F7E6AD"/>
		<stop  offset="0.6949" style="stop-color:#FDF2BE"/>
		<stop  offset="0.8957" style="stop-color:#E4C27A"/>
		<stop  offset="1" style="stop-color:#D9AD5B"/>
	</linearGradient>
	<path style="fill:url(#SVGID_00000038401919023538212940000003563660742443347589_);" d="M255.5,14.5c4.8,0,8.1,2.2,8.1,5.5
		c0,3-2.6,5.8-8.2,5.8c-4.8,0-8-2.2-8-5.5C247.3,17.2,250,14.5,255.5,14.5z M249.8,19.9c0,2.8,1.9,5.2,5.7,5.2
		c3.1,0,5.6-1.5,5.6-4.8c0-2.8-1.9-5.2-5.7-5.2C252.3,15.1,249.8,16.6,249.8,19.9z"/>
	
		<linearGradient id="SVGID_00000171719372551405608570000003372732358509871520_" gradientUnits="userSpaceOnUse" x1="274.269" y1="26.7222" x2="274.269" y2="14.1662">
		<stop  offset="0" style="stop-color:#592B11"/>
		<stop  offset="0.2266" style="stop-color:#BF8A49"/>
		<stop  offset="0.365" style="stop-color:#CF9F54"/>
		<stop  offset="0.4879" style="stop-color:#D9AD5B"/>
		<stop  offset="0.524" style="stop-color:#DBB160"/>
		<stop  offset="0.5692" style="stop-color:#E1BC70"/>
		<stop  offset="0.6195" style="stop-color:#EACD8A"/>
		<stop  offset="0.673" style="stop-color:#F7E6AD"/>
		<stop  offset="0.6949" style="stop-color:#FDF2BE"/>
		<stop  offset="0.8957" style="stop-color:#E4C27A"/>
		<stop  offset="1" style="stop-color:#D9AD5B"/>
	</linearGradient>
	<path style="fill:url(#SVGID_00000171719372551405608570000003372732358509871520_);" d="M279.6,17.3c0-0.8-0.1-1.2-0.2-1.4
		c-0.3-0.6-1.2-0.8-1.7-0.8c-0.3,0-0.5,0-0.5-0.2c0-0.1,0.2-0.2,0.4-0.2c1,0,1.8,0,2.6,0s1.4,0,2.5,0c0.3,0,0.4,0,0.4,0.2
		c0,0.1-0.2,0.2-0.5,0.2c-0.7,0-1.4,0.3-1.7,0.8c-0.1,0.3-0.2,0.7-0.2,1.4v3c0,3.5-2.4,5.5-6.4,5.5c-3.1,0-6.5-1.3-6.5-5.5v-2.9
		c0-0.8-0.1-1.2-0.3-1.4c-0.3-0.6-1.2-0.8-1.7-0.8c-0.3,0-0.5,0-0.5-0.2c0-0.1,0.1-0.2,0.4-0.2c1.2,0,2.1,0,3.1,0c1,0,2.1,0,3.1,0
		c0.3,0,0.4,0,0.4,0.2c0,0.1-0.2,0.2-0.5,0.2c-0.7,0-1.4,0.3-1.7,0.8c-0.2,0.3-0.2,0.7-0.2,1.4v2.9c0,3.6,2.4,4.6,4.8,4.6
		c2.7,0,4.8-1.5,4.8-4.6V17.3z"/>
	
		<linearGradient id="SVGID_00000151503006819711215630000011399457474892160157_" gradientUnits="userSpaceOnUse" x1="293.0881" y1="26.7222" x2="293.0881" y2="14.1662">
		<stop  offset="0" style="stop-color:#592B11"/>
		<stop  offset="0.2266" style="stop-color:#BF8A49"/>
		<stop  offset="0.365" style="stop-color:#CF9F54"/>
		<stop  offset="0.4879" style="stop-color:#D9AD5B"/>
		<stop  offset="0.524" style="stop-color:#DBB160"/>
		<stop  offset="0.5692" style="stop-color:#E1BC70"/>
		<stop  offset="0.6195" style="stop-color:#EACD8A"/>
		<stop  offset="0.673" style="stop-color:#F7E6AD"/>
		<stop  offset="0.6949" style="stop-color:#FDF2BE"/>
		<stop  offset="0.8957" style="stop-color:#E4C27A"/>
		<stop  offset="1" style="stop-color:#D9AD5B"/>
	</linearGradient>
	<path style="fill:url(#SVGID_00000151503006819711215630000011399457474892160157_);" d="M287.4,17.1c0-1.3-0.6-2.1-1.9-2.1
		c-0.3,0-0.4,0-0.4-0.2s0.1-0.2,0.3-0.2c0.9,0,1.9,0,3,0c1.2,0,2.4,0,3,0h1.5c2.7,0,5.7,0.5,5.7,3.1c0,1.9-1.7,2.8-3.5,3.1
		c0.4,0.1,1,0.9,1.4,1.4c1.5,2,2.6,3,3.6,3c0.3,0,0.5,0,0.8,0c0.3,0,0.3,0.2,0,0.3c-0.4,0-1.1,0.1-1.6,0.1c-2.7,0-3.1-0.2-5.1-3
		c-1.2-1.7-1.4-1.7-2.4-1.7h-2.2c-0.1,0-0.1,0-0.1,0.2v1.8c0,0.8,0,1.2,0.2,1.5c0.4,0.6,1.3,0.8,1.7,0.8c0.3,0,0.5,0,0.5,0.2
		c0,0.1-0.1,0.2-0.4,0.2c-1.1,0-2.1,0-3,0c-0.9,0-1.9,0-3,0c-0.3,0-0.4,0-0.4-0.2c0-0.1,0.2-0.1,0.5-0.2c0.7,0,1.3-0.2,1.7-0.8
		c0.1-0.3,0.2-0.7,0.2-1.5V17.1z M292.7,20.2c2.1,0,3.4-0.6,3.4-2.4s-1.3-2.4-3.4-2.4h-1.3c-1.8,0-1.9,0.1-1.9,1.7v3
		c0,0.1,0,0.2,0.1,0.2H292.7z"/>
	
		<linearGradient id="SVGID_00000016034625540173445860000015613264045632473004_" gradientUnits="userSpaceOnUse" x1="320.7386" y1="26.7222" x2="320.7386" y2="14.1662">
		<stop  offset="0" style="stop-color:#592B11"/>
		<stop  offset="0.2266" style="stop-color:#BF8A49"/>
		<stop  offset="0.365" style="stop-color:#CF9F54"/>
		<stop  offset="0.4879" style="stop-color:#D9AD5B"/>
		<stop  offset="0.524" style="stop-color:#DBB160"/>
		<stop  offset="0.5692" style="stop-color:#E1BC70"/>
		<stop  offset="0.6195" style="stop-color:#EACD8A"/>
		<stop  offset="0.673" style="stop-color:#F7E6AD"/>
		<stop  offset="0.6949" style="stop-color:#FDF2BE"/>
		<stop  offset="0.8957" style="stop-color:#E4C27A"/>
		<stop  offset="1" style="stop-color:#D9AD5B"/>
	</linearGradient>
	<path style="fill:url(#SVGID_00000016034625540173445860000015613264045632473004_);" d="M326.7,14.2l-5.8,10.4
		c-0.5,0.9-0.7,1.2-0.9,1.2c-0.1,0-0.3-0.3-0.6-0.9l-5.8-10.8l-2.8,8.4c-0.2,0.6-0.3,1-0.3,1.4c0,0.9,0.6,1.2,1.7,1.2
		c0.6,0,0.5,0.3,0,0.3c-1.2,0-1.6,0-2.7,0c-0.9,0-1.8,0-2.7,0c-0.4,0-0.4-0.3,0.1-0.3c1.5,0,2.2-0.9,2.9-2.9l2.6-7.9
		c0.1-0.4,0.2-0.7,0.2-1c0-0.7-0.5-0.9-1.6-0.9c-0.4,0-0.5-0.3,0-0.3h2.9c0.8,0,1.2,0.2,1.6,0.8l5.3,10.1l5.5-10
		c0.4-0.7,0.9-0.8,1.8-0.8h2.8c0.3,0,0.3,0.3,0,0.3c-0.6,0-1.8,0-1.8,1.1c0,0.3,0.2,0.8,0.3,1.1l2.7,8c0.4,1.3,1,2.6,2.7,2.6
		c0.6,0,0.6,0.3,0,0.3c-1.3,0-2,0-3,0c-1,0-1.8,0-3.6,0c-0.5,0-0.5-0.3,0.1-0.3c1.1,0,1.7-0.4,1.7-1.2c0-0.2,0-0.5-0.1-0.8
		L326.7,14.2z"/>
	
		<linearGradient id="SVGID_00000047036404766088027420000010679471760837801387_" gradientUnits="userSpaceOnUse" x1="343.4956" y1="26.7222" x2="343.4956" y2="14.1662">
		<stop  offset="0" style="stop-color:#592B11"/>
		<stop  offset="0.2266" style="stop-color:#BF8A49"/>
		<stop  offset="0.365" style="stop-color:#CF9F54"/>
		<stop  offset="0.4879" style="stop-color:#D9AD5B"/>
		<stop  offset="0.524" style="stop-color:#DBB160"/>
		<stop  offset="0.5692" style="stop-color:#E1BC70"/>
		<stop  offset="0.6195" style="stop-color:#EACD8A"/>
		<stop  offset="0.673" style="stop-color:#F7E6AD"/>
		<stop  offset="0.6949" style="stop-color:#FDF2BE"/>
		<stop  offset="0.8957" style="stop-color:#E4C27A"/>
		<stop  offset="1" style="stop-color:#D9AD5B"/>
	</linearGradient>
	<path style="fill:url(#SVGID_00000047036404766088027420000010679471760837801387_);" d="M346.6,22.2h-7l-0.7,1.2
		c-0.2,0.4-0.4,0.7-0.4,1.1c0,0.4,0.3,0.7,1.1,0.7c0.3,0,0.5,0,0.5,0.2c0,0.1-0.1,0.2-0.4,0.2c-0.8,0-1.6,0-2.4,0
		c-0.8,0-1.5,0-2.3,0c-0.3,0-0.4,0-0.4-0.2c0-0.1,0.2-0.2,0.5-0.2c1.3,0,2-0.9,2.9-2.2l4.7-7.2c-0.4-0.6-1.1-0.7-1.8-0.7
		c-0.4,0-0.5-0.3,0-0.3h2.2c1.1,0,1.4,0.2,1.8,0.7l4.8,7.8c0.6,1,1.4,2,2.4,2c0.3,0,0.5,0,0.5,0.2c0,0.1-0.1,0.1-0.5,0.1
		c-1,0-1.5,0-2.4,0c-1,0-2,0-3,0c-0.3,0-0.4,0-0.4-0.1c0-0.1,0.1-0.2,0.4-0.2c0.6,0,1.2-0.1,1.2-0.6c0-0.2-0.1-0.5-0.3-0.9
		L346.6,22.2z M340.1,21.4h6l-3-4.9L340.1,21.4z"/>
	
		<linearGradient id="SVGID_00000121987730852634173860000013120366459992208060_" gradientUnits="userSpaceOnUse" x1="358.9265" y1="26.7222" x2="358.9265" y2="14.1662">
		<stop  offset="0" style="stop-color:#592B11"/>
		<stop  offset="0.2266" style="stop-color:#BF8A49"/>
		<stop  offset="0.365" style="stop-color:#CF9F54"/>
		<stop  offset="0.4879" style="stop-color:#D9AD5B"/>
		<stop  offset="0.524" style="stop-color:#DBB160"/>
		<stop  offset="0.5692" style="stop-color:#E1BC70"/>
		<stop  offset="0.6195" style="stop-color:#EACD8A"/>
		<stop  offset="0.673" style="stop-color:#F7E6AD"/>
		<stop  offset="0.6949" style="stop-color:#FDF2BE"/>
		<stop  offset="0.8957" style="stop-color:#E4C27A"/>
		<stop  offset="1" style="stop-color:#D9AD5B"/>
	</linearGradient>
	<path style="fill:url(#SVGID_00000121987730852634173860000013120366459992208060_);" d="M357.9,15.5h-2.5c-1.9,0-2.2,0.6-2.7,2.1
		c-0.1,0.2-0.4,0.2-0.3-0.1l0.3-2.8c0-0.2,0-0.3,0.2-0.3c0.1,0,0.3,0.2,1.3,0.2h9.6c1,0,1.2-0.2,1.3-0.2c0.1,0,0.2,0.1,0.2,0.3
		l0.3,2.8c0,0.3-0.2,0.3-0.3,0.1c-0.6-1.6-0.8-2.1-2.7-2.1H360v7.4c0,0.8,0,1.2,0.2,1.5c0.3,0.6,1.1,0.8,1.7,0.8
		c0.3,0,0.5,0,0.5,0.2c0,0.1-0.1,0.1-0.4,0.1c-0.9,0-1.9,0-2.9,0s-2,0-3.1,0c-0.3,0-0.4,0-0.4-0.1c0-0.1,0.2-0.2,0.5-0.2
		c0.5,0,1.4-0.2,1.7-0.8c0.1-0.3,0.2-0.7,0.2-1.5V15.5z"/>
	
		<linearGradient id="SVGID_00000026158077520113968170000007548487751141293955_" gradientUnits="userSpaceOnUse" x1="375.887" y1="26.7222" x2="375.887" y2="14.1662">
		<stop  offset="0" style="stop-color:#592B11"/>
		<stop  offset="0.2266" style="stop-color:#BF8A49"/>
		<stop  offset="0.365" style="stop-color:#CF9F54"/>
		<stop  offset="0.4879" style="stop-color:#D9AD5B"/>
		<stop  offset="0.524" style="stop-color:#DBB160"/>
		<stop  offset="0.5692" style="stop-color:#E1BC70"/>
		<stop  offset="0.6195" style="stop-color:#EACD8A"/>
		<stop  offset="0.673" style="stop-color:#F7E6AD"/>
		<stop  offset="0.6949" style="stop-color:#FDF2BE"/>
		<stop  offset="0.8957" style="stop-color:#E4C27A"/>
		<stop  offset="1" style="stop-color:#D9AD5B"/>
	</linearGradient>
	<path style="fill:url(#SVGID_00000026158077520113968170000007548487751141293955_);" d="M370.2,17.1c0-1.3-0.6-2.1-1.9-2.1
		c-0.3,0-0.4,0-0.4-0.2s0.1-0.2,0.3-0.2c0.9,0,1.9,0,3,0c1.2,0,2.4,0,3,0h1.5c2.7,0,5.7,0.5,5.7,3.1c0,1.9-1.7,2.8-3.5,3.1
		c0.4,0.1,1,0.9,1.4,1.4c1.5,2,2.6,3,3.6,3c0.3,0,0.5,0,0.8,0c0.3,0,0.3,0.2,0,0.3c-0.4,0-1.1,0.1-1.6,0.1c-2.7,0-3.1-0.2-5.1-3
		c-1.2-1.7-1.4-1.7-2.4-1.7h-2.2c-0.1,0-0.1,0-0.1,0.2v1.8c0,0.8,0,1.2,0.2,1.5c0.4,0.6,1.3,0.8,1.7,0.8c0.3,0,0.5,0,0.5,0.2
		c0,0.1-0.1,0.2-0.4,0.2c-1.1,0-2.1,0-3,0c-0.9,0-1.9,0-3,0c-0.3,0-0.4,0-0.4-0.2c0-0.1,0.2-0.1,0.5-0.2c0.7,0,1.3-0.2,1.7-0.8
		c0.1-0.3,0.2-0.7,0.2-1.5V17.1z M375.5,20.2c2.1,0,3.4-0.6,3.4-2.4s-1.3-2.4-3.4-2.4h-1.3c-1.8,0-1.9,0.1-1.9,1.7v3
		c0,0.1,0,0.2,0.1,0.2H375.5z"/>
	
		<linearGradient id="SVGID_00000044144822548659922130000006675069149361347216_" gradientUnits="userSpaceOnUse" x1="388.603" y1="26.7222" x2="388.603" y2="14.1662">
		<stop  offset="0" style="stop-color:#592B11"/>
		<stop  offset="0.2266" style="stop-color:#BF8A49"/>
		<stop  offset="0.365" style="stop-color:#CF9F54"/>
		<stop  offset="0.4879" style="stop-color:#D9AD5B"/>
		<stop  offset="0.524" style="stop-color:#DBB160"/>
		<stop  offset="0.5692" style="stop-color:#E1BC70"/>
		<stop  offset="0.6195" style="stop-color:#EACD8A"/>
		<stop  offset="0.673" style="stop-color:#F7E6AD"/>
		<stop  offset="0.6949" style="stop-color:#FDF2BE"/>
		<stop  offset="0.8957" style="stop-color:#E4C27A"/>
		<stop  offset="1" style="stop-color:#D9AD5B"/>
	</linearGradient>
	<path style="fill:url(#SVGID_00000044144822548659922130000006675069149361347216_);" d="M387.6,17.3c0-0.8-0.1-1.2-0.2-1.4
		c-0.3-0.6-1.1-0.8-1.6-0.8c-0.3,0-0.5,0-0.5-0.2c0-0.1,0.2-0.2,0.4-0.2c1.1,0,1.9,0,3,0c1,0,2,0,3,0c0.3,0,0.4,0,0.4,0.2
		c0,0.1-0.2,0.2-0.5,0.2c-0.5,0-1.3,0.3-1.7,0.8c-0.1,0.3-0.2,0.7-0.2,1.4v5.6c0,0.8,0.1,1.2,0.2,1.5c0.3,0.6,1.1,0.8,1.7,0.8
		c0.3,0,0.5,0,0.5,0.2c0,0.1-0.1,0.1-0.4,0.1c-1.1,0-2,0-3,0c-0.9,0-1.9,0-2.9,0c-0.3,0-0.4,0-0.4-0.1c0-0.1,0.2-0.2,0.5-0.2
		c0.5,0,1.3-0.2,1.6-0.8c0.2-0.3,0.2-0.7,0.2-1.5V17.3z"/>
	
		<linearGradient id="SVGID_00000173152539040251637780000006503303785029119931_" gradientUnits="userSpaceOnUse" x1="401.6353" y1="26.7222" x2="401.6353" y2="14.1662">
		<stop  offset="0" style="stop-color:#592B11"/>
		<stop  offset="0.2266" style="stop-color:#BF8A49"/>
		<stop  offset="0.365" style="stop-color:#CF9F54"/>
		<stop  offset="0.4879" style="stop-color:#D9AD5B"/>
		<stop  offset="0.524" style="stop-color:#DBB160"/>
		<stop  offset="0.5692" style="stop-color:#E1BC70"/>
		<stop  offset="0.6195" style="stop-color:#EACD8A"/>
		<stop  offset="0.673" style="stop-color:#F7E6AD"/>
		<stop  offset="0.6949" style="stop-color:#FDF2BE"/>
		<stop  offset="0.8957" style="stop-color:#E4C27A"/>
		<stop  offset="1" style="stop-color:#D9AD5B"/>
	</linearGradient>
	<path style="fill:url(#SVGID_00000173152539040251637780000006503303785029119931_);" d="M401.4,20.9l-2.9,2.6
		c-0.5,0.5-0.8,0.9-0.8,1.2c0,0.2,0.2,0.4,0.8,0.4c0.3,0,0.5,0,0.5,0.2c0,0.1-0.2,0.1-0.4,0.1c-0.8,0-1.6,0-2.4,0
		c-0.8,0-1.6,0-2.3,0c-0.4,0-0.5,0-0.5-0.2c0-0.1,0.1-0.2,0.4-0.2c1.3,0,2.6-1,3.8-2l3.1-2.8l-2.6-2.7c-1.6-1.7-2.7-2.6-3.7-2.6
		c-0.2,0-0.5,0-0.5-0.2c0-0.1,0.1-0.1,0.5-0.1c0.8,0,1.6,0,2.6,0c1.3,0,1.8,0,2.6,0c0.2,0,0.4,0,0.4,0.2c0,0.1-0.2,0.2-0.5,0.2
		c-0.4,0-0.6,0.1-0.6,0.4c0,0.3,0.3,0.7,0.9,1.3l2.4,2.4l2.6-2.4c0.6-0.6,0.9-1,0.9-1.2c0-0.2-0.3-0.3-0.8-0.3c-0.3,0-0.5,0-0.5-0.2
		s0.2-0.2,0.4-0.2c0.8,0,1.4,0,2.2,0c0.8,0,1.2,0,2,0c0.3,0,0.4,0,0.4,0.2S409.3,15,409,15c-1.4,0-2.2,0.9-3.5,2.1l-2.7,2.6l2.9,2.9
		c1.2,1.3,2.6,2.6,3.7,2.6c0.3,0,0.5,0,0.5,0.2c0,0.1-0.2,0.1-0.5,0.1c-0.9,0-1.3,0-2.4,0c-1.3,0-2.1,0-2.9,0c-0.2,0-0.4,0-0.4-0.1
		c0-0.1,0.3-0.2,0.5-0.2c0.5,0,0.7-0.1,0.7-0.4c0-0.3-0.4-0.7-0.9-1.3L401.4,20.9z"/>
</g>
</svg>
